# Blender v2.92.0 OBJ File: 'pl1.blend'
# www.blender.org
mtllib body_c.mtl
o Cube.007_Cube.008
v -4.053896 -0.314887 0.093846
v -4.053896 -0.127194 0.093846
v -4.053896 -0.314887 -0.093846
v -4.053896 -0.127194 -0.093846
v -1.513382 -0.442042 0.426557
v -1.513382 0.231330 0.426557
v -1.513382 -0.442042 -0.426557
v -1.513382 0.231330 -0.426557
v -2.667715 -0.401185 -0.272124
v -2.667715 0.171392 -0.272124
v -2.667715 -0.401185 0.272124
v -2.667715 0.171392 0.272124
v -0.088809 0.238595 -0.666626
v -0.088809 -0.481143 -0.666626
v -0.088809 -0.481143 0.666626
v -0.088809 0.238595 0.666626
v 3.339468 0.017424 -0.666626
v 3.339468 -0.481143 -0.666626
v 3.339468 -0.481143 0.666626
v 3.339468 0.017424 0.666626
v -4.138247 -0.348757 0.000000
v -4.138247 -0.120314 -0.000000
v -1.527634 -0.503517 -0.000000
v -1.527634 0.316049 0.000000
v -2.713817 0.243098 0.000000
v -2.713817 -0.453790 0.000000
v -0.063753 -0.551108 -0.000000
v -0.063753 0.324892 -0.000000
v 3.459119 -0.551108 -0.000000
v 3.459119 0.055702 -0.000000
vt 0.375000 0.125000
vt 0.625000 0.125000
vt 0.625000 0.250000
vt 0.375000 0.250000
vt 0.375000 0.315676
vt 0.625000 0.315676
vt 0.625000 0.500000
vt 0.375000 0.500000
vt 0.625000 0.625000
vt 0.625000 0.750000
vt 0.625000 0.750000
vt 0.625000 0.625000
vt 0.375000 0.934324
vt 0.625000 0.934324
vt 0.625000 1.000000
vt 0.375000 1.000000
vt 0.190676 0.625000
vt 0.375000 0.625000
vt 0.375000 0.750000
vt 0.190676 0.750000
vt 0.809324 0.625000
vt 0.875000 0.625000
vt 0.875000 0.750000
vt 0.809324 0.750000
vt 0.125000 0.625000
vt 0.125000 0.750000
vt 0.375000 0.750000
vt 0.375000 0.750000
vt 0.625000 0.750000
vt 0.625000 0.500000
vt 0.375000 0.500000
vt 0.375000 0.625000
vt 0.375000 0.625000
vt 0.625000 0.625000
vt 0.375000 0.500000
vt 0.625000 0.500000
vt 0.125000 0.500000
vt 0.190676 0.500000
vt 0.809324 0.500000
vt 0.875000 0.500000
vt 0.375000 0.000000
vt 0.625000 0.000000
vn -0.7437 0.0000 -0.6685
vn -0.1326 0.0000 -0.9912
vn -0.0183 0.9878 0.1544
vn -0.1276 0.0000 0.9918
vn -0.0490 -0.9851 0.1651
vn -0.2369 0.9291 0.2839
vn -0.0700 0.9721 0.2237
vn -0.0818 -0.9630 0.2567
vn -0.1326 0.0000 0.9912
vn -0.1276 0.0000 -0.9918
vn 0.0000 0.0000 1.0000
vn -0.1662 0.0000 -0.9861
vn -0.1662 0.0000 0.9861
vn -0.0397 -0.9921 -0.1189
vn 0.9843 0.0000 0.1767
vn 0.0000 -0.9945 -0.1044
vn 0.0700 0.9925 0.1003
vn 0.0000 0.0000 -1.0000
vn 0.0700 0.9925 -0.1003
vn 0.0000 -0.9945 0.1044
vn 0.9843 0.0000 -0.1767
vn -0.0397 -0.9921 0.1189
vn -0.0818 -0.9630 -0.2567
vn -0.0700 0.9721 -0.2237
vn -0.2369 0.9291 -0.2839
vn -0.0490 -0.9851 -0.1651
vn -0.0183 0.9878 -0.1544
vn -0.7437 0.0000 0.6685
usemtl None
s off
f 21/1/1 22/2/1 4/3/1 3/4/1
f 9/5/2 10/6/2 8/7/2 7/8/2
f 24/9/3 6/10/3 16/11/3 28/12/3
f 11/13/4 12/14/4 2/15/4 1/16/4
f 26/17/5 23/18/5 5/19/5 11/20/5
f 25/21/6 22/22/6 2/23/6 12/24/6
f 24/9/7 25/21/7 12/24/7 6/10/7
f 21/25/8 26/17/8 11/20/8 1/26/8
f 5/19/9 6/10/9 12/14/9 11/13/9
f 3/4/10 4/3/10 10/6/10 9/5/10
f 16/11/11 15/27/11 19/28/11 20/29/11
f 7/8/12 8/7/12 13/30/12 14/31/12
f 6/10/13 5/19/13 15/27/13 16/11/13
f 23/18/14 7/8/14 14/31/14 27/32/14
f 29/33/15 30/34/15 20/29/15 19/28/15
f 27/32/16 14/31/16 18/35/16 29/33/16
f 28/12/17 16/11/17 20/29/17 30/34/17
f 14/31/18 13/30/18 17/36/18 18/35/18
f 13/30/19 28/12/19 30/34/19 17/36/19
f 15/27/20 27/32/20 29/33/20 19/28/20
f 18/35/21 17/36/21 30/34/21 29/33/21
f 5/19/22 23/18/22 27/32/22 15/27/22
f 3/37/23 9/38/23 26/17/23 21/25/23
f 8/7/24 10/39/24 25/21/24 24/9/24
f 10/39/25 4/40/25 22/22/25 25/21/25
f 9/38/26 7/8/26 23/18/26 26/17/26
f 8/7/27 24/9/27 28/12/27 13/30/27
f 1/41/28 2/42/28 22/2/28 21/1/28
