# Blender v2.92.0 OBJ File: 'pl.blend'
# www.blender.org
mtllib body2.mtl
o Cube.002
v 0.105945 -0.111421 0.172591
v 0.105945 -0.074609 0.172591
v 0.105945 -0.111421 -0.172591
v 0.105945 -0.074609 -0.172591
v 0.393894 -0.135188 0.324527
v 0.393894 -0.030479 0.324527
v 0.393894 -0.135188 -0.324527
v 0.393894 -0.030479 -0.324527
v 0.250663 -0.131363 -0.232176
v 0.250663 -0.054667 -0.232176
v 0.250663 -0.131363 0.232176
v 0.250663 -0.054667 0.232176
v 0.636382 -0.142408 0.294243
v 0.636382 -0.047274 0.294243
v 0.636382 -0.142408 -0.294243
v 0.636382 -0.047274 -0.294243
v 0.861686 -0.134405 0.359949
v 0.861686 -0.051625 0.359949
v 0.861686 -0.134405 -0.359949
v 0.861686 -0.051625 -0.359949
v 0.926992 -0.134405 0.401571
v 0.926992 -0.051625 0.401571
v 0.926992 -0.134405 -0.401571
v 0.926992 -0.051625 -0.401571
v 1.433870 -0.163922 0.401571
v 1.433870 -0.127409 0.401571
v 1.433870 -0.163922 -0.401571
v 1.433870 -0.127409 -0.401571
v 1.555114 -0.163922 0.348433
v 1.555114 -0.127409 0.348433
v 1.555114 -0.163922 -0.348433
v 1.555114 -0.127409 -0.348433
v 2.032268 -0.163922 0.348433
v 2.032268 -0.127409 0.348433
v 2.032268 -0.163922 -0.348433
v 2.032268 -0.127409 -0.348433
v -0.037869 -0.111421 0.115822
v -0.037869 -0.074609 0.115822
v -0.037869 -0.111421 -0.115822
v -0.037869 -0.074609 -0.115822
vt 0.875000 0.750000
vt 0.875000 0.500000
vt 0.875000 0.500000
vt 0.875000 0.750000
vt 0.375000 0.375645
vt 0.625000 0.375645
vt 0.625000 0.500000
vt 0.375000 0.500000
vt 0.625000 0.750000
vt 0.375000 0.750000
vt 0.375000 0.750000
vt 0.625000 0.750000
vt 0.375000 0.874355
vt 0.625000 0.874355
vt 0.625000 1.000000
vt 0.375000 1.000000
vt 0.250645 0.500000
vt 0.250645 0.750000
vt 0.749355 0.500000
vt 0.749355 0.750000
vt 0.125000 0.500000
vt 0.125000 0.750000
vt 0.375000 0.250000
vt 0.625000 0.250000
vt 0.625000 0.500000
vt 0.625000 0.750000
vt 0.625000 0.500000
vt 0.375000 0.500000
vt 0.375000 0.750000
vt 0.375000 0.750000
vt 0.625000 0.750000
vt 0.375000 0.500000
vt 0.375000 0.500000
vt 0.375000 0.500000
vt 0.375000 0.750000
vt 0.625000 0.500000
vt 0.625000 0.500000
vt 0.625000 0.750000
vt 0.625000 0.750000
vt 0.625000 0.500000
vt 0.375000 0.750000
vt 0.375000 0.750000
vt 0.625000 0.750000
vt 0.375000 0.500000
vt 0.375000 0.500000
vt 0.625000 0.500000
vt 0.375000 0.000000
vt 0.625000 0.000000
vt 0.625000 0.250000
vt 0.375000 0.250000
vt 0.125000 0.750000
vt 0.125000 0.500000
vt 0.625000 1.000000
vt 0.375000 1.000000
vn 0.0000 1.0000 0.0000
vn -0.5419 0.0000 -0.8404
vn 0.1239 0.0000 0.9923
vn -0.3807 0.0000 0.9247
vn -0.0267 -0.9996 -0.0000
vn -0.1365 0.9906 0.0000
vn -0.1665 0.9860 -0.0000
vn -0.1365 -0.9906 0.0000
vn -0.5419 0.0000 0.8404
vn -0.3807 0.0000 -0.9247
vn 0.0193 0.9998 0.0000
vn -0.0298 -0.9996 0.0000
vn 0.0691 0.9976 0.0000
vn 0.1239 0.0000 -0.9923
vn -0.5375 0.0000 0.8433
vn -0.2800 0.0000 -0.9600
vn -0.2800 0.0000 0.9600
vn 0.0355 -0.9994 0.0000
vn -0.0581 -0.9983 0.0000
vn 0.0000 -1.0000 0.0000
vn -0.5375 0.0000 -0.8433
vn 0.1479 0.9890 0.0000
vn 0.0000 0.0000 -1.0000
vn 0.0000 0.0000 1.0000
vn 0.4014 0.0000 -0.9159
vn 0.4014 0.0000 0.9159
vn 1.0000 0.0000 0.0000
vn -1.0000 0.0000 0.0000
vn -0.3672 0.0000 -0.9302
vn -0.3672 0.0000 0.9302
usemtl Material
s off
f 2/1/1 4/2/1 40/3/1 38/4/1
f 9/5/2 10/6/2 8/7/2 7/8/2
f 6/9/3 5/10/3 13/11/3 14/12/3
f 11/13/4 12/14/4 2/15/4 1/16/4
f 9/17/5 7/8/5 5/10/5 11/18/5
f 10/19/6 4/2/6 2/1/6 12/20/6
f 8/7/7 10/19/7 12/20/7 6/9/7
f 3/21/8 9/17/8 11/18/8 1/22/8
f 5/10/9 6/9/9 12/14/9 11/13/9
f 3/23/10 4/24/10 10/6/10 9/5/10
f 16/25/11 14/12/11 18/26/11 20/27/11
f 5/10/12 7/8/12 15/28/12 13/11/12
f 8/7/13 6/9/13 14/12/13 16/25/13
f 7/8/14 8/7/14 16/25/14 15/28/14
f 18/26/15 17/29/15 21/30/15 22/31/15
f 15/28/16 16/25/16 20/27/16 19/32/16
f 14/12/17 13/11/17 17/29/17 18/26/17
f 13/11/18 15/28/18 19/32/18 17/29/18
f 21/30/19 23/33/19 27/34/19 25/35/19
f 17/29/20 19/32/20 23/33/20 21/30/20
f 20/27/1 18/26/1 22/31/1 24/36/1
f 19/32/21 20/27/21 24/36/21 23/33/21
f 28/37/1 26/38/1 30/39/1 32/40/1
f 24/36/22 22/31/22 26/38/22 28/37/22
f 23/33/23 24/36/23 28/37/23 27/34/23
f 22/31/24 21/30/24 25/35/24 26/38/24
f 30/39/24 29/41/24 33/42/24 34/43/24
f 27/34/25 28/37/25 32/40/25 31/44/25
f 26/38/26 25/35/26 29/41/26 30/39/26
f 25/35/20 27/34/20 31/44/20 29/41/20
f 35/45/27 36/46/27 34/43/27 33/42/27
f 29/41/20 31/44/20 35/45/20 33/42/20
f 32/40/1 30/39/1 34/43/1 36/46/1
f 31/44/23 32/40/23 36/46/23 35/45/23
f 37/47/28 38/48/28 40/49/28 39/50/28
f 3/21/20 1/22/20 37/51/20 39/52/20
f 4/24/29 3/23/29 39/50/29 40/49/29
f 1/16/30 2/15/30 38/53/30 37/54/30
