# Blender v2.92.0 OBJ File: 'pl.blend'
# www.blender.org
mtllib cockpit.mtl
o Cube.001
v 0.022424 0.079620 0.084595
v 0.022424 0.079620 -0.084596
v 0.018643 0.122264 -0.000000
v -0.169171 0.054677 -0.072238
v -0.175291 0.116418 -0.000000
v -0.169171 0.054677 0.072238
v 0.023164 0.042995 -0.097905
v 0.023164 0.042995 0.097904
v -0.156824 0.023440 -0.080661
v 0.249951 0.069776 -0.058458
v -0.156824 0.023440 0.080661
v 0.249951 0.069776 0.058458
v 0.249709 0.077720 -0.000000
v 0.249994 0.064691 -0.062281
v 0.249994 0.064691 0.062281
v -0.381123 -0.002017 -0.000000
v -0.245964 0.006908 0.069097
v -0.245964 0.006908 -0.069097
v 0.133586 0.055041 -0.097905
v 0.133586 0.055041 0.097904
v 0.133404 0.076439 -0.090497
v 0.133404 0.076439 0.090497
v 0.135374 0.101237 -0.000000
v 0.019830 0.101583 -0.041956
v -0.171450 0.082254 -0.034566
v 0.250025 0.074202 -0.029229
v -0.329867 -0.000572 -0.029611
v 0.135866 0.092563 -0.041956
v 0.019830 0.101583 0.041955
v -0.171450 0.082254 0.034566
v 0.250025 0.074202 0.029229
v -0.329867 -0.000572 0.029611
v 0.135866 0.092563 0.041955
v -0.077783 0.068368 -0.078417
v -0.067911 0.130192 -0.000000
v -0.077783 0.068368 0.078417
v -0.067267 0.032781 0.089283
v -0.067267 0.032781 -0.089283
v -0.073065 0.101846 -0.038261
v -0.073065 0.101846 0.038261
vt 0.625000 0.750000
vt 0.556944 0.750000
vt 0.583664 0.750000
vt 0.625000 0.750000
vt 0.670265 0.562500
vt 0.707411 0.562500
vt 0.710603 0.625000
vt 0.670265 0.625000
vt 0.670265 0.687500
vt 0.707411 0.687500
vt 0.704218 0.750000
vt 0.670265 0.750000
vt 0.625000 0.687500
vt 0.625000 0.687500
vt 0.625000 0.562500
vt 0.625000 0.625000
vt 0.625000 0.625000
vt 0.625000 0.562500
vt 0.647633 0.687500
vt 0.647633 0.750000
vt 0.647633 0.562500
vt 0.647633 0.625000
vt 0.561252 0.772633
vt 0.625000 0.772633
vt 0.561252 0.477367
vt 0.565560 0.454735
vt 0.625000 0.454735
vt 0.625000 0.477367
vt 0.625000 0.500000
vt 0.595496 0.500000
vt 0.583664 0.500000
vt 0.625000 0.500000
vt 0.625000 0.829218
vt 0.565560 0.795265
vt 0.625000 0.795265
vt 0.625000 0.420782
vt 0.625000 0.750000
vt 0.625000 0.687500
vt 0.625000 0.625000
vt 0.625000 0.562500
vt 0.595495 0.750000
vt 0.556944 0.500000
vt 0.625000 0.500000
vt 0.647632 0.500000
vt 0.670265 0.500000
vt 0.704218 0.500000
vn -0.0385 0.3355 0.9413
vn -0.3723 0.6576 -0.6549
vn -0.3971 0.6768 0.6198
vn 0.0395 0.9220 0.3851
vn 0.1210 0.9377 -0.3256
vn -0.1680 0.7782 0.6052
vn -0.1337 0.7532 -0.6441
vn -0.1074 0.3005 0.9477
vn -0.1095 0.2409 -0.9643
vn 0.2536 0.3795 -0.8898
vn -0.1619 0.1968 0.9670
vn -0.1619 0.1968 -0.9670
vn 0.1534 0.9541 0.2571
vn 0.1867 0.9687 -0.1638
vn 0.2536 0.3795 0.8898
vn -0.0385 0.3355 -0.9413
vn 0.1534 0.9541 -0.2571
vn -0.1680 0.7782 -0.6052
vn 0.0395 0.9220 -0.3851
vn -0.3971 0.6768 -0.6198
vn 0.1867 0.9687 0.1638
vn -0.1337 0.7532 0.6441
vn 0.1210 0.9377 0.3256
vn -0.3723 0.6576 0.6549
vn 0.0282 0.8523 0.5223
vn -0.0755 0.8294 -0.5535
vn -0.1074 0.3005 -0.9477
vn -0.1095 0.2409 0.9643
vn 0.0282 0.8523 -0.5223
vn -0.0755 0.8294 0.5535
usemtl Material.001
s off
f 1/1/1 8/2/1 20/3/1 22/4/1
f 25/5/2 27/6/2 16/7/2 5/8/2
f 30/9/3 32/10/3 17/11/3 6/12/3
f 29/13/4 1/1/4 22/4/4 33/14/4
f 24/15/5 3/16/5 23/17/5 28/18/5
f 40/19/6 30/9/6 6/12/6 36/20/6
f 39/21/7 25/5/7 5/8/7 35/22/7
f 37/23/8 8/2/8 1/1/8 36/24/8
f 38/25/9 9/26/9 4/27/9 34/28/9
f 10/29/10 14/30/10 19/31/10 21/32/10
f 17/33/11 11/34/11 6/35/11
f 9/26/12 18/36/12 4/27/12
f 33/14/13 22/4/13 12/37/13 31/38/13
f 28/18/14 23/17/14 13/39/14 26/40/14
f 22/4/15 20/3/15 15/41/15 12/37/15
f 21/32/16 19/31/16 7/42/16 2/43/16
f 21/32/17 28/18/17 26/40/17 10/29/17
f 34/44/18 4/45/18 25/5/18 39/21/18
f 2/43/19 24/15/19 28/18/19 21/32/19
f 4/45/20 18/46/20 27/6/20 25/5/20
f 23/17/21 33/14/21 31/38/21 13/39/21
f 35/22/22 5/8/22 30/9/22 40/19/22
f 3/16/23 29/13/23 33/14/23 23/17/23
f 5/8/24 16/7/24 32/10/24 30/9/24
f 3/16/25 35/22/25 40/19/25 29/13/25
f 2/43/26 34/44/26 39/21/26 24/15/26
f 7/42/27 38/25/27 34/28/27 2/43/27
f 11/34/28 37/23/28 36/24/28 6/35/28
f 24/15/29 39/21/29 35/22/29 3/16/29
f 29/13/30 40/19/30 36/20/30 1/1/30
