# Blender v2.92.0 OBJ File: 'pl1.blend'
# www.blender.org
mtllib cockpit.mtl
o Cube.001
v -1.936173 0.291213 0.201873
v -1.936173 0.291213 -0.201873
v -2.393383 0.231689 -0.172383
v -2.393383 0.231689 0.172383
v -1.934408 0.203811 -0.233633
v -1.934408 0.203811 0.233633
v -2.363919 0.157149 -0.192484
v -1.393217 0.267721 -0.139500
v -2.363919 0.157149 0.192484
v -1.393217 0.267721 0.139500
v -1.393796 0.286434 -0.000000
v -1.393114 0.255587 -0.148624
v -1.393114 0.255587 0.148624
v -2.899171 0.096400 -0.000000
v -2.576638 0.117698 0.164889
v -2.576638 0.117698 -0.164889
v -1.670904 0.232557 -0.233633
v -1.670903 0.232557 0.233633
v -1.671337 0.283621 -0.215956
v -1.671337 0.283621 0.215956
v -1.393041 0.278284 -0.069750
v -2.776858 0.099845 -0.070660
v -1.393041 0.278284 0.069750
v -2.776857 0.099846 0.070660
v -2.175300 0.264360 -0.187128
v -2.175300 0.264360 0.187128
v -2.150205 0.179438 0.213059
v -2.150205 0.179438 -0.213059
v -2.056653 0.279504 -0.196202
v -1.804058 0.291195 0.212229
v -1.804058 0.291195 -0.212229
v -2.486757 0.195763 -0.170255
v -2.653588 0.239195 0.000000
v -2.285624 0.249817 0.181948
v -1.936007 0.249288 -0.221778
v -1.936007 0.249288 0.221778
v -2.380774 0.195148 -0.185551
v -2.380774 0.195148 0.185551
v -2.042723 0.191995 0.224241
v -1.392522 0.281893 0.035038
v -1.392522 0.282428 -0.035038
v -2.042723 0.191996 -0.224241
v -1.527205 0.244542 -0.189533
v -1.392472 0.262246 -0.143602
v -1.527206 0.244541 0.189533
v -1.392472 0.262246 0.143602
v -2.486757 0.195763 0.170255
v -2.473125 0.140108 0.181842
v -2.473125 0.140108 -0.181842
v -2.677899 0.109431 0.118376
v -2.677899 0.109431 -0.118376
v -1.803298 0.220247 -0.238531
v -1.803298 0.220247 0.238531
v -1.528861 0.315162 -0.158538
v -1.528861 0.315162 0.158538
v -1.529609 0.368375 -0.000000
v -1.670183 0.259009 0.226971
v -1.670184 0.259009 -0.226972
v -1.390743 0.273814 -0.105020
v -2.842780 0.097205 -0.037491
v -1.528304 0.353660 -0.085351
v -2.594262 0.202723 -0.114179
v -1.390743 0.273814 0.105020
v -2.842780 0.097205 0.037491
v -1.528304 0.353660 0.085351
v -2.594262 0.202723 0.114179
v -2.285624 0.249817 -0.181948
v -2.056652 0.279504 0.196202
v -2.257384 0.168524 0.203527
v -2.257384 0.168524 -0.203527
v -2.163878 0.223016 -0.203412
v -2.163878 0.223016 0.203412
v -2.273172 0.210036 0.196044
v -2.050638 0.237161 -0.213974
v -2.638042 0.231034 0.052427
v -1.527770 0.364494 0.043008
v -2.542888 0.190493 -0.145868
v -1.526040 0.332491 -0.133977
v -1.803709 0.257246 -0.228646
v -1.527076 0.263642 0.185197
v -1.527771 0.364494 -0.043008
v -1.526040 0.332491 0.133977
v -1.527076 0.263642 -0.185197
v -2.273172 0.210036 -0.196044
v -2.050638 0.237161 0.213973
v -2.542888 0.190493 0.145868
v -2.638042 0.231034 -0.052427
v -1.803709 0.257246 0.228646
v -1.936173 0.336699 0.157184
v -1.936173 0.336699 -0.157184
v -2.393383 0.277175 -0.134222
v -2.393383 0.277175 0.134222
v -1.671337 0.329108 -0.168149
v -1.671337 0.329108 0.168149
v -2.175300 0.309847 -0.145703
v -2.175300 0.309847 0.145703
v -2.056653 0.324991 -0.152768
v -1.804058 0.336681 0.165247
v -1.804058 0.336681 -0.165247
v -2.486757 0.241249 -0.132565
v -2.285624 0.295304 0.141669
v -2.486757 0.241249 0.132565
v -2.285624 0.295304 -0.141669
v -2.056652 0.324991 0.152768
v -1.936173 0.381197 0.095705
v -1.936173 0.381197 -0.095705
v -2.393383 0.321673 -0.081724
v -2.393383 0.321673 0.081724
v -1.671337 0.373605 -0.102382
v -1.671337 0.373605 0.102382
v -2.175300 0.354345 -0.088715
v -2.175300 0.354345 0.088715
v -2.056653 0.369489 -0.093017
v -1.804058 0.381179 0.100615
v -1.804058 0.381179 -0.100615
v -2.486757 0.285747 -0.080716
v -2.285624 0.339801 0.086259
v -2.486757 0.285747 0.080716
v -2.285624 0.339801 -0.086259
v -2.056652 0.369488 0.093017
v -1.936173 0.406467 0.024201
v -1.936173 0.406467 -0.024201
v -2.393383 0.346943 -0.020666
v -2.393383 0.346943 0.020666
v -1.671337 0.398876 -0.025890
v -1.671337 0.398876 0.025890
v -2.175300 0.379615 -0.022434
v -2.175300 0.379615 0.022434
v -2.056653 0.394759 -0.023522
v -1.804058 0.406449 0.025443
v -1.804058 0.406449 -0.025443
v -2.486757 0.311017 -0.020411
v -2.285624 0.365072 0.021813
v -2.486757 0.311017 0.020411
v -2.285624 0.365072 -0.021813
v -2.056652 0.394759 0.023522
vt 0.597652 0.750000
vt 0.570304 0.750000
vt 0.583664 0.750000
vt 0.604332 0.750000
vt 0.689636 0.593750
vt 0.709007 0.593750
vt 0.710603 0.625000
vt 0.690434 0.625000
vt 0.688040 0.718750
vt 0.705814 0.718750
vt 0.704218 0.750000
vt 0.687242 0.750000
vt 0.592049 0.761316
vt 0.590972 0.750000
vt 0.625000 0.750000
vt 0.625000 0.761316
vt 0.594203 0.466051
vt 0.595280 0.454735
vt 0.625000 0.454735
vt 0.625000 0.466051
vt 0.607290 0.500000
vt 0.589580 0.500000
vt 0.583664 0.500000
vt 0.604332 0.500000
vt 0.625000 0.829218
vt 0.595280 0.812241
vt 0.625000 0.812242
vt 0.565560 0.454735
vt 0.595280 0.437758
vt 0.625000 0.718750
vt 0.625000 0.750000
vt 0.625000 0.750000
vt 0.625000 0.718750
vt 0.625000 0.593750
vt 0.625000 0.625000
vt 0.625000 0.625000
vt 0.625000 0.593750
vt 0.607290 0.750000
vt 0.589580 0.750000
vt 0.595495 0.750000
vt 0.610248 0.750000
vt 0.597652 0.500000
vt 0.570304 0.500000
vt 0.556944 0.500000
vt 0.590972 0.500000
vt 0.625000 0.531250
vt 0.625000 0.562500
vt 0.625000 0.562500
vt 0.625000 0.531250
vt 0.688040 0.531250
vt 0.705814 0.531250
vt 0.707411 0.562500
vt 0.688838 0.562500
vt 0.625000 0.656250
vt 0.625000 0.687500
vt 0.625000 0.687500
vt 0.625000 0.656250
vt 0.689636 0.656250
vt 0.709007 0.656250
vt 0.707411 0.687500
vt 0.688838 0.687500
vt 0.592049 0.488684
vt 0.593126 0.477367
vt 0.625000 0.477367
vt 0.625000 0.488684
vt 0.594203 0.783949
vt 0.593126 0.772633
vt 0.625000 0.772633
vt 0.625000 0.783949
vt 0.595280 0.795265
vt 0.625000 0.795265
vt 0.565560 0.795265
vt 0.563406 0.783949
vt 0.561252 0.772633
vt 0.625000 0.500000
vt 0.559098 0.488684
vt 0.561252 0.477367
vt 0.687241 0.500000
vt 0.704218 0.500000
vt 0.625000 0.500000
vt 0.625000 0.500000
vt 0.625000 0.500000
vt 0.625000 0.500000
vt 0.625000 0.750000
vt 0.625000 0.437759
vt 0.625000 0.420782
vt 0.610248 0.500000
vt 0.595496 0.500000
vt 0.563406 0.466051
vt 0.559098 0.761316
vt 0.556944 0.750000
vt 0.625000 0.750000
vt 0.625000 0.488684
vt 0.625000 0.500000
vt 0.625000 0.772633
vt 0.625000 0.783949
vt 0.625000 0.750000
vt 0.625000 0.750000
vt 0.625000 0.500000
vt 0.625000 0.454735
vt 0.625000 0.466051
vt 0.625000 0.761316
vt 0.625000 0.437759
vt 0.625000 0.477367
vt 0.625000 0.795265
vt 0.625000 0.750000
vt 0.625000 0.500000
vt 0.625000 0.812242
vt 0.625000 0.795265
vt 0.625000 0.812242
vt 0.625000 0.783949
vt 0.625000 0.454735
vt 0.625000 0.466051
vt 0.625000 0.477367
vt 0.625000 0.750000
vt 0.625000 0.761316
vt 0.625000 0.772633
vt 0.625000 0.488684
vt 0.625000 0.500000
vt 0.625000 0.750000
vt 0.625000 0.750000
vt 0.625000 0.500000
vt 0.625000 0.500000
vt 0.625000 0.437759
vt 0.625000 0.437759
vt 0.625000 0.454735
vt 0.625000 0.795265
vt 0.625000 0.812242
vt 0.625000 0.783949
vt 0.625000 0.466051
vt 0.625000 0.477367
vt 0.625000 0.750000
vt 0.625000 0.761316
vt 0.625000 0.772633
vt 0.625000 0.488684
vt 0.625000 0.500000
vt 0.625000 0.750000
vt 0.625000 0.750000
vt 0.625000 0.500000
vt 0.625000 0.500000
vt 0.000000 0.000000
vt 0.000000 0.000000
vn 0.0106 0.2523 0.9676
vn -0.4793 0.7563 -0.4453
vn -0.4046 0.4022 0.8213
vn -0.0929 0.4007 0.9115
vn -0.1333 0.2943 -0.9464
vn 0.2679 0.2214 -0.9377
vn -0.1922 0.1547 0.9691
vn -0.1160 0.1283 -0.9849
vn 0.3949 0.8413 0.3692
vn 0.5180 0.8529 -0.0655
vn 0.2673 0.3219 0.9083
vn -0.0665 0.2528 -0.9652
vn 0.4623 0.8547 -0.2361
vn -0.4197 0.4127 -0.8084
vn 0.5081 0.8453 0.1654
vn -0.4542 0.5751 0.6804
vn -0.1230 0.3520 -0.9279
vn -0.0945 0.3246 0.9411
vn -0.1333 0.2943 0.9464
vn -0.1151 0.1313 0.9846
vn -0.0948 0.1648 0.9818
vn -0.0929 0.4007 -0.9115
vn -0.0990 0.2261 -0.9691
vn -0.1190 0.1898 -0.9746
vn -0.4793 0.7563 0.4453
vn 0.5191 0.8517 0.0712
vn -0.4046 0.4022 -0.8213
vn 0.3949 0.8413 -0.3692
vn -0.0715 0.4303 -0.8999
vn 0.0023 0.4243 -0.9055
vn 0.0106 0.2523 -0.9676
vn 0.2731 0.4663 0.8414
vn 0.2451 0.4376 0.8651
vn 0.2679 0.2214 0.9377
vn 0.5067 0.8450 -0.1712
vn 0.4623 0.8547 0.2361
vn -0.1348 0.2944 -0.9461
vn -0.1398 0.1689 -0.9757
vn -0.1922 0.1547 -0.9691
vn -0.1348 0.2944 0.9461
vn -0.1398 0.1689 0.9757
vn -0.1160 0.1283 0.9849
vn 0.2451 0.4376 -0.8651
vn 0.2731 0.4663 -0.8414
vn 0.2673 0.3219 -0.9082
vn -0.0945 0.3246 -0.9411
vn -0.0948 0.1648 -0.9818
vn -0.1151 0.1313 -0.9846
vn -0.1230 0.3520 0.9279
vn -0.1190 0.1898 0.9746
vn -0.0990 0.2261 0.9691
vn -0.4197 0.4127 0.8084
vn -0.4542 0.5751 -0.6804
vn 0.0023 0.4243 0.9055
vn -0.0715 0.4303 0.8999
vn -0.0665 0.2528 0.9652
vn -0.0972 0.6925 -0.7149
vn -0.1183 0.6635 0.7388
vn -0.0489 0.7090 0.7036
vn -0.0489 0.7090 -0.7036
vn -0.1672 0.6438 -0.7467
vn -0.0972 0.6925 0.7149
vn -0.2534 0.6195 -0.7430
vn -0.1355 0.6758 -0.7245
vn -0.1672 0.6438 0.7467
vn 0.0239 0.7213 0.6922
vn -0.1183 0.6635 -0.7388
vn 0.0239 0.7213 -0.6922
vn -0.1355 0.6758 0.7245
vn -0.2534 0.6195 0.7430
vn -0.2891 0.7284 0.6212
vn -0.1630 0.7612 0.6278
vn -0.1630 0.7612 -0.6278
vn -0.1207 0.7783 -0.6162
vn -0.0954 0.8024 0.5891
vn -0.1294 0.7886 0.6012
vn -0.1295 0.7886 -0.6012
vn -0.0953 0.8024 -0.5891
vn 0.0372 0.8254 0.5633
vn -0.0282 0.8167 0.5764
vn 0.0372 0.8254 -0.5633
vn -0.0282 0.8167 -0.5764
vn -0.1207 0.7783 0.6162
vn -0.2891 0.7284 -0.6212
vn -0.3369 0.8692 -0.3620
vn -0.3369 0.8692 0.3620
vn -0.1637 0.9151 0.3685
vn -0.1637 0.9151 -0.3685
vn -0.1269 0.9252 -0.3577
vn -0.0958 0.9370 0.3359
vn -0.1265 0.9296 0.3460
vn -0.1265 0.9296 -0.3460
vn -0.0958 0.9370 -0.3359
vn 0.0514 0.9475 0.3157
vn -0.0075 0.9454 0.3258
vn 0.0514 0.9475 -0.3157
vn -0.0075 0.9454 -0.3258
vn -0.1269 0.9252 0.3577
vn -0.3591 0.9333 0.0000
vn -0.1659 0.9861 0.0000
vn -0.1307 0.9914 0.0000
vn -0.1266 0.9920 0.0000
vn -0.0967 0.9953 0.0000
vn 0.0001 1.0000 0.0000
vn 0.0570 0.9984 -0.0000
vn -0.3669 0.5935 -0.7163
vn -0.3316 0.5648 -0.7556
vn -0.3669 0.5935 0.7163
vn -0.3316 0.5648 0.7556
vn -0.3650 0.7136 0.5980
vn -0.3954 0.9185 0.0000
vn -0.3920 0.8659 0.3108
vn -0.3920 0.8659 -0.3108
vn -0.3650 0.7136 -0.5980
vn 0.2104 0.9776 -0.0000
vn 0.2234 0.9716 -0.0781
vn 0.2234 0.9716 0.0781
vn 0.1118 0.8230 0.5569
vn 0.1724 0.9061 0.3864
vn 0.1626 0.9554 -0.2465
vn 0.1626 0.9554 0.2465
vn 0.1173 0.7477 -0.6536
vn 0.1173 0.7477 0.6536
vn 0.1793 0.8148 -0.5513
vn 0.0717 0.9157 -0.3953
vn 0.1867 0.9328 0.3082
vn 0.1867 0.9328 -0.3082
usemtl Material.001
s off
f 88/1/1 53/2/1 18/3/1 57/4/1
f 87/5/2 60/6/2 14/7/2 33/8/2
f 86/9/3 50/10/3 15/11/3 47/12/3
f 85/13/4 36/14/4 1/15/4 68/16/4
f 84/17/5 37/18/5 3/19/5 67/20/5
f 83/21/6 43/22/6 17/23/6 58/24/6
f 15/25/7 48/26/7 47/27/7
f 7/28/8 49/29/8 37/18/8
f 82/30/9 55/31/9 10/32/9 63/33/9
f 81/34/10 56/35/10 11/36/10 41/37/10
f 80/38/11 45/39/11 13/40/11 46/41/11
f 79/42/12 52/43/12 5/44/12 35/45/12
f 78/46/13 61/47/13 21/48/13 59/49/13
f 77/50/14 51/51/14 22/52/14 62/53/14
f 76/54/15 65/55/15 23/56/15 40/57/15
f 75/58/16 64/59/16 24/60/16 66/61/16
f 74/62/17 71/63/17 25/64/17 29/65/17
f 73/66/18 72/67/18 26/68/18 34/69/18
f 38/70/19 73/66/19 34/69/19 4/71/19
f 9/72/20 69/73/20 73/66/20 38/70/20
f 69/73/21 27/74/21 72/67/21 73/66/21
f 35/45/22 74/62/22 29/65/22 2/75/22
f 5/44/23 42/76/23 74/62/23 35/45/23
f 42/76/24 28/77/24 71/63/24 74/62/24
f 33/8/25 14/7/25 64/59/25 75/58/25
f 56/35/26 76/54/26 40/57/26 11/36/26
f 32/78/27 16/79/27 51/51/27 77/50/27
f 54/80/28 78/46/28 59/49/28 8/81/28
f 31/82/29 79/42/29 35/45/29 2/75/29
f 19/83/30 58/24/30 79/42/30 31/82/30
f 58/24/31 17/23/31 52/43/31 79/42/31
f 55/31/32 80/38/32 46/41/32 10/32/32
f 20/84/33 57/4/33 80/38/33 55/31/33
f 57/4/34 18/3/34 45/39/34 80/38/34
f 61/47/35 81/34/35 41/37/35 21/48/35
f 65/55/36 82/30/36 63/33/36 23/56/36
f 37/18/37 32/85/37 3/19/37
f 37/18/38 49/29/38 32/85/38
f 49/29/39 16/86/39 32/85/39
f 47/27/40 38/70/40 4/71/40
f 47/27/41 48/26/41 38/70/41
f 48/26/42 9/72/42 38/70/42
f 54/80/43 83/21/43 58/24/43 19/83/43
f 8/81/44 44/87/44 83/21/44 54/80/44
f 44/87/45 12/88/45 43/22/45 83/21/45
f 71/63/46 84/17/46 67/20/46 25/64/46
f 28/77/47 70/89/47 84/17/47 71/63/47
f 70/89/48 7/28/48 37/18/48 84/17/48
f 72/67/49 85/13/49 68/16/49 26/68/49
f 27/74/50 39/90/50 85/13/50 72/67/50
f 39/90/51 6/91/51 36/14/51 85/13/51
f 66/61/52 24/60/52 50/10/52 86/9/52
f 62/53/53 22/52/53 60/6/53 87/5/53
f 30/92/54 88/1/54 57/4/54 20/84/54
f 1/15/55 36/14/55 88/1/55 30/92/55
f 36/14/56 6/91/56 53/2/56 88/1/56
f 2/75/57 29/65/57 97/93/57 90/94/57
f 34/69/58 26/68/58 96/95/58 101/96/58
f 1/15/59 30/92/59 98/97/59 89/98/59
f 31/82/60 2/75/60 90/94/60 99/99/60
f 67/20/61 3/19/61 91/100/61 103/101/61
f 68/16/62 1/15/62 89/98/62 104/102/62
f 3/19/63 32/85/63 100/103/63 91/100/63
f 29/65/64 25/64/64 95/104/64 97/93/64
f 4/71/65 34/69/65 101/96/65 92/105/65
f 30/92/66 20/84/66 94/106/66 98/97/66
f 25/64/67 67/20/67 103/101/67 95/104/67
f 19/83/68 31/82/68 99/99/68 93/107/68
f 26/68/69 68/16/69 104/102/69 96/95/69
f 47/27/70 4/71/70 92/105/70 102/108/70
f 102/108/71 92/105/71 108/109/71 118/110/71
f 92/105/72 101/96/72 117/111/72 108/109/72
f 103/101/73 91/100/73 107/112/73 119/113/73
f 95/104/74 103/101/74 119/113/74 111/114/74
f 104/102/75 89/98/75 105/115/75 120/116/75
f 96/95/76 104/102/76 120/116/76 112/117/76
f 97/93/77 95/104/77 111/114/77 113/118/77
f 90/94/78 97/93/78 113/118/78 106/119/78
f 98/97/79 94/106/79 110/120/79 114/121/79
f 89/98/80 98/97/80 114/121/80 105/115/80
f 93/107/81 99/99/81 115/122/81 109/123/81
f 99/99/82 90/94/82 106/119/82 115/122/82
f 101/96/83 96/95/83 112/117/83 117/111/83
f 91/100/84 100/103/84 116/124/84 107/112/84
f 107/112/85 116/124/85 132/125/85 123/126/85
f 118/110/86 108/109/86 124/127/86 134/128/86
f 108/109/87 117/111/87 133/129/87 124/127/87
f 119/113/88 107/112/88 123/126/88 135/130/88
f 111/114/89 119/113/89 135/130/89 127/131/89
f 120/116/90 105/115/90 121/132/90 136/133/90
f 112/117/91 120/116/91 136/133/91 128/134/91
f 113/118/92 111/114/92 127/131/92 129/135/92
f 106/119/93 113/118/93 129/135/93 122/136/93
f 114/121/94 110/120/94 126/137/94 130/138/94
f 105/115/95 114/121/95 130/138/95 121/132/95
f 109/123/96 115/122/96 131/139/96 125/140/96
f 115/122/97 106/119/97 122/136/97 131/139/97
f 117/111/98 112/117/98 128/134/98 133/129/98
f 134/128/99 124/127/99 123/126/99 132/125/99
f 124/127/100 133/129/100 135/130/100 123/126/100
f 133/129/101 128/134/101 127/131/101 135/130/101
f 128/134/102 136/133/102 129/135/102 127/131/102
f 136/133/103 121/132/103 122/136/103 129/135/103
f 121/132/104 130/138/104 131/139/104 122/136/104
f 130/138/105 126/137/105 125/140/105 131/139/105
f 77/50/106 100/103/106 32/85/106
f 62/53/107 100/103/107 77/50/107
f 47/27/108 102/108/108 86/9/108
f 86/9/109 102/108/109 66/61/109
f 66/61/110 102/108/110 118/110/110 75/58/110
f 132/125/111 33/141/111 134/128/111
f 75/58/112 118/110/112 134/128/112 33/141/112
f 33/141/113 132/125/113 116/124/113 87/5/113
f 87/5/114 116/124/114 100/103/114 62/53/114
f 56/142/115 125/140/115 126/137/115
f 56/142/116 81/34/116 125/140/116
f 56/142/117 126/137/117 76/54/117
f 94/106/118 82/30/118 110/120/118
f 65/55/119 110/120/119 82/30/119
f 61/47/120 109/123/120 81/34/120
f 76/54/121 110/120/121 65/55/121
f 19/83/122 93/107/122 78/46/122 54/80/122
f 20/84/123 55/31/123 82/30/123 94/106/123
f 109/123/124 61/47/124 93/107/124
f 61/47/125 78/46/125 93/107/125
f 110/120/126 76/54/126 126/137/126
f 125/140/127 81/34/127 109/123/127
