# Blender v2.92.0 OBJ File: 'pl.blend'
# www.blender.org
mtllib eleron.mtl
o Cube.004
v 1.832675 -0.151688 -0.342099
v 1.832675 -0.139448 -0.342099
v 2.218915 -0.151688 -0.778473
v 2.218915 -0.139448 -0.778473
v 2.297779 -0.152887 -0.349511
v 2.297779 -0.140647 -0.349511
v 2.253338 -0.151688 -0.760569
v 2.253338 -0.139448 -0.760569
v 2.127951 -0.151688 -0.716429
v 2.127951 -0.139448 -0.716429
v 2.342764 -0.151688 -0.705137
v 2.342764 -0.139448 -0.705137
v 1.744009 -0.151688 -0.342501
v 1.744009 -0.139448 -0.342501
v 2.187625 -0.151688 -0.797803
v 2.187625 -0.139448 -0.797803
v 2.100524 -0.151688 -0.714931
v 2.100524 -0.139448 -0.714931
v 1.893811 -0.151688 -0.432050
v 2.310715 -0.139448 -0.432103
v 1.893811 -0.139448 -0.432050
v 2.310715 -0.151688 -0.432103
v 1.834338 -0.151688 -0.443606
v 1.834338 -0.139448 -0.443606
v 1.832675 -0.151688 0.342099
v 1.832675 -0.139448 0.342099
v 2.218915 -0.151688 0.778473
v 2.218915 -0.139448 0.778473
v 2.297779 -0.152887 0.349511
v 2.297779 -0.140647 0.349511
v 2.253338 -0.151688 0.760569
v 2.253338 -0.139448 0.760569
v 2.127951 -0.151688 0.716429
v 2.127951 -0.139448 0.716429
v 2.342764 -0.151688 0.705137
v 2.342764 -0.139448 0.705137
v 1.744009 -0.151688 0.342501
v 1.744009 -0.139448 0.342501
v 2.187625 -0.151688 0.797803
v 2.187625 -0.139448 0.797803
v 2.100524 -0.151688 0.714931
v 2.100524 -0.139448 0.714931
v 1.893811 -0.151688 0.432050
v 2.310715 -0.139448 0.432103
v 1.893811 -0.139448 0.432050
v 2.310715 -0.151688 0.432103
v 1.834338 -0.151688 0.443606
v 1.834338 -0.139448 0.443606
vt 0.875000 0.529557
vt 0.875000 0.500000
vt 0.875000 0.500000
vt 0.875000 0.529557
vt 0.375000 0.250000
vt 0.625000 0.250000
vt 0.625000 0.500000
vt 0.375000 0.500000
vt 0.375000 0.702045
vt 0.625000 0.702045
vt 0.625000 0.750000
vt 0.375000 0.750000
vt 0.625000 1.000000
vt 0.375000 1.000000
vt 0.125000 0.702045
vt 0.125000 0.750000
vt 0.875000 0.702045
vt 0.875000 0.750000
vt 0.625000 0.529557
vt 0.125000 0.500000
vt 0.375000 0.529557
vt 0.125000 0.529557
vt 0.875000 0.702045
vt 0.375000 0.220443
vt 0.625000 0.220443
vt 0.625000 0.250000
vt 0.375000 0.250000
vt 0.375000 0.047955
vt 0.625000 0.047955
vt 0.125000 0.750000
vt 0.125000 0.702045
vt 0.125000 0.529557
vt 0.125000 0.500000
vt 0.375000 0.000000
vt 0.625000 0.000000
vt 0.875000 0.750000
vt 0.875000 0.529557
vt 0.875000 0.529557
vt 0.875000 0.500000
vt 0.875000 0.500000
vt 0.375000 0.250000
vt 0.375000 0.500000
vt 0.625000 0.500000
vt 0.625000 0.250000
vt 0.375000 0.702045
vt 0.375000 0.750000
vt 0.625000 0.750000
vt 0.625000 0.702045
vt 0.375000 1.000000
vt 0.625000 1.000000
vt 0.125000 0.702045
vt 0.125000 0.750000
vt 0.875000 0.750000
vt 0.875000 0.702045
vt 0.625000 0.529557
vt 0.125000 0.500000
vt 0.125000 0.529557
vt 0.375000 0.529557
vt 0.875000 0.702045
vt 0.375000 0.220443
vt 0.375000 0.250000
vt 0.625000 0.250000
vt 0.625000 0.220443
vt 0.375000 0.047955
vt 0.625000 0.047955
vt 0.125000 0.702045
vt 0.125000 0.750000
vt 0.125000 0.500000
vt 0.125000 0.529557
vt 0.375000 0.000000
vt 0.625000 0.000000
vt 0.875000 0.750000
vn 0.0000 1.0000 0.0000
vn 0.4614 0.0000 -0.8872
vn 0.9880 0.0000 0.1547
vn 0.0159 0.0000 0.9999
vn -0.0014 -1.0000 -0.0076
vn 0.0014 1.0000 0.0076
vn -0.0000 -1.0000 0.0000
vn 0.5269 0.0000 -0.8500
vn -0.6893 0.0000 -0.7245
vn -0.7138 0.0000 -0.7003
vn 0.5256 0.0000 -0.8507
vn -0.7457 0.0000 -0.6662
vn 0.9932 0.0000 0.1166
vn 0.4614 0.0000 0.8872
vn 0.9880 0.0000 -0.1547
vn 0.0159 0.0000 -0.9999
vn -0.0014 -1.0000 0.0076
vn 0.0014 1.0000 -0.0076
vn 0.5269 0.0000 0.8500
vn -0.6893 0.0000 0.7245
vn -0.7138 0.0000 0.7003
vn 0.5256 0.0000 0.8507
vn -0.7457 0.0000 0.6662
vn 0.9932 0.0000 -0.1166
usemtl Material
s off
f 10/1/1 4/2/1 16/3/1 18/4/1
f 3/5/2 4/6/2 8/7/2 7/8/2
f 22/9/3 20/10/3 6/11/3 5/12/3
f 5/12/4 6/11/4 2/13/4 1/14/4
f 19/15/5 22/9/5 5/12/5 1/16/5
f 20/10/6 21/17/6 2/18/6 6/11/6
f 8/7/1 4/2/1 10/1/1 12/19/1
f 3/20/7 7/8/7 11/21/7 9/22/7
f 7/8/8 8/7/8 12/19/8 11/21/8
f 21/17/1 10/1/1 18/4/1 24/23/1
f 17/24/9 18/25/9 16/26/9 15/27/9
f 23/28/10 24/29/10 18/25/10 17/24/10
f 19/15/7 1/16/7 13/30/7 23/31/7
f 4/6/11 3/5/11 15/27/11 16/26/11
f 3/20/7 9/22/7 17/32/7 15/33/7
f 9/22/7 19/15/7 23/31/7 17/32/7
f 13/34/12 14/35/12 24/29/12 23/28/12
f 2/18/1 21/17/1 24/23/1 14/36/1
f 12/19/1 10/1/1 21/17/1 20/10/1
f 9/22/7 11/21/7 22/9/7 19/15/7
f 11/21/13 12/19/13 20/10/13 22/9/13
f 34/37/1 42/38/1 40/39/1 28/40/1
f 27/41/14 31/42/14 32/43/14 28/44/14
f 46/45/15 29/46/15 30/47/15 44/48/15
f 29/46/16 25/49/16 26/50/16 30/47/16
f 43/51/17 25/52/17 29/46/17 46/45/17
f 44/48/18 30/47/18 26/53/18 45/54/18
f 32/43/1 36/55/1 34/37/1 28/40/1
f 27/56/7 33/57/7 35/58/7 31/42/7
f 31/42/19 35/58/19 36/55/19 32/43/19
f 45/54/1 48/59/1 42/38/1 34/37/1
f 41/60/20 39/61/20 40/62/20 42/63/20
f 47/64/21 41/60/21 42/63/21 48/65/21
f 43/51/7 47/66/7 37/67/7 25/52/7
f 28/44/22 40/62/22 39/61/22 27/41/22
f 27/56/7 39/68/7 41/69/7 33/57/7
f 33/57/7 41/69/7 47/66/7 43/51/7
f 37/70/23 47/64/23 48/65/23 38/71/23
f 26/53/1 38/72/1 48/59/1 45/54/1
f 36/55/1 44/48/1 45/54/1 34/37/1
f 33/57/7 43/51/7 46/45/7 35/58/7
f 35/58/24 46/45/24 44/48/24 36/55/24
