# Blender v2.92.0 OBJ File: 'pl3.blend'
# www.blender.org
mtllib rc3_icon.mtl
o Cube.022
v 0.114475 -0.045130 -2.279123
v 0.113885 -0.045078 -2.279149
v 0.115043 -0.045283 -2.279045
v 0.115565 -0.045533 -2.278919
v 0.116024 -0.045869 -2.278750
v 0.116400 -0.046278 -2.278544
v 0.116679 -0.046745 -2.278309
v 0.116851 -0.047251 -2.278053
v 0.116909 -0.047778 -2.277787
v 0.116851 -0.048305 -2.277522
v 0.116679 -0.048812 -2.277267
v 0.116400 -0.049278 -2.277031
v 0.116024 -0.049688 -2.276825
v 0.115565 -0.050024 -2.276655
v 0.115043 -0.050273 -2.276530
v 0.114475 -0.050427 -2.276452
v 0.113885 -0.050479 -2.276426
v 0.113295 -0.050427 -2.276452
v 0.112728 -0.050273 -2.276530
v 0.112205 -0.050024 -2.276655
v 0.111747 -0.049688 -2.276825
v 0.111371 -0.049278 -2.277031
v 0.111091 -0.048812 -2.277267
v 0.110919 -0.048305 -2.277522
v 0.110861 -0.047778 -2.277787
v 0.110919 -0.047251 -2.278053
v 0.111091 -0.046745 -2.278309
v 0.111371 -0.046278 -2.278544
v 0.111747 -0.045869 -2.278750
v 0.112205 -0.045533 -2.278919
v 0.112728 -0.045283 -2.279045
v 0.113295 -0.045130 -2.279123
v 0.114475 -0.045437 -2.279732
v 0.113885 -0.045385 -2.279758
v 0.115043 -0.045590 -2.279654
v 0.115565 -0.045840 -2.279528
v 0.116024 -0.046176 -2.279359
v 0.116400 -0.046585 -2.279153
v 0.116679 -0.047052 -2.278917
v 0.116851 -0.047558 -2.278662
v 0.116909 -0.048085 -2.278396
v 0.116851 -0.048612 -2.278131
v 0.116679 -0.049119 -2.277875
v 0.116400 -0.049585 -2.277640
v 0.116024 -0.049995 -2.277434
v 0.115565 -0.050330 -2.277264
v 0.115043 -0.050580 -2.277138
v 0.114475 -0.050734 -2.277061
v 0.113885 -0.050786 -2.277035
v 0.113295 -0.050734 -2.277061
v 0.112728 -0.050580 -2.277138
v 0.112205 -0.050330 -2.277264
v 0.111747 -0.049995 -2.277434
v 0.111371 -0.049585 -2.277640
v 0.111091 -0.049119 -2.277875
v 0.110919 -0.048612 -2.278131
v 0.110861 -0.048085 -2.278396
v 0.110919 -0.047558 -2.278662
v 0.111091 -0.047052 -2.278917
v 0.111371 -0.046585 -2.279153
v 0.111747 -0.046176 -2.279359
v 0.112205 -0.045840 -2.279528
v 0.112728 -0.045590 -2.279654
v 0.113295 -0.045437 -2.279732
vt 0.296822 0.485388
vt 0.341844 0.471731
vt 0.383337 0.449553
vt 0.419706 0.419706
vt 0.449553 0.383337
vt 0.471731 0.341844
vt 0.485388 0.296822
vt 0.490000 0.250000
vt 0.485388 0.203178
vt 0.471731 0.158156
vt 0.449553 0.116663
vt 0.419706 0.080294
vt 0.383337 0.050447
vt 0.341844 0.028269
vt 0.296822 0.014612
vt 0.250000 0.010000
vt 0.203178 0.014612
vt 0.158156 0.028269
vt 0.116663 0.050447
vt 0.080294 0.080294
vt 0.050447 0.116663
vt 0.028269 0.158156
vt 0.014611 0.203179
vt 0.010000 0.250000
vt 0.014612 0.296822
vt 0.028269 0.341844
vt 0.050447 0.383337
vt 0.080295 0.419706
vt 0.116663 0.449553
vt 0.158156 0.471731
vt 0.203179 0.485389
vt 0.250000 0.490000
vt 0.296822 0.485388
vt 0.250000 0.490000
vt 0.203179 0.485389
vt 0.158156 0.471731
vt 0.116663 0.449553
vt 0.080295 0.419706
vt 0.050447 0.383337
vt 0.028269 0.341844
vt 0.014612 0.296822
vt 0.010000 0.250000
vt 0.014611 0.203179
vt 0.028269 0.158156
vt 0.050447 0.116663
vt 0.080294 0.080294
vt 0.116663 0.050447
vt 0.158156 0.028269
vt 0.203178 0.014612
vt 0.250000 0.010000
vt 0.296822 0.014612
vt 0.341844 0.028269
vt 0.383337 0.050447
vt 0.419706 0.080294
vt 0.449553 0.116663
vt 0.471731 0.158156
vt 0.485388 0.203178
vt 0.490000 0.250000
vt 0.485388 0.296822
vt 0.471731 0.341844
vt 0.449553 0.383337
vt 0.419706 0.419706
vt 0.383337 0.449553
vt 0.341844 0.471731
vn 0.0000 -0.4502 -0.8929
vn 0.0000 0.4502 0.8929
vn 0.9569 0.2592 -0.1307
vn -0.9569 0.2593 -0.1307
vn 0.9952 0.0875 -0.0441
vn -0.8819 0.4209 -0.2122
vn 0.9952 -0.0876 0.0441
vn -0.7731 0.5663 -0.2855
vn 0.9569 -0.2592 0.1307
vn -0.6344 0.6903 -0.3479
vn 0.8819 -0.4210 0.2123
vn -0.4715 0.7875 -0.3970
vn -0.0981 -0.8886 0.4481
vn 0.7731 -0.5664 0.2855
vn -0.2901 0.8545 -0.4309
vn -0.2899 -0.8546 0.4309
vn 0.6344 -0.6903 0.3479
vn -0.0981 0.8886 -0.4481
vn -0.4716 -0.7874 0.3970
vn 0.4713 -0.7875 0.3970
vn 0.0981 0.8886 -0.4481
vn -0.6344 -0.6903 0.3479
vn 0.2900 -0.8545 0.4309
vn 0.2900 0.8545 -0.4309
vn -0.7731 -0.5664 0.2855
vn 0.0981 -0.8886 0.4481
vn 0.4714 0.7875 -0.3970
vn -0.8820 -0.4209 0.2122
vn 0.6343 0.6903 -0.3480
vn -0.9569 -0.2592 0.1307
vn 0.7731 0.5663 -0.2855
vn -0.9952 -0.0875 0.0441
vn 0.8819 0.4210 -0.2123
vn -0.9952 0.0875 -0.0441
usemtl Material.006
s off
f 1/1/1 3/2/1 4/3/1 5/4/1 6/5/1 7/6/1 8/7/1 9/8/1 10/9/1 11/10/1 12/11/1 13/12/1 14/13/1 15/14/1 16/15/1 17/16/1 18/17/1 19/18/1 20/19/1 21/20/1 22/21/1 23/22/1 24/23/1 25/24/1 26/25/1 27/26/1 28/27/1 29/28/1 30/29/1 31/30/1 32/31/1 2/32/1
f 33/33/2 34/34/2 64/35/2 63/36/2 62/37/2 61/38/2 60/39/2 59/40/2 58/41/2 57/42/2 56/43/2 55/44/2 54/45/2 53/46/2 52/47/2 51/48/2 50/49/2 49/50/2 48/51/2 47/52/2 46/53/2 45/54/2 44/55/2 43/56/2 42/57/2 41/58/2 40/59/2 39/60/2 38/61/2 37/62/2 36/63/2 35/64/2
f 24/23/3 23/22/3 55/44/3 56/43/3
f 11/10/4 10/9/4 42/57/4 43/56/4
f 25/24/5 24/23/5 56/43/5 57/42/5
f 12/11/6 11/10/6 43/56/6 44/55/6
f 26/25/7 25/24/7 57/42/7 58/41/7
f 13/12/8 12/11/8 44/55/8 45/54/8
f 27/26/9 26/25/9 58/41/9 59/40/9
f 14/13/10 13/12/10 45/54/10 46/53/10
f 28/27/11 27/26/11 59/40/11 60/39/11
f 15/14/12 14/13/12 46/53/12 47/52/12
f 1/1/13 2/32/13 34/34/13 33/33/13
f 29/28/14 28/27/14 60/39/14 61/38/14
f 16/15/15 15/14/15 47/52/15 48/51/15
f 3/2/16 1/1/16 33/33/16 35/64/16
f 30/29/17 29/28/17 61/38/17 62/37/17
f 17/16/18 16/15/18 48/51/18 49/50/18
f 4/3/19 3/2/19 35/64/19 36/63/19
f 31/30/20 30/29/20 62/37/20 63/36/20
f 18/17/21 17/16/21 49/50/21 50/49/21
f 5/4/22 4/3/22 36/63/22 37/62/22
f 32/31/23 31/30/23 63/36/23 64/35/23
f 19/18/24 18/17/24 50/49/24 51/48/24
f 6/5/25 5/4/25 37/62/25 38/61/25
f 2/32/26 32/31/26 64/35/26 34/34/26
f 20/19/27 19/18/27 51/48/27 52/47/27
f 7/6/28 6/5/28 38/61/28 39/60/28
f 21/20/29 20/19/29 52/47/29 53/46/29
f 8/7/30 7/6/30 39/60/30 40/59/30
f 22/21/31 21/20/31 53/46/31 54/45/31
f 9/8/32 8/7/32 40/59/32 41/58/32
f 23/22/33 22/21/33 54/45/33 55/44/33
f 10/9/34 9/8/34 41/58/34 42/57/34
