# Blender v2.92.0 OBJ File: 'pl3.blend'
# www.blender.org
mtllib rearControl.mtl
o Cube.013_Cube.012
v 1.643467 0.014605 0.140986
v 1.109658 0.014605 0.078327
v 1.109658 -0.014605 0.078327
v 1.643467 -0.014605 0.140986
v 1.109658 -0.014605 0.000000
v 1.643467 -0.014605 0.000000
v 1.109658 0.014605 0.000000
v 1.643467 0.014605 0.000000
v -1.643467 0.014605 0.140986
v -1.109658 0.014605 0.078327
v -1.109658 -0.014605 0.078328
v -1.643467 -0.014605 0.140986
v -1.109658 -0.014605 0.000000
v -1.643467 -0.014605 0.000001
v -1.109658 0.014605 0.000000
v -1.643467 0.014605 0.000001
vt 0.375000 0.681259
vt 0.351390 0.681490
vt 0.310583 0.541658
vt 0.375000 0.539941
vt 0.625000 0.539941
vt 0.625000 0.681259
vt 0.689417 0.541658
vt 0.648610 0.681490
vt 0.375000 0.681259
vt 0.375000 0.539941
vt 0.310583 0.541658
vt 0.351390 0.681490
vt 0.625000 0.681259
vt 0.625000 0.539941
vt 0.648610 0.681490
vt 0.689417 0.541658
vn 0.0000 -1.0000 -0.0000
vn -0.1166 0.0000 0.9932
vn -0.0000 1.0000 0.0000
vn 1.0000 0.0000 0.0000
vn -1.0000 0.0000 0.0000
vn 0.0000 -0.0000 -1.0000
vn 0.1166 0.0000 0.9932
usemtl Material
s off
f 3/1/1 5/2/1 6/3/1 4/4/1
f 4/4/2 1/5/2 2/6/2 3/1/2
f 1/5/3 8/7/3 7/8/3 2/6/3
f 4/4/4 6/3/4 8/7/4 1/5/4
f 5/2/5 3/1/5 2/6/5 7/8/5
f 6/3/6 5/2/6 7/8/6 8/7/6
f 11/9/1 12/10/1 14/11/1 13/12/1
f 12/10/7 11/9/7 10/13/7 9/14/7
f 9/14/3 10/13/3 15/15/3 16/16/3
f 12/10/5 9/14/5 16/16/5 14/11/5
f 13/12/4 15/15/4 10/13/4 11/9/4
f 14/11/6 16/16/6 15/15/6 13/12/6
