# Blender v2.92.0 OBJ File: 'pl.blend'
# www.blender.org
mtllib rud.mtl
o Cube.005
v 1.564132 -0.140182 -0.313751
v 1.564132 -0.138356 -0.301647
v 1.945422 0.374506 -0.391395
v 1.945422 0.376332 -0.379291
v 2.029236 -0.133031 -0.316042
v 2.029236 -0.131205 -0.303938
v 2.062993 0.355823 -0.388577
v 2.062993 0.357649 -0.376473
v 1.875245 0.279878 -0.377120
v 1.875245 0.281704 -0.365016
v 2.065312 0.279478 -0.377059
v 2.065312 0.281304 -0.364956
v 1.475466 -0.139784 -0.313811
v 1.475466 -0.137958 -0.301707
v 1.919082 0.376980 -0.391768
v 1.919082 0.378806 -0.379665
v 1.837920 0.283291 -0.377634
v 1.837920 0.285116 -0.365531
v 1.638136 -0.110942 -0.318162
v 2.035738 -0.051316 -0.314778
v 1.638136 -0.109116 -0.306058
v 2.035738 -0.053142 -0.326881
v 1.551937 -0.061344 -0.325644
v 1.551937 -0.059518 -0.313540
v 1.564132 -0.140182 0.313751
v 1.564132 -0.138356 0.301647
v 1.945422 0.374506 0.391395
v 1.945422 0.376332 0.379291
v 2.029236 -0.133031 0.316042
v 2.029236 -0.131205 0.303938
v 2.062993 0.355823 0.388577
v 2.062993 0.357649 0.376473
v 1.875245 0.279878 0.377120
v 1.875245 0.281704 0.365016
v 2.065312 0.279478 0.377059
v 2.065312 0.281304 0.364956
v 1.475466 -0.139784 0.313811
v 1.475466 -0.137958 0.301707
v 1.919082 0.376980 0.391768
v 1.919082 0.378806 0.379665
v 1.837920 0.283291 0.377634
v 1.837920 0.285116 0.365531
v 1.638136 -0.110942 0.318162
v 2.035738 -0.051316 0.314778
v 1.638136 -0.109116 0.306058
v 2.035738 -0.053142 0.326881
v 1.551937 -0.061344 0.325644
v 1.551937 -0.059518 0.313540
vt 0.875000 0.529557
vt 0.875000 0.500000
vt 0.875000 0.500000
vt 0.875000 0.529557
vt 0.375000 0.250000
vt 0.625000 0.250000
vt 0.625000 0.500000
vt 0.375000 0.500000
vt 0.375000 0.702045
vt 0.625000 0.702045
vt 0.625000 0.750000
vt 0.375000 0.750000
vt 0.625000 1.000000
vt 0.375000 1.000000
vt 0.125000 0.702045
vt 0.125000 0.750000
vt 0.875000 0.702045
vt 0.875000 0.750000
vt 0.625000 0.529557
vt 0.125000 0.500000
vt 0.375000 0.529557
vt 0.125000 0.529557
vt 0.875000 0.702045
vt 0.375000 0.220443
vt 0.625000 0.220443
vt 0.625000 0.250000
vt 0.375000 0.250000
vt 0.375000 0.047955
vt 0.625000 0.047955
vt 0.125000 0.750000
vt 0.125000 0.702045
vt 0.125000 0.529557
vt 0.125000 0.500000
vt 0.375000 0.000000
vt 0.625000 0.000000
vt 0.875000 0.750000
vt 0.875000 0.529557
vt 0.875000 0.529557
vt 0.875000 0.500000
vt 0.875000 0.500000
vt 0.375000 0.250000
vt 0.375000 0.500000
vt 0.625000 0.500000
vt 0.625000 0.250000
vt 0.375000 0.702045
vt 0.375000 0.750000
vt 0.625000 0.750000
vt 0.625000 0.702045
vt 0.375000 1.000000
vt 0.625000 1.000000
vt 0.125000 0.702045
vt 0.125000 0.750000
vt 0.875000 0.750000
vt 0.875000 0.702045
vt 0.625000 0.529557
vt 0.125000 0.500000
vt 0.125000 0.529557
vt 0.375000 0.529557
vt 0.875000 0.702045
vt 0.375000 0.220443
vt 0.375000 0.250000
vt 0.625000 0.250000
vt 0.625000 0.220443
vt 0.375000 0.047955
vt 0.625000 0.047955
vt 0.125000 0.702045
vt 0.125000 0.750000
vt 0.125000 0.500000
vt 0.125000 0.529557
vt 0.375000 0.000000
vt 0.625000 0.000000
vt 0.875000 0.750000
vn 0.0000 0.1492 0.9888
vn 0.1587 0.9763 -0.1473
vn 0.9968 -0.0795 0.0120
vn 0.0159 -0.9887 0.1491
vn -0.0024 -0.1367 -0.9906
vn 0.0024 0.1367 0.9906
vn -0.0000 -0.1492 -0.9888
vn 0.9995 0.0297 -0.0045
vn -0.7595 0.6433 -0.0970
vn -0.7731 0.6272 -0.0946
vn 0.0946 0.9844 -0.1485
vn -0.7200 0.6863 -0.1035
vn 0.9962 -0.0866 0.0131
vn 0.0000 0.1492 -0.9888
vn 0.1587 0.9763 0.1473
vn 0.9968 -0.0795 -0.0120
vn 0.0159 -0.9887 -0.1491
vn -0.0024 -0.1367 0.9906
vn 0.0024 0.1367 -0.9906
vn -0.0000 -0.1492 0.9888
vn 0.9995 0.0297 0.0045
vn -0.7595 0.6433 0.0970
vn -0.7731 0.6272 0.0946
vn 0.0946 0.9844 0.1485
vn -0.7200 0.6863 0.1035
vn 0.9962 -0.0866 -0.0131
usemtl Material
s off
f 10/1/1 4/2/1 16/3/1 18/4/1
f 3/5/2 4/6/2 8/7/2 7/8/2
f 22/9/3 20/10/3 6/11/3 5/12/3
f 5/12/4 6/11/4 2/13/4 1/14/4
f 19/15/5 22/9/5 5/12/5 1/16/5
f 20/10/6 21/17/6 2/18/6 6/11/6
f 8/7/1 4/2/1 10/1/1 12/19/1
f 3/20/7 7/8/7 11/21/7 9/22/7
f 7/8/8 8/7/8 12/19/8 11/21/8
f 21/17/1 10/1/1 18/4/1 24/23/1
f 17/24/9 18/25/9 16/26/9 15/27/9
f 23/28/10 24/29/10 18/25/10 17/24/10
f 19/15/7 1/16/7 13/30/7 23/31/7
f 4/6/11 3/5/11 15/27/11 16/26/11
f 3/20/7 9/22/7 17/32/7 15/33/7
f 9/22/7 19/15/7 23/31/7 17/32/7
f 13/34/12 14/35/12 24/29/12 23/28/12
f 2/18/1 21/17/1 24/23/1 14/36/1
f 12/19/1 10/1/1 21/17/1 20/10/1
f 9/22/7 11/21/7 22/9/7 19/15/7
f 11/21/13 12/19/13 20/10/13 22/9/13
f 34/37/14 42/38/14 40/39/14 28/40/14
f 27/41/15 31/42/15 32/43/15 28/44/15
f 46/45/16 29/46/16 30/47/16 44/48/16
f 29/46/17 25/49/17 26/50/17 30/47/17
f 43/51/18 25/52/18 29/46/18 46/45/18
f 44/48/19 30/47/19 26/53/19 45/54/19
f 32/43/14 36/55/14 34/37/14 28/40/14
f 27/56/20 33/57/20 35/58/20 31/42/20
f 31/42/21 35/58/21 36/55/21 32/43/21
f 45/54/14 48/59/14 42/38/14 34/37/14
f 41/60/22 39/61/22 40/62/22 42/63/22
f 47/64/23 41/60/23 42/63/23 48/65/23
f 43/51/20 47/66/20 37/67/20 25/52/20
f 28/44/24 40/62/24 39/61/24 27/41/24
f 27/56/20 39/68/20 41/69/20 33/57/20
f 33/57/20 41/69/20 47/66/20 43/51/20
f 37/70/25 47/64/25 48/65/25 38/71/25
f 26/53/14 38/72/14 48/59/14 45/54/14
f 36/55/14 44/48/14 45/54/14 34/37/14
f 33/57/20 43/51/20 46/45/20 35/58/20
f 35/58/26 46/45/26 44/48/26 36/55/26
