# Blender v2.92.0 OBJ File: 'pl2.blend'
# www.blender.org
mtllib tail.mtl
o Cube.004
v 0.816363 -0.260767 2.383691
v 0.816363 -0.231557 2.383691
v 1.857697 -0.260767 3.305389
v 1.857697 -0.231557 3.305389
v 0.834051 -0.263627 3.493587
v 0.834051 -0.234418 3.493587
v 1.814972 -0.260767 3.387535
v 1.814972 -0.231557 3.387535
v 1.709641 -0.260767 3.088319
v 1.709641 -0.231557 3.088319
v 1.682693 -0.260767 3.600935
v 1.682693 -0.231557 3.600935
v 0.817323 -0.260767 2.172106
v 0.817323 -0.231557 2.172106
v 1.903825 -0.260767 3.230722
v 1.903825 -0.231557 3.230722
v 1.706065 -0.260767 3.022870
v 1.706065 -0.231557 3.022870
v 1.031017 -0.260767 2.529583
v 1.031143 -0.231557 3.524456
v 1.031017 -0.231557 2.529583
v 1.031143 -0.260767 3.524456
v 1.058593 -0.260767 2.387660
v 1.058593 -0.231557 2.387660
v 1.643467 -0.231557 3.596330
v 1.109658 -0.231557 3.533672
v 1.109658 -0.260767 3.533672
v 1.643467 -0.260767 3.596330
v 1.109658 -0.260767 3.455345
v 1.643467 -0.260767 3.455345
v 1.109658 -0.231557 3.455345
v 1.643467 -0.231557 3.455345
v -0.816363 -0.260767 2.383692
v -0.816363 -0.231557 2.383692
v -1.857697 -0.260767 3.305389
v -1.857697 -0.231557 3.305389
v -0.834050 -0.263627 3.493587
v -0.834050 -0.234418 3.493587
v -1.814972 -0.260767 3.387535
v -1.814972 -0.231557 3.387535
v -1.709641 -0.260767 3.088319
v -1.709641 -0.231557 3.088319
v -1.682692 -0.260767 3.600935
v -1.682692 -0.231557 3.600935
v -0.817322 -0.260767 2.172106
v -0.817322 -0.231557 2.172106
v -1.903825 -0.260767 3.230723
v -1.903825 -0.231557 3.230723
v -1.706065 -0.260767 3.022870
v -1.706065 -0.231557 3.022870
v -1.031017 -0.260767 2.529583
v -1.031142 -0.231557 3.524456
v -1.031017 -0.231557 2.529583
v -1.031142 -0.260767 3.524456
v -1.058592 -0.260767 2.387660
v -1.058592 -0.231557 2.387661
v -1.643467 -0.231557 3.596331
v -1.109658 -0.231557 3.533672
v -1.109658 -0.260767 3.533672
v -1.643467 -0.260767 3.596331
v -1.109658 -0.260767 3.455345
v -1.643467 -0.260767 3.455346
v -1.109658 -0.231557 3.455345
v -1.643467 -0.231557 3.455345
vt 0.875000 0.529557
vt 0.875000 0.500000
vt 0.875000 0.500000
vt 0.875000 0.529557
vt 0.375000 0.250000
vt 0.625000 0.250000
vt 0.625000 0.500000
vt 0.375000 0.500000
vt 0.375000 0.702045
vt 0.625000 0.702045
vt 0.625000 0.750000
vt 0.375000 0.750000
vt 0.625000 1.000000
vt 0.375000 1.000000
vt 0.125000 0.702045
vt 0.125000 0.750000
vt 0.875000 0.702045
vt 0.875000 0.750000
vt 0.625000 0.529557
vt 0.125000 0.500000
vt 0.375000 0.529557
vt 0.125000 0.529557
vt 0.875000 0.702045
vt 0.375000 0.220443
vt 0.625000 0.220443
vt 0.625000 0.250000
vt 0.375000 0.250000
vt 0.375000 0.047955
vt 0.625000 0.047955
vt 0.125000 0.750000
vt 0.125000 0.702045
vt 0.125000 0.529557
vt 0.125000 0.500000
vt 0.375000 0.000000
vt 0.625000 0.000000
vt 0.875000 0.750000
vt 0.625000 0.681259
vt 0.648610 0.681490
vt 0.689417 0.541658
vt 0.625000 0.539941
vt 0.375000 0.539941
vt 0.310583 0.541658
vt 0.351390 0.681490
vt 0.375000 0.681259
vt 0.000000 0.000000
vt 0.000000 0.000000
vt 0.000000 0.000000
vt 0.000000 0.000000
vt 0.000000 0.000000
vt 0.000000 0.000000
vt 0.000000 0.000000
vt 0.000000 0.000000
vt 0.875000 0.529557
vt 0.875000 0.529557
vt 0.875000 0.500000
vt 0.875000 0.500000
vt 0.375000 0.250000
vt 0.375000 0.500000
vt 0.625000 0.500000
vt 0.625000 0.250000
vt 0.375000 0.702045
vt 0.375000 0.750000
vt 0.625000 0.750000
vt 0.625000 0.702045
vt 0.375000 1.000000
vt 0.625000 1.000000
vt 0.125000 0.702045
vt 0.125000 0.750000
vt 0.875000 0.750000
vt 0.875000 0.702045
vt 0.625000 0.529557
vt 0.125000 0.500000
vt 0.125000 0.529557
vt 0.375000 0.529557
vt 0.875000 0.702045
vt 0.375000 0.220443
vt 0.375000 0.250000
vt 0.625000 0.250000
vt 0.625000 0.220443
vt 0.375000 0.047955
vt 0.625000 0.047955
vt 0.125000 0.702045
vt 0.125000 0.750000
vt 0.125000 0.500000
vt 0.125000 0.529557
vt 0.375000 0.000000
vt 0.625000 0.000000
vt 0.875000 0.750000
vt 0.625000 0.539941
vt 0.689417 0.541658
vt 0.648610 0.681490
vt 0.625000 0.681259
vt 0.375000 0.681259
vt 0.351390 0.681490
vt 0.310583 0.541658
vt 0.375000 0.539941
vt 0.000000 0.000000
vt 0.000000 0.000000
vt 0.000000 0.000000
vt 0.000000 0.000000
vt 0.000000 0.000000
vt 0.000000 0.000000
vt 0.000000 0.000000
vt 0.000000 0.000000
vn 0.0000 1.0000 0.0000
vn 0.8872 0.0000 0.4614
vn -0.1547 0.0000 0.9880
vn -0.9999 0.0000 0.0159
vn 0.0076 -1.0000 -0.0014
vn -0.0076 1.0000 0.0014
vn 0.0000 -1.0000 -0.0000
vn 0.8500 0.0000 0.5269
vn 0.7245 0.0000 -0.6893
vn 0.7003 0.0000 -0.7138
vn 0.8507 0.0000 0.5256
vn 0.6662 0.0000 -0.7457
vn -0.1166 0.0000 0.9932
vn -1.0000 0.0000 0.0000
vn -0.0000 0.0000 1.0000
vn -0.8872 0.0000 0.4614
vn 0.1547 0.0000 0.9880
vn 0.9999 0.0000 0.0159
vn -0.0076 -1.0000 -0.0014
vn 0.0076 1.0000 0.0014
vn -0.8500 0.0000 0.5269
vn -0.7245 0.0000 -0.6893
vn -0.7003 0.0000 -0.7138
vn -0.8507 0.0000 0.5256
vn -0.6662 0.0000 -0.7457
vn 0.1166 0.0000 0.9932
vn 1.0000 0.0000 0.0000
usemtl Material
s off
f 10/1/1 4/2/1 16/3/1 18/4/1
f 3/5/2 4/6/2 8/7/2 7/8/2
f 22/9/3 20/10/3 6/11/3 5/12/3
f 5/12/4 6/11/4 2/13/4 1/14/4
f 19/15/5 22/9/5 5/12/5 1/16/5
f 20/10/6 21/17/6 2/18/6 6/11/6
f 8/7/1 4/2/1 10/1/1 12/19/1
f 3/20/7 7/8/7 11/21/7 9/22/7
f 7/8/8 8/7/8 12/19/8 11/21/8
f 21/17/1 10/1/1 18/4/1 24/23/1
f 17/24/9 18/25/9 16/26/9 15/27/9
f 23/28/10 24/29/10 18/25/10 17/24/10
f 19/15/7 1/16/7 13/30/7 23/31/7
f 4/6/11 3/5/11 15/27/11 16/26/11
f 3/20/7 9/22/7 17/32/7 15/33/7
f 9/22/7 19/15/7 23/31/7 17/32/7
f 13/34/12 14/35/12 24/29/12 23/28/12
f 2/18/1 21/17/1 24/23/1 14/36/1
f 12/19/1 10/1/1 21/17/1 20/10/1 26/37/1 31/38/1 32/39/1 25/40/1
f 9/22/7 11/21/7 28/41/7 30/42/7 29/43/7 27/44/7 22/9/7 19/15/7
f 11/21/13 12/19/13 25/40/13 28/41/13
f 27/44/13 26/37/13 20/10/13 22/9/13
f 26/45/14 29/46/14 27/47/14
f 30/48/15 31/49/15 29/46/15
f 30/48/15 32/50/15 31/49/15
f 25/51/14 30/48/14 28/52/14
f 25/51/14 32/50/14 30/48/14
f 31/49/14 29/46/14 26/45/14
f 42/53/1 50/54/1 48/55/1 36/56/1
f 35/57/16 39/58/16 40/59/16 36/60/16
f 54/61/17 37/62/17 38/63/17 52/64/17
f 37/62/18 33/65/18 34/66/18 38/63/18
f 51/67/19 33/68/19 37/62/19 54/61/19
f 52/64/20 38/63/20 34/69/20 53/70/20
f 40/59/1 44/71/1 42/53/1 36/56/1
f 35/72/7 41/73/7 43/74/7 39/58/7
f 39/58/21 43/74/21 44/71/21 40/59/21
f 53/70/1 56/75/1 50/54/1 42/53/1
f 49/76/22 47/77/22 48/78/22 50/79/22
f 55/80/23 49/76/23 50/79/23 56/81/23
f 51/67/7 55/82/7 45/83/7 33/68/7
f 36/60/24 48/78/24 47/77/24 35/57/24
f 35/72/7 47/84/7 49/85/7 41/73/7
f 41/73/7 49/85/7 55/82/7 51/67/7
f 45/86/25 55/80/25 56/81/25 46/87/25
f 34/69/1 46/88/1 56/75/1 53/70/1
f 44/71/1 57/89/1 64/90/1 63/91/1 58/92/1 52/64/1 53/70/1 42/53/1
f 41/73/7 51/67/7 54/61/7 59/93/7 61/94/7 62/95/7 60/96/7 43/74/7
f 43/74/26 60/96/26 57/89/26 44/71/26
f 59/93/26 54/61/26 52/64/26 58/92/26
f 58/97/27 59/98/27 61/99/27
f 62/100/15 61/99/15 63/101/15
f 62/100/15 63/101/15 64/102/15
f 57/103/27 60/104/27 62/100/27
f 57/103/27 62/100/27 64/102/27
f 63/101/27 58/97/27 61/99/27
