# Blender v2.92.0 OBJ File: 'pl2.blend'
# www.blender.org
mtllib visor.mtl
o Plane.002_Plane
v -0.060938 0.174804 -2.409377
v 0.058984 0.174804 -2.409377
v -0.060938 0.278765 -2.404646
v -0.045085 0.294603 -2.403925
v -0.060541 0.282290 -2.404485
v -0.059368 0.285637 -2.404333
v -0.057479 0.288640 -2.404196
v -0.054969 0.291148 -2.404082
v -0.051963 0.293034 -2.403996
v -0.048612 0.294206 -2.403943
v 0.043131 0.294603 -2.403925
v 0.058984 0.278765 -2.404646
v 0.046658 0.294206 -2.403943
v 0.050009 0.293034 -2.403996
v 0.053015 0.291148 -2.404082
v 0.055525 0.288640 -2.404196
v 0.057414 0.285637 -2.404333
v 0.058587 0.282290 -2.404485
vt 0.999900 0.000100
vt 0.999900 0.867728
vt 0.996586 0.897139
vt 0.986811 0.925075
vt 0.971064 0.950135
vt 0.950136 0.971064
vt 0.925075 0.986810
vt 0.897139 0.996586
vt 0.867728 0.999900
vt 0.132272 0.999900
vt 0.102861 0.996586
vt 0.074925 0.986811
vt 0.049864 0.971064
vt 0.028936 0.950136
vt 0.013189 0.925075
vt 0.003414 0.897139
vt 0.000100 0.867728
vt 0.000100 0.000100
vn 0.0000 0.0455 -0.9990
usemtl Material.003
s off
f 1/1/1 3/2/1 5/3/1 6/4/1 7/5/1 8/6/1 9/7/1 10/8/1 4/9/1 11/10/1 13/11/1 14/12/1 15/13/1 16/14/1 17/15/1 18/16/1 12/17/1 2/18/1
