# Blender v2.92.0 OBJ File: 'pl2.blend'
# www.blender.org
mtllib wings.mtl
o Cube.003
v 0.691700 -0.210619 0.042659
v 0.691700 -0.140549 0.042659
v 3.250252 -0.193464 1.278706
v 3.250252 -0.157705 1.278706
v 0.832738 -0.291256 1.408695
v 0.832738 -0.221186 1.408695
v 3.250252 -0.193464 1.558655
v 3.250252 -0.157706 1.558655
v 2.930785 -0.210619 1.122715
v 2.930785 -0.140549 1.122715
v 2.888912 -0.210620 1.493792
v 2.888912 -0.140550 1.493792
v 0.714107 -0.210619 -0.187717
v 0.714107 -0.140549 -0.187717
v 3.250252 -0.193464 1.192473
v 3.250252 -0.157705 1.192473
v 2.906463 -0.210619 1.003094
v 2.906463 -0.140549 1.003094
v 0.443656 -0.210619 -0.111171
v 0.443656 -0.140549 -0.111171
v 0.423551 -0.210619 -0.367912
v 0.423551 -0.140549 -0.367912
v 1.178788 -0.210619 0.277614
v 1.280036 -0.140550 1.415223
v 1.178788 -0.140549 0.277614
v 1.280036 -0.210620 1.415223
v 1.191030 -0.210619 0.071330
v 1.191030 -0.140549 0.071331
v 1.444672 -0.210619 0.405866
v 1.416914 -0.140549 0.194023
v 1.516023 -0.210620 1.457371
v 1.444672 -0.140549 0.405866
v 1.516023 -0.140550 1.457371
v 1.416914 -0.210619 0.194023
v 2.721603 -0.210619 0.902684
v 2.721603 -0.140549 0.902684
v 2.718009 -0.140550 1.463268
v 2.718009 -0.210620 1.463268
v 2.738265 -0.210619 1.029850
v 2.738265 -0.140549 1.029850
v 2.718009 -0.140550 1.339496
v 2.718009 -0.210620 1.339496
v 1.516023 -0.210620 1.339496
v 1.516023 -0.140550 1.339496
v -0.691700 -0.210619 0.042659
v -0.691700 -0.140549 0.042659
v -3.250252 -0.193464 1.278707
v -3.250252 -0.157705 1.278707
v -0.832738 -0.291256 1.408695
v -0.832738 -0.221186 1.408695
v -3.250252 -0.193464 1.558656
v -3.250252 -0.157706 1.558656
v -2.930785 -0.210619 1.122715
v -2.930785 -0.140549 1.122715
v -2.888912 -0.210620 1.493793
v -2.888912 -0.140550 1.493793
v -0.714107 -0.210619 -0.187717
v -0.714107 -0.140549 -0.187717
v -3.250252 -0.193464 1.192474
v -3.250252 -0.157705 1.192474
v -2.906463 -0.210619 1.003095
v -2.906463 -0.140549 1.003095
v -0.443656 -0.210619 -0.111171
v -0.443656 -0.140549 -0.111171
v -0.423551 -0.210619 -0.367912
v -0.423551 -0.140549 -0.367912
v -1.178788 -0.210619 0.277614
v -1.280036 -0.140550 1.415223
v -1.178788 -0.140549 0.277614
v -1.280036 -0.210620 1.415223
v -1.191030 -0.210619 0.071331
v -1.191030 -0.140549 0.071331
v -1.444672 -0.210619 0.405867
v -1.416914 -0.140549 0.194023
v -1.516022 -0.210620 1.457371
v -1.444671 -0.140549 0.405867
v -1.516023 -0.140550 1.457371
v -1.416914 -0.210619 0.194023
v -2.721603 -0.210619 0.902685
v -2.721603 -0.140549 0.902685
v -2.718009 -0.140550 1.463269
v -2.718009 -0.210620 1.463269
v -2.738265 -0.210619 1.029851
v -2.738265 -0.140549 1.029851
v -2.718009 -0.140550 1.339496
v -2.718009 -0.210620 1.339496
v -1.516022 -0.210620 1.339496
v -1.516023 -0.140550 1.339496
vt 0.875000 0.529557
vt 0.875000 0.500000
vt 0.875000 0.500000
vt 0.875000 0.529557
vt 0.375000 0.250000
vt 0.625000 0.250000
vt 0.625000 0.500000
vt 0.375000 0.500000
vt 0.375000 0.702045
vt 0.625000 0.702045
vt 0.625000 0.750000
vt 0.375000 0.750000
vt 0.625000 1.000000
vt 0.375000 1.000000
vt 0.125000 0.702045
vt 0.125000 0.750000
vt 0.875000 0.702045
vt 0.875000 0.750000
vt 0.625000 0.529557
vt 0.125000 0.500000
vt 0.375000 0.529557
vt 0.125000 0.529557
vt 0.875000 0.675868
vt 0.875000 0.679332
vt 0.875000 0.702045
vt 0.375000 0.220443
vt 0.625000 0.220443
vt 0.625000 0.250000
vt 0.375000 0.250000
vt 0.375000 0.047955
vt 0.625000 0.047955
vt 0.625000 0.070668
vt 0.375000 0.070668
vt 0.125000 0.750000
vt 0.125000 0.702045
vt 0.125000 0.529557
vt 0.125000 0.500000
vt 0.875000 0.750000
vt 0.875000 0.750000
vt 0.875000 0.750000
vt 0.375000 1.000000
vt 0.625000 1.000000
vt 0.625000 1.000000
vt 0.375000 1.000000
vt 0.625000 0.000000
vt 0.375000 0.000000
vt 0.375000 0.000000
vt 0.625000 0.000000
vt 0.125000 0.750000
vt 0.125000 0.750000
vt 0.125000 0.548511
vt 0.125000 0.548145
vt 0.875000 0.548511
vt 0.659841 0.547967
vt 0.625000 0.547879
vt 0.375000 0.547879
vt 0.340158 0.547967
vt 0.125000 0.675868
vt 0.340158 0.676623
vt 0.375000 0.676745
vt 0.625000 0.676745
vt 0.875000 0.548145
vt 0.659842 0.676623
vt 0.125000 0.679332
vt 0.625000 0.201855
vt 0.375000 0.201855
vt 0.875000 0.529557
vt 0.875000 0.529557
vt 0.875000 0.500000
vt 0.875000 0.500000
vt 0.375000 0.250000
vt 0.375000 0.500000
vt 0.625000 0.500000
vt 0.625000 0.250000
vt 0.375000 0.702045
vt 0.375000 0.750000
vt 0.625000 0.750000
vt 0.625000 0.702045
vt 0.375000 1.000000
vt 0.625000 1.000000
vt 0.125000 0.702045
vt 0.125000 0.750000
vt 0.875000 0.750000
vt 0.875000 0.702045
vt 0.625000 0.529557
vt 0.125000 0.500000
vt 0.125000 0.529557
vt 0.375000 0.529557
vt 0.875000 0.702045
vt 0.875000 0.679332
vt 0.875000 0.675868
vt 0.375000 0.220443
vt 0.375000 0.250000
vt 0.625000 0.250000
vt 0.625000 0.220443
vt 0.375000 0.047955
vt 0.375000 0.070668
vt 0.625000 0.070668
vt 0.625000 0.047955
vt 0.125000 0.702045
vt 0.125000 0.750000
vt 0.125000 0.500000
vt 0.125000 0.529557
vt 0.875000 0.750000
vt 0.875000 0.750000
vt 0.875000 0.750000
vt 0.375000 1.000000
vt 0.375000 1.000000
vt 0.625000 1.000000
vt 0.625000 1.000000
vt 0.625000 0.000000
vt 0.625000 0.000000
vt 0.375000 0.000000
vt 0.375000 0.000000
vt 0.125000 0.750000
vt 0.125000 0.750000
vt 0.125000 0.548145
vt 0.125000 0.548511
vt 0.625000 0.547879
vt 0.659841 0.547967
vt 0.875000 0.548511
vt 0.340158 0.547967
vt 0.375000 0.547879
vt 0.125000 0.675868
vt 0.375000 0.676745
vt 0.340158 0.676623
vt 0.625000 0.676745
vt 0.875000 0.548145
vt 0.659842 0.676623
vt 0.125000 0.679332
vt 0.375000 0.201855
vt 0.625000 0.201855
vn 0.0550 0.9985 -0.0065
vn 1.0000 0.0000 0.0000
vn -0.0146 0.0000 0.9999
vn -0.9947 0.0000 0.1027
vn 0.0965 -0.9945 -0.0414
vn -0.0965 0.9945 0.0414
vn 0.0493 0.9988 0.0032
vn 0.0493 -0.9988 0.0032
vn -0.1767 0.0000 0.9843
vn 0.0000 1.0000 0.0000
vn 0.4825 0.0000 -0.8759
vn 0.4773 0.0000 -0.8787
vn 0.0000 -1.0000 0.0000
vn 0.0550 -0.9985 -0.0065
vn -0.9969 0.0000 0.0781
vn -0.5270 0.0000 0.8498
vn 0.5270 0.0000 -0.8498
vn -0.1758 0.0000 0.9844
vn 0.0000 0.0000 1.0000
vn -1.0000 0.0000 0.0000
vn -0.0550 0.9985 -0.0065
vn 0.0146 0.0000 0.9999
vn 0.9947 0.0000 0.1027
vn -0.0965 -0.9945 -0.0414
vn 0.0965 0.9945 0.0414
vn -0.0493 0.9988 0.0032
vn -0.0493 -0.9988 0.0032
vn 0.1767 0.0000 0.9843
vn -0.4825 0.0000 -0.8759
vn -0.4773 0.0000 -0.8787
vn -0.0550 -0.9985 -0.0065
vn 0.9969 0.0000 0.0781
vn 0.5270 0.0000 0.8498
vn -0.5270 0.0000 -0.8498
vn 0.1758 0.0000 0.9844
usemtl Material
s off
f 10/1/1 4/2/1 16/3/1 18/4/1
f 3/5/2 4/6/2 8/7/2 7/8/2
f 26/9/3 24/10/3 6/11/3 5/12/3
f 5/12/4 6/11/4 2/13/4 1/14/4
f 23/15/5 26/9/5 5/12/5 1/16/5
f 24/10/6 25/17/6 2/18/6 6/11/6
f 8/7/7 4/2/7 10/1/7 12/19/7
f 3/20/8 7/8/8 11/21/8 9/22/8
f 7/8/9 8/7/9 12/19/9 11/21/9
f 25/17/10 32/23/10 30/24/10 28/25/10
f 17/26/11 18/27/11 16/28/11 15/29/11
f 27/30/12 28/31/12 30/32/12 34/33/12
f 23/15/13 1/16/13 13/34/13 27/35/13
f 4/6/2 3/5/2 15/29/2 16/28/2
f 3/20/14 9/22/14 17/36/14 15/37/14
f 2/18/10 14/38/10 22/39/10 20/40/10
f 19/41/15 20/42/15 22/43/15 21/44/15
f 1/14/16 2/13/16 20/42/16 19/41/16
f 14/45/17 13/46/17 21/47/17 22/48/17
f 13/34/13 1/16/13 19/49/13 21/50/13
f 9/22/13 39/51/13 35/52/13 17/36/13
f 13/46/12 14/45/12 28/31/12 27/30/12
f 2/18/10 25/17/10 28/25/10 14/38/10
f 12/19/10 10/1/10 40/53/10 41/54/10 37/55/10
f 9/22/13 11/21/13 38/56/13 42/57/13 39/51/13
f 11/21/18 12/19/18 37/55/18 38/56/18
f 29/58/13 43/59/13 31/60/13 26/9/13 23/15/13
f 31/60/18 33/61/18 24/10/18 26/9/18
f 30/24/10 32/23/10 40/53/10 36/62/10
f 33/61/10 44/63/10 32/23/10 25/17/10 24/10/10
f 34/64/13 29/58/13 23/15/13 27/35/13
f 34/33/12 30/32/12 36/65/12 35/66/12
f 39/51/13 42/57/13 43/59/13 29/58/13
f 35/66/12 36/65/12 18/27/12 17/26/12
f 36/62/10 40/53/10 10/1/10 18/4/10
f 35/52/13 39/51/13 29/58/13 34/64/13
f 44/63/10 41/54/10 40/53/10 32/23/10
f 43/59/19 42/57/19 41/54/19 44/63/19
f 37/55/20 41/54/20 42/57/20 38/56/20
f 33/61/2 31/60/2 43/59/2 44/63/2
f 54/67/21 62/68/21 60/69/21 48/70/21
f 47/71/20 51/72/20 52/73/20 48/74/20
f 70/75/22 49/76/22 50/77/22 68/78/22
f 49/76/23 45/79/23 46/80/23 50/77/23
f 67/81/24 45/82/24 49/76/24 70/75/24
f 68/78/25 50/77/25 46/83/25 69/84/25
f 52/73/26 56/85/26 54/67/26 48/70/26
f 47/86/27 53/87/27 55/88/27 51/72/27
f 51/72/28 55/88/28 56/85/28 52/73/28
f 69/84/10 72/89/10 74/90/10 76/91/10
f 61/92/29 59/93/29 60/94/29 62/95/29
f 71/96/30 78/97/30 74/98/30 72/99/30
f 67/81/13 71/100/13 57/101/13 45/82/13
f 48/74/20 60/94/20 59/93/20 47/71/20
f 47/86/31 59/102/31 61/103/31 53/87/31
f 46/83/10 64/104/10 66/105/10 58/106/10
f 63/107/32 65/108/32 66/109/32 64/110/32
f 45/79/33 63/107/33 64/110/33 46/80/33
f 58/111/34 66/112/34 65/113/34 57/114/34
f 57/101/13 65/115/13 63/116/13 45/82/13
f 53/87/13 61/103/13 79/117/13 83/118/13
f 57/114/30 71/96/30 72/99/30 58/111/30
f 46/83/10 58/106/10 72/89/10 69/84/10
f 56/85/10 81/119/10 85/120/10 84/121/10 54/67/10
f 53/87/13 83/118/13 86/122/13 82/123/13 55/88/13
f 55/88/35 82/123/35 81/119/35 56/85/35
f 73/124/13 67/81/13 70/75/13 75/125/13 87/126/13
f 75/125/35 70/75/35 68/78/35 77/127/35
f 74/90/10 80/128/10 84/121/10 76/91/10
f 77/127/10 68/78/10 69/84/10 76/91/10 88/129/10
f 78/130/13 71/100/13 67/81/13 73/124/13
f 78/97/30 79/131/30 80/132/30 74/98/30
f 83/118/13 73/124/13 87/126/13 86/122/13
f 79/131/30 61/92/30 62/95/30 80/132/30
f 80/128/10 62/68/10 54/67/10 84/121/10
f 79/117/13 78/130/13 73/124/13 83/118/13
f 88/129/10 76/91/10 84/121/10 85/120/10
f 87/126/19 88/129/19 85/120/19 86/122/19
f 81/119/2 82/123/2 86/122/2 85/120/2
f 77/127/20 88/129/20 87/126/20 75/125/20
