# Blender v2.92.0 OBJ File: 'pl3.blend'
# www.blender.org
mtllib wings.mtl
o Cube.003
v 0.691700 -0.210619 0.042659
v 0.691700 -0.140549 0.042659
v 3.250252 -0.193464 1.278706
v 3.250252 -0.157705 1.278706
v 0.832738 -0.291256 1.408695
v 0.832738 -0.221186 1.408695
v 3.250252 -0.193464 1.558655
v 3.250252 -0.157706 1.558655
v 2.930785 -0.210619 1.122715
v 2.930785 -0.140549 1.122715
v 2.888912 -0.210620 1.493792
v 2.888912 -0.140550 1.493792
v 0.443656 -0.210619 -0.111171
v 0.443656 -0.140549 -0.111171
v 0.423551 -0.210619 -0.367912
v 0.423551 -0.140549 -0.367912
v 1.178788 -0.210619 0.277614
v 1.280036 -0.140550 1.415223
v 1.178788 -0.140549 0.277614
v 1.280036 -0.210620 1.415223
v 1.444672 -0.210619 0.405866
v 1.516023 -0.210620 1.457371
v 1.444672 -0.140549 0.405866
v 1.516023 -0.140550 1.457371
v 2.718009 -0.140550 1.463268
v 2.718009 -0.210620 1.463268
v 2.738265 -0.210619 1.029850
v 2.738265 -0.140549 1.029850
v 2.718009 -0.140550 1.339496
v 2.718009 -0.210620 1.339496
v 1.516023 -0.210620 1.339496
v 1.516023 -0.140550 1.339496
v 1.191030 -0.184116 0.002645
v 0.714107 -0.184116 -0.256403
v 0.714107 -0.167053 -0.256403
v 2.906463 -0.167053 0.934409
v 3.250252 -0.171231 1.123788
v 3.250252 -0.179938 1.123788
v 2.906463 -0.184116 0.934409
v 2.721603 -0.167053 0.833999
v 1.416914 -0.184116 0.125337
v 1.191030 -0.167053 0.002645
v 1.416914 -0.167053 0.125337
v 2.721603 -0.184116 0.833999
v 0.714107 -0.196887 -0.223306
v 0.710517 -0.210619 -0.150810
v 0.684830 -0.210619 -0.205874
v 0.714107 -0.176169 -0.187717
v 0.713055 -0.206597 -0.187331
v 0.710517 -0.140549 -0.150810
v 0.714107 -0.154282 -0.223306
v 0.714107 -0.174999 -0.187717
v 0.684830 -0.140549 -0.205874
v 0.713055 -0.144572 -0.187331
v 3.250252 -0.193464 1.230865
v 3.250252 -0.186039 1.154770
v 3.250252 -0.191289 1.192675
v 3.250252 -0.157705 1.230865
v 3.250252 -0.165130 1.154770
v 3.250252 -0.159880 1.192675
v 2.915288 -0.210619 1.046500
v 2.906463 -0.196970 0.967722
v 2.909048 -0.206622 1.005447
v 2.906463 -0.154198 0.967722
v 2.915288 -0.140549 1.046500
v 2.909048 -0.144547 1.005447
v 1.191030 -0.196892 0.035754
v 1.188797 -0.210619 0.108961
v 1.190376 -0.206599 0.071932
v 1.188797 -0.140549 0.108961
v 1.191030 -0.154277 0.035754
v 1.190376 -0.144570 0.071932
v 1.422388 -0.140549 0.235797
v 1.416914 -0.154263 0.158485
v 1.418518 -0.144566 0.195849
v 1.416914 -0.196906 0.158485
v 1.422388 -0.210619 0.235797
v 1.418518 -0.206603 0.195849
v 2.721603 -0.196932 0.867212
v 2.727066 -0.210619 0.944377
v 2.723203 -0.206610 0.904506
v 2.721603 -0.154237 0.867212
v 2.727066 -0.140549 0.944377
v 2.723203 -0.144558 0.904506
v -0.691700 -0.210619 0.042659
v -0.691700 -0.140549 0.042659
v -3.250252 -0.193464 1.278707
v -3.250252 -0.157705 1.278707
v -0.832738 -0.291256 1.408695
v -0.832738 -0.221186 1.408695
v -3.250252 -0.193464 1.558656
v -3.250252 -0.157706 1.558656
v -2.930785 -0.210619 1.122715
v -2.930785 -0.140549 1.122715
v -2.888912 -0.210620 1.493793
v -2.888912 -0.140550 1.493793
v -0.443656 -0.210619 -0.111171
v -0.443656 -0.140549 -0.111171
v -0.423551 -0.210619 -0.367912
v -0.423551 -0.140549 -0.367912
v -1.178788 -0.210619 0.277614
v -1.280036 -0.140550 1.415223
v -1.178788 -0.140549 0.277614
v -1.280036 -0.210620 1.415223
v -1.444672 -0.210619 0.405867
v -1.516022 -0.210620 1.457371
v -1.444671 -0.140549 0.405867
v -1.516023 -0.140550 1.457371
v -2.718009 -0.140550 1.463269
v -2.718009 -0.210620 1.463269
v -2.738265 -0.210619 1.029851
v -2.738265 -0.140549 1.029851
v -2.718009 -0.140550 1.339496
v -2.718009 -0.210620 1.339496
v -1.516022 -0.210620 1.339496
v -1.516023 -0.140550 1.339496
v -1.191030 -0.184116 0.002645
v -0.714107 -0.184116 -0.256403
v -0.714107 -0.167053 -0.256403
v -2.906463 -0.167053 0.934409
v -3.250252 -0.171231 1.123788
v -3.250252 -0.179938 1.123788
v -2.906463 -0.184116 0.934409
v -2.721603 -0.167053 0.833999
v -1.416914 -0.184116 0.125338
v -1.191030 -0.167053 0.002645
v -1.416914 -0.167053 0.125338
v -2.721603 -0.184116 0.833999
v -0.714107 -0.196887 -0.223306
v -0.710517 -0.210619 -0.150810
v -0.684830 -0.210619 -0.205874
v -0.714107 -0.176169 -0.187717
v -0.713055 -0.206597 -0.187331
v -0.710517 -0.140549 -0.150810
v -0.714107 -0.154282 -0.223306
v -0.714107 -0.174999 -0.187717
v -0.684830 -0.140549 -0.205874
v -0.713055 -0.144572 -0.187331
v -3.250252 -0.193464 1.230865
v -3.250252 -0.186039 1.154771
v -3.250252 -0.191289 1.192675
v -3.250252 -0.157705 1.230865
v -3.250252 -0.165130 1.154771
v -3.250252 -0.159880 1.192675
v -2.915288 -0.210619 1.046501
v -2.906463 -0.196970 0.967723
v -2.909048 -0.206622 1.005448
v -2.906463 -0.154198 0.967723
v -2.915288 -0.140549 1.046501
v -2.909048 -0.144547 1.005448
v -1.191030 -0.196892 0.035754
v -1.188797 -0.210619 0.108961
v -1.190376 -0.206599 0.071932
v -1.188797 -0.140549 0.108961
v -1.191030 -0.154277 0.035755
v -1.190376 -0.144570 0.071932
v -1.422388 -0.140549 0.235797
v -1.416914 -0.154263 0.158485
v -1.418518 -0.144566 0.195850
v -1.416914 -0.196906 0.158485
v -1.422388 -0.210619 0.235797
v -1.418518 -0.206603 0.195850
v -2.721603 -0.196932 0.867213
v -2.727066 -0.210619 0.944378
v -2.723203 -0.206610 0.904507
v -2.721603 -0.154237 0.867213
v -2.727066 -0.140549 0.944378
v -2.723203 -0.144558 0.904507
vt 0.125000 0.529557
vt 0.125000 0.548511
vt 0.125000 0.548265
vt 0.125000 0.529557
vt 0.375000 0.250000
vt 0.625000 0.250000
vt 0.625000 0.500000
vt 0.375000 0.500000
vt 0.375000 0.702045
vt 0.625000 0.702045
vt 0.625000 0.750000
vt 0.375000 0.750000
vt 0.625000 1.000000
vt 0.375000 1.000000
vt 0.125000 0.702045
vt 0.125000 0.750000
vt 0.875000 0.702045
vt 0.875000 0.750000
vt 0.875000 0.500000
vt 0.875000 0.529557
vt 0.625000 0.529557
vt 0.125000 0.500000
vt 0.375000 0.529557
vt 0.875000 0.702045
vt 0.875000 0.679332
vt 0.875000 0.679332
vt 0.875000 0.702045
vt 0.125000 0.679332
vt 0.125000 0.702045
vt 0.125000 0.702045
vt 0.125000 0.679332
vt 0.375000 0.000000
vt 0.497913 0.000000
vt 0.502087 0.000000
vt 0.625000 0.000000
vt 0.625000 0.000000
vt 0.375000 0.000000
vt 0.125000 0.500000
vt 0.125000 0.529557
vt 0.125000 0.529557
vt 0.125000 0.500000
vt 0.875000 0.529557
vt 0.875000 0.500000
vt 0.875000 0.500000
vt 0.875000 0.529557
vt 0.875000 0.750000
vt 0.875000 0.750000
vt 0.375000 1.000000
vt 0.625000 1.000000
vt 0.625000 1.000000
vt 0.375000 1.000000
vt 0.125000 0.750000
vt 0.125000 0.702045
vt 0.625000 0.000000
vt 0.375000 0.000000
vt 0.375000 0.000000
vt 0.625000 0.000000
vt 0.125000 0.548145
vt 0.125000 0.548145
vt 0.625000 0.250000
vt 0.375000 0.250000
vt 0.375000 0.250000
vt 0.625000 0.250000
vt 0.875000 0.750000
vt 0.875000 0.750000
vt 0.875000 0.750000
vt 0.875000 0.750000
vt 0.875000 0.548511
vt 0.659841 0.547967
vt 0.625000 0.547879
vt 0.375000 0.547879
vt 0.340158 0.547967
vt 0.125000 0.675868
vt 0.340158 0.676623
vt 0.375000 0.676745
vt 0.625000 0.676745
vt 0.875000 0.548145
vt 0.875000 0.548145
vt 0.659842 0.676623
vt 0.875000 0.675868
vt 0.875000 0.678649
vt 0.875000 0.702045
vt 0.125000 0.500000
vt 0.375000 0.220443
vt 0.625000 0.220443
vt 0.375000 0.047955
vt 0.625000 0.047955
vt 0.625000 0.070668
vt 0.375000 0.070668
vt 0.625000 0.201855
vt 0.375000 0.201855
vt 0.875000 0.500000
vt 0.875000 0.529557
vt 0.875000 0.548265
vt 0.375000 0.250000
vt 0.625000 0.250000
vt 0.125000 0.678649
vt 0.125000 0.750000
vt 0.125000 0.750000
vt 0.125000 0.750000
vt 0.125000 0.750000
vt 0.125000 0.750000
vt 0.125000 0.750000
vt 0.625000 0.000000
vt 0.610649 0.000000
vt 0.125000 0.702058
vt 0.875000 0.500000
vt 0.875000 0.529422
vt 0.390203 0.250000
vt 0.609797 0.250000
vt 0.125000 0.529422
vt 0.125000 0.500000
vt 0.875000 0.548044
vt 0.125000 0.679231
vt 0.875000 0.702058
vt 0.875000 0.750000
vt 0.875000 0.679231
vt 0.125000 0.548044
vt 0.125000 0.750000
vt 0.125000 0.529557
vt 0.125000 0.529557
vt 0.125000 0.548265
vt 0.125000 0.548511
vt 0.375000 0.250000
vt 0.375000 0.500000
vt 0.625000 0.500000
vt 0.625000 0.250000
vt 0.375000 0.702045
vt 0.375000 0.750000
vt 0.625000 0.750000
vt 0.625000 0.702045
vt 0.375000 1.000000
vt 0.625000 1.000000
vt 0.125000 0.702045
vt 0.125000 0.750000
vt 0.875000 0.750000
vt 0.875000 0.702045
vt 0.625000 0.529557
vt 0.875000 0.529557
vt 0.875000 0.500000
vt 0.125000 0.500000
vt 0.375000 0.529557
vt 0.875000 0.702045
vt 0.875000 0.702045
vt 0.875000 0.679332
vt 0.875000 0.679332
vt 0.125000 0.679332
vt 0.125000 0.679332
vt 0.125000 0.702045
vt 0.125000 0.702045
vt 0.375000 0.000000
vt 0.375000 0.000000
vt 0.625000 0.000000
vt 0.625000 0.000000
vt 0.502087 0.000000
vt 0.497913 0.000000
vt 0.125000 0.500000
vt 0.125000 0.500000
vt 0.125000 0.529557
vt 0.125000 0.529557
vt 0.875000 0.529557
vt 0.875000 0.529557
vt 0.875000 0.500000
vt 0.875000 0.500000
vt 0.875000 0.750000
vt 0.875000 0.750000
vt 0.375000 1.000000
vt 0.375000 1.000000
vt 0.625000 1.000000
vt 0.625000 1.000000
vt 0.125000 0.702045
vt 0.125000 0.750000
vt 0.625000 0.000000
vt 0.625000 0.000000
vt 0.375000 0.000000
vt 0.375000 0.000000
vt 0.125000 0.548145
vt 0.125000 0.548145
vt 0.625000 0.250000
vt 0.625000 0.250000
vt 0.375000 0.250000
vt 0.375000 0.250000
vt 0.875000 0.750000
vt 0.875000 0.750000
vt 0.875000 0.750000
vt 0.875000 0.750000
vt 0.625000 0.547879
vt 0.659841 0.547967
vt 0.875000 0.548511
vt 0.340158 0.547967
vt 0.375000 0.547879
vt 0.125000 0.675868
vt 0.375000 0.676745
vt 0.340158 0.676623
vt 0.625000 0.676745
vt 0.875000 0.548145
vt 0.875000 0.548145
vt 0.875000 0.675868
vt 0.659842 0.676623
vt 0.875000 0.702045
vt 0.875000 0.678649
vt 0.125000 0.500000
vt 0.375000 0.220443
vt 0.625000 0.220443
vt 0.375000 0.047955
vt 0.375000 0.070668
vt 0.625000 0.070668
vt 0.625000 0.047955
vt 0.375000 0.201855
vt 0.625000 0.201855
vt 0.875000 0.529557
vt 0.875000 0.500000
vt 0.875000 0.548265
vt 0.625000 0.250000
vt 0.375000 0.250000
vt 0.125000 0.678649
vt 0.125000 0.750000
vt 0.125000 0.750000
vt 0.125000 0.750000
vt 0.125000 0.750000
vt 0.125000 0.750000
vt 0.125000 0.750000
vt 0.625000 0.000000
vt 0.610649 0.000000
vt 0.125000 0.702058
vt 0.875000 0.529422
vt 0.875000 0.500000
vt 0.609797 0.250000
vt 0.390203 0.250000
vt 0.125000 0.500000
vt 0.125000 0.529422
vt 0.875000 0.548044
vt 0.125000 0.679231
vt 0.875000 0.750000
vt 0.875000 0.702058
vt 0.875000 0.679231
vt 0.125000 0.548044
vt 0.125000 0.750000
vn 0.0000 -1.0000 0.0000
vn 1.0000 0.0000 0.0000
vn -0.0146 0.0000 0.9999
vn -0.9947 0.0000 0.1027
vn 0.0965 -0.9945 -0.0414
vn -0.0965 0.9945 0.0414
vn 0.0493 0.9988 0.0032
vn 0.0493 -0.9988 0.0032
vn -0.1767 0.0000 0.9843
vn 0.1919 0.9156 -0.3533
vn 0.1919 -0.9156 -0.3533
vn -1.0000 0.0000 0.0000
vn 0.1732 -0.9447 -0.2785
vn 0.1732 0.9447 -0.2785
vn -0.9969 0.0000 0.0781
vn -0.5270 0.0000 0.8498
vn 0.5270 0.0000 -0.8498
vn 0.0000 1.0000 0.0000
vn -0.1758 0.0000 0.9844
vn 0.0560 -0.9984 -0.0070
vn 0.0000 0.0000 1.0000
vn 0.4825 0.0000 -0.8759
vn 0.4773 0.0000 -0.8787
vn 0.0560 0.9984 -0.0070
vn -0.2048 -0.7222 -0.6607
vn -0.2048 0.7222 -0.6607
vn 0.0572 -0.9928 -0.1054
vn 0.1381 -0.9572 -0.2543
vn 0.0942 0.9919 -0.0847
vn 0.1443 0.9699 -0.1960
vn 0.0942 -0.9919 -0.0847
vn 0.1443 -0.9699 -0.1960
vn 0.0572 0.9928 -0.1054
vn 0.1381 0.9572 -0.2543
vn 0.0146 0.0000 0.9999
vn 0.9947 0.0000 0.1027
vn -0.0965 -0.9945 -0.0414
vn 0.0965 0.9945 0.0414
vn -0.0493 0.9988 0.0032
vn -0.0493 -0.9988 0.0032
vn 0.1767 0.0000 0.9843
vn -0.1919 0.9156 -0.3533
vn -0.1919 -0.9156 -0.3533
vn -0.1732 -0.9447 -0.2785
vn -0.1732 0.9447 -0.2785
vn 0.9969 0.0000 0.0781
vn 0.5270 0.0000 0.8498
vn -0.5270 0.0000 -0.8498
vn 0.1758 0.0000 0.9844
vn -0.0560 -0.9984 -0.0070
vn -0.4825 0.0000 -0.8759
vn -0.4773 0.0000 -0.8787
vn -0.0560 0.9984 -0.0070
vn 0.2048 -0.7222 -0.6607
vn 0.2048 0.7222 -0.6607
vn -0.0572 -0.9928 -0.1054
vn -0.1381 -0.9572 -0.2543
vn -0.0942 0.9919 -0.0847
vn -0.1443 0.9699 -0.1960
vn -0.0942 -0.9919 -0.0847
vn -0.1443 -0.9699 -0.1960
vn -0.0572 0.9928 -0.1054
vn -0.1381 0.9572 -0.2543
usemtl Material
s off
f 9/1/1 27/2/1 80/3/1 61/4/1
f 3/5/2 4/6/2 8/7/2 7/8/2
f 20/9/3 18/10/3 6/11/3 5/12/3
f 5/12/4 6/11/4 2/13/4 1/14/4
f 17/15/5 20/9/5 5/12/5 1/16/5
f 18/10/6 19/17/6 2/18/6 6/11/6
f 8/7/7 4/19/7 10/20/7 12/21/7
f 3/22/8 7/8/8 11/23/8 9/1/8
f 7/8/9 8/7/9 12/21/9 11/23/9
f 71/24/10 74/25/10 43/26/10 42/27/10
f 76/28/11 67/29/11 33/30/11 41/31/11
f 45/32/12 48/33/12 52/34/12 51/35/12 35/36/12 34/37/12
f 56/38/13 62/39/13 39/40/13 38/41/13
f 64/42/14 59/43/14 37/44/14 36/45/14
f 51/46/10 71/24/10 42/27/10 35/47/10
f 13/48/15 14/49/15 16/50/15 15/51/15
f 1/14/16 2/13/16 14/49/16 13/48/16
f 17/15/1 1/16/1 46/52/1 68/53/1
f 53/54/17 52/34/17 48/33/17 47/55/17 15/56/17 16/57/17
f 62/39/11 79/58/11 44/59/11 39/40/11
f 59/60/2 56/61/2 38/62/2 37/63/2
f 2/18/18 50/64/18 53/65/18 16/66/18 14/67/18
f 12/21/18 10/20/18 28/68/18 29/69/18 25/70/18
f 9/1/1 11/23/1 26/71/1 30/72/1 27/2/1
f 11/23/19 12/21/19 25/70/19 26/71/19
f 21/73/1 31/74/1 22/75/1 20/9/1 17/15/1
f 22/75/19 24/76/19 18/10/19 20/9/19
f 74/25/10 82/77/10 40/78/10 43/26/10
f 24/76/18 32/79/18 23/80/18 19/17/18 18/10/18
f 19/17/18 23/80/18 73/81/18 70/82/18
f 2/18/18 19/17/18 70/82/18 50/64/18
f 27/2/1 30/72/1 31/74/1 21/73/1
f 3/22/20 9/1/20 61/4/20 55/83/20
f 82/77/10 64/42/10 36/45/10 40/78/10
f 79/58/11 76/28/11 41/31/11 44/59/11
f 32/79/18 29/69/18 28/68/18 23/80/18
f 31/74/21 30/72/21 29/69/21 32/79/21
f 25/70/12 29/69/12 30/72/12 26/71/12
f 24/76/2 22/75/2 31/74/2 32/79/2
f 39/84/22 36/85/22 37/63/22 38/62/22
f 33/86/23 42/87/23 43/88/23 41/89/23
f 34/37/23 35/36/23 42/87/23 33/86/23
f 41/89/23 43/88/23 40/90/23 44/91/23
f 44/91/23 40/90/23 36/85/23 39/84/23
f 10/20/24 4/19/24 58/92/24 65/93/24
f 83/94/18 28/68/18 10/20/18 65/93/18
f 73/81/18 23/80/18 28/68/18 83/94/18
f 4/6/2 3/5/2 55/95/2 58/96/2
f 80/3/1 27/2/1 21/73/1 77/97/1
f 47/98/1 46/52/1 1/16/1 13/99/1 15/100/1
f 77/97/1 21/73/1 17/15/1 68/53/1
f 45/101/25 49/102/25 46/52/25 47/98/25 48/103/25
f 50/104/26 54/105/26 51/35/26 52/34/26 53/54/26
f 68/53/27 46/52/27 49/102/27 69/106/27
f 69/106/28 49/102/28 45/101/28 67/29/28
f 65/93/29 58/92/29 60/107/29 66/108/29
f 66/108/30 60/107/30 59/43/30 64/42/30
f 58/96/2 55/95/2 57/109/2 60/110/2
f 60/110/2 57/109/2 56/61/2 59/60/2
f 55/83/31 61/4/31 63/111/31 57/112/31
f 57/112/32 63/111/32 62/39/32 56/38/32
f 83/94/33 65/93/33 66/108/33 84/113/33
f 84/113/34 66/108/34 64/42/34 82/77/34
f 77/97/27 68/53/27 69/106/27 78/114/27
f 78/114/28 69/106/28 67/29/28 76/28/28
f 50/64/33 70/82/33 72/115/33 54/116/33
f 54/116/34 72/115/34 71/24/34 51/46/34
f 70/82/33 73/81/33 75/117/33 72/115/33
f 72/115/34 75/117/34 74/25/34 71/24/34
f 80/3/27 77/97/27 78/114/27 81/118/27
f 81/118/28 78/114/28 76/28/28 79/58/28
f 61/4/27 80/3/27 81/118/27 63/111/27
f 63/111/28 81/118/28 79/58/28 62/39/28
f 73/81/33 83/94/33 84/113/33 75/117/33
f 75/117/34 84/113/34 82/77/34 74/25/34
f 67/29/11 45/101/11 34/119/11 33/30/11
f 93/120/1 145/121/1 164/122/1 111/123/1
f 87/124/12 91/125/12 92/126/12 88/127/12
f 104/128/35 89/129/35 90/130/35 102/131/35
f 89/129/36 85/132/36 86/133/36 90/130/36
f 101/134/37 85/135/37 89/129/37 104/128/37
f 102/131/38 90/130/38 86/136/38 103/137/38
f 92/126/39 96/138/39 94/139/39 88/140/39
f 87/141/40 93/120/40 95/142/40 91/125/40
f 91/125/41 95/142/41 96/138/41 92/126/41
f 155/143/42 126/144/42 127/145/42 158/146/42
f 160/147/43 125/148/43 117/149/43 151/150/43
f 129/151/2 118/152/2 119/153/2 135/154/2 136/155/2 132/156/2
f 140/157/44 122/158/44 123/159/44 146/160/44
f 148/161/45 120/162/45 121/163/45 143/164/45
f 135/165/42 119/166/42 126/144/42 155/143/42
f 97/167/46 99/168/46 100/169/46 98/170/46
f 85/132/47 97/167/47 98/170/47 86/133/47
f 101/134/1 152/171/1 130/172/1 85/135/1
f 137/173/48 100/174/48 99/175/48 131/176/48 132/156/48 136/155/48
f 146/160/43 123/159/43 128/177/43 163/178/43
f 143/179/12 121/180/12 122/181/12 140/182/12
f 86/136/18 98/183/18 100/184/18 137/185/18 134/186/18
f 96/138/18 109/187/18 113/188/18 112/189/18 94/139/18
f 93/120/1 111/123/1 114/190/1 110/191/1 95/142/1
f 95/142/49 110/191/49 109/187/49 96/138/49
f 105/192/1 101/134/1 104/128/1 106/193/1 115/194/1
f 106/193/49 104/128/49 102/131/49 108/195/49
f 158/146/42 127/145/42 124/196/42 166/197/42
f 108/195/18 102/131/18 103/137/18 107/198/18 116/199/18
f 103/137/18 154/200/18 157/201/18 107/198/18
f 86/136/18 134/186/18 154/200/18 103/137/18
f 111/123/1 105/192/1 115/194/1 114/190/1
f 87/141/50 139/202/50 145/121/50 93/120/50
f 166/197/42 124/196/42 120/162/42 148/161/42
f 163/178/43 128/177/43 125/148/43 160/147/43
f 116/199/18 107/198/18 112/189/18 113/188/18
f 115/194/21 116/199/21 113/188/21 114/190/21
f 109/187/2 110/191/2 114/190/2 113/188/2
f 108/195/12 116/199/12 115/194/12 106/193/12
f 123/203/51 122/181/51 121/180/51 120/204/51
f 117/205/52 125/206/52 127/207/52 126/208/52
f 118/152/52 117/205/52 126/208/52 119/153/52
f 125/206/52 128/209/52 124/210/52 127/207/52
f 128/209/52 123/203/52 120/204/52 124/210/52
f 94/139/53 149/211/53 142/212/53 88/140/53
f 167/213/18 149/211/18 94/139/18 112/189/18
f 157/201/18 167/213/18 112/189/18 107/198/18
f 88/127/12 142/214/12 139/215/12 87/124/12
f 164/122/1 161/216/1 105/192/1 111/123/1
f 131/217/1 99/218/1 97/219/1 85/135/1 130/172/1
f 161/216/1 152/171/1 101/134/1 105/192/1
f 129/220/54 132/221/54 131/217/54 130/172/54 133/222/54
f 134/223/55 137/173/55 136/155/55 135/154/55 138/224/55
f 152/171/56 153/225/56 133/222/56 130/172/56
f 153/225/57 151/150/57 129/220/57 133/222/57
f 149/211/58 150/226/58 144/227/58 142/212/58
f 150/226/59 148/161/59 143/164/59 144/227/59
f 142/214/12 144/228/12 141/229/12 139/215/12
f 144/228/12 143/179/12 140/182/12 141/229/12
f 139/202/60 141/230/60 147/231/60 145/121/60
f 141/230/61 140/157/61 146/160/61 147/231/61
f 167/213/62 168/232/62 150/226/62 149/211/62
f 168/232/63 166/197/63 148/161/63 150/226/63
f 161/216/56 162/233/56 153/225/56 152/171/56
f 162/233/57 160/147/57 151/150/57 153/225/57
f 134/186/62 138/234/62 156/235/62 154/200/62
f 138/234/63 135/165/63 155/143/63 156/235/63
f 154/200/62 156/235/62 159/236/62 157/201/62
f 156/235/63 155/143/63 158/146/63 159/236/63
f 164/122/56 165/237/56 162/233/56 161/216/56
f 165/237/57 163/178/57 160/147/57 162/233/57
f 145/121/56 147/231/56 165/237/56 164/122/56
f 147/231/57 146/160/57 163/178/57 165/237/57
f 157/201/62 159/236/62 168/232/62 167/213/62
f 159/236/63 158/146/63 166/197/63 168/232/63
f 151/150/43 117/149/43 118/238/43 129/220/43
