# Blender v2.92.0 OBJ File: 'pl3.blend'
# www.blender.org
mtllib 1.mtl
o Text.001
v 0.002383 0.007673 -0.003529
v 0.003623 0.007673 -0.003529
v 0.003623 0.000135 0.000268
v 0.001517 0.000135 0.000268
v 0.001517 0.004176 -0.001768
v 0.001515 0.004499 -0.001930
v 0.001510 0.004765 -0.002064
v 0.001500 0.004975 -0.002170
v 0.001487 0.005130 -0.002248
v 0.001470 0.005229 -0.002298
v 0.001445 0.005296 -0.002332
v 0.001406 0.005356 -0.002362
v 0.001355 0.005410 -0.002389
v 0.001290 0.005457 -0.002413
v 0.001212 0.005496 -0.002433
v 0.001107 0.005529 -0.002449
v 0.000960 0.005555 -0.002462
v 0.000772 0.005573 -0.002471
v 0.000542 0.005584 -0.002477
v 0.000271 0.005587 -0.002479
v 0.000063 0.005587 -0.002479
v 0.000063 0.006467 -0.002922
v 0.000644 0.006609 -0.002993
v 0.001167 0.006801 -0.003090
v 0.001631 0.007042 -0.003211
v 0.002036 0.007333 -0.003358
v 0.002383 0.007403 -0.004065
v 0.003623 0.007403 -0.004065
v 0.003623 -0.000135 -0.000268
v 0.001517 -0.000135 -0.000268
v 0.001517 0.003907 -0.002304
v 0.001515 0.004229 -0.002466
v 0.001510 0.004495 -0.002600
v 0.001500 0.004705 -0.002706
v 0.001487 0.004860 -0.002784
v 0.001470 0.004959 -0.002834
v 0.001445 0.005026 -0.002868
v 0.001406 0.005087 -0.002898
v 0.001355 0.005140 -0.002925
v 0.001290 0.005187 -0.002949
v 0.001212 0.005226 -0.002969
v 0.001107 0.005259 -0.002985
v 0.000960 0.005285 -0.002998
v 0.000772 0.005303 -0.003007
v 0.000542 0.005314 -0.003013
v 0.000271 0.005317 -0.003014
v 0.000063 0.005317 -0.003014
v 0.000063 0.006197 -0.003458
v 0.000644 0.006339 -0.003529
v 0.001167 0.006531 -0.003626
v 0.001631 0.006772 -0.003747
v 0.002036 0.007063 -0.003894
v 0.002383 0.007403 -0.004065
v 0.002383 0.007673 -0.003529
v 0.003623 0.007403 -0.004065
v 0.003623 0.007673 -0.003529
v 0.003623 -0.000135 -0.000268
v 0.003623 0.000135 0.000268
v 0.001517 -0.000135 -0.000268
v 0.001517 0.000135 0.000268
v 0.001517 0.003907 -0.002304
v 0.001517 0.004176 -0.001768
v 0.001515 0.004229 -0.002466
v 0.001515 0.004499 -0.001930
v 0.001510 0.004495 -0.002600
v 0.001510 0.004765 -0.002064
v 0.001500 0.004705 -0.002706
v 0.001500 0.004975 -0.002170
v 0.001487 0.004860 -0.002784
v 0.001487 0.005130 -0.002248
v 0.001470 0.004959 -0.002834
v 0.001470 0.005229 -0.002298
v 0.001445 0.005026 -0.002868
v 0.001445 0.005296 -0.002332
v 0.001406 0.005087 -0.002898
v 0.001406 0.005356 -0.002362
v 0.001355 0.005140 -0.002925
v 0.001355 0.005410 -0.002389
v 0.001290 0.005187 -0.002949
v 0.001290 0.005457 -0.002413
v 0.001212 0.005226 -0.002969
v 0.001212 0.005496 -0.002433
v 0.001107 0.005259 -0.002985
v 0.001107 0.005529 -0.002449
v 0.000960 0.005285 -0.002998
v 0.000960 0.005555 -0.002462
v 0.000772 0.005303 -0.003007
v 0.000772 0.005573 -0.002471
v 0.000542 0.005314 -0.003013
v 0.000542 0.005584 -0.002477
v 0.000271 0.005317 -0.003014
v 0.000271 0.005587 -0.002479
v 0.000063 0.005317 -0.003014
v 0.000063 0.005587 -0.002479
v 0.000063 0.006197 -0.003458
v 0.000063 0.006467 -0.002922
v 0.000644 0.006339 -0.003529
v 0.000644 0.006609 -0.002993
v 0.001167 0.006531 -0.003626
v 0.001167 0.006801 -0.003090
v 0.001631 0.006772 -0.003747
v 0.001631 0.007042 -0.003211
v 0.002036 0.007063 -0.003894
v 0.002036 0.007333 -0.003358
vt 1.000000 0.000000
vt 0.040000 0.000000
vt 0.000000 0.000000
vt 0.080000 0.000000
vt 0.960000 0.000000
vt 0.920000 0.000000
vt 0.880000 0.000000
vt 0.400000 0.000000
vt 0.840000 0.000000
vt 0.480000 0.000000
vt 0.440000 0.000000
vt 0.800000 0.000000
vt 0.760000 0.000000
vt 0.720000 0.000000
vt 0.680000 0.000000
vt 0.640000 0.000000
vt 0.600000 0.000000
vt 0.560000 0.000000
vt 0.520000 0.000000
vt 0.360000 0.000000
vt 0.320000 0.000000
vt 0.280000 0.000000
vt 0.240000 0.000000
vt 0.200000 0.000000
vt 0.160000 0.000000
vt 0.120000 0.000000
vt 0.040000 0.000000
vt 1.000000 0.000000
vt 0.000000 0.000000
vt 0.080000 0.000000
vt 0.960000 0.000000
vt 0.920000 0.000000
vt 0.400000 0.000000
vt 0.880000 0.000000
vt 0.480000 0.000000
vt 0.840000 0.000000
vt 0.440000 0.000000
vt 0.760000 0.000000
vt 0.800000 0.000000
vt 0.720000 0.000000
vt 0.680000 0.000000
vt 0.640000 0.000000
vt 0.600000 0.000000
vt 0.560000 0.000000
vt 0.520000 0.000000
vt 0.360000 0.000000
vt 0.320000 0.000000
vt 0.280000 0.000000
vt 0.240000 0.000000
vt 0.200000 0.000000
vt 0.160000 0.000000
vt 0.120000 0.000000
vt 0.000000 1.000000
vt 0.038462 1.000000
vt 0.038462 0.000000
vt 0.000000 0.000000
vt 0.076923 1.000000
vt 0.076923 0.000000
vt 0.115385 1.000000
vt 0.115385 0.000000
vt 0.153846 1.000000
vt 0.153846 0.000000
vt 0.192308 1.000000
vt 0.192308 0.000000
vt 0.230769 1.000000
vt 0.230769 0.000000
vt 0.269231 1.000000
vt 0.269231 0.000000
vt 0.307692 1.000000
vt 0.307692 0.000000
vt 0.346154 1.000000
vt 0.346154 0.000000
vt 0.384615 1.000000
vt 0.384615 0.000000
vt 0.423077 1.000000
vt 0.423077 0.000000
vt 0.461538 1.000000
vt 0.461538 0.000000
vt 0.500000 1.000000
vt 0.500000 0.000000
vt 0.538462 1.000000
vt 0.538462 0.000000
vt 0.576923 1.000000
vt 0.576923 0.000000
vt 0.615385 1.000000
vt 0.615385 0.000000
vt 0.653846 1.000000
vt 0.653846 0.000000
vt 0.692308 1.000000
vt 0.692308 0.000000
vt 0.730769 1.000000
vt 0.730769 0.000000
vt 0.769231 1.000000
vt 0.769231 0.000000
vt 0.807692 1.000000
vt 0.807692 0.000000
vt 0.846154 1.000000
vt 0.846154 0.000000
vt 0.884615 1.000000
vt 0.884615 0.000000
vt 0.923077 1.000000
vt 0.923077 0.000000
vt 0.961538 1.000000
vt 0.961538 0.000000
vt 1.000000 1.000000
vt 1.000000 0.000000
vn 0.0000 0.4499 0.8931
vn -0.0002 0.4499 0.8931
vn -0.0001 0.4499 0.8931
vn 0.0000 -0.4499 -0.8931
vn 0.0004 -0.4499 -0.8931
vn 0.0001 -0.4499 -0.8931
vn -0.4045 0.8167 -0.4114
vn 0.7071 0.6315 -0.3181
vn 0.7071 -0.6315 0.3181
vn -0.7071 -0.6315 0.3181
vn -1.0000 -0.0023 0.0012
vn -0.9999 -0.0107 0.0054
vn -0.9995 -0.0262 0.0132
vn -0.9983 -0.0515 0.0260
vn -0.9935 -0.1013 0.0510
vn -0.9718 -0.2105 0.1060
vn -0.9128 -0.3647 0.1837
vn -0.8174 -0.5145 0.2591
vn -0.6957 -0.6415 0.3231
vn -0.5639 -0.7375 0.3715
vn -0.4142 -0.8129 0.4095
vn -0.2602 -0.8623 0.4344
vn -0.1491 -0.8831 0.4448
vn -0.0802 -0.8902 0.4484
vn -0.0340 -0.8925 0.4496
vn -0.0075 -0.8931 0.4498
vn -0.7949 0.5418 -0.2729
vn -0.3224 0.8454 -0.4258
vn -0.4424 0.8009 -0.4034
vn -0.5662 0.7361 -0.3708
vn -0.6852 0.6505 -0.3276
usemtl Material.005
s off
f 26/1/1 2/2/1 1/3/1
f 26/1/1 3/4/1 2/2/1
f 25/5/1 3/4/1 26/1/1
f 24/6/1 3/4/1 25/5/1
f 23/7/1 11/8/1 24/6/1
f 11/8/1 3/4/1 24/6/1
f 22/9/1 13/10/1 23/7/1
f 13/10/1 12/11/1 23/7/1
f 12/11/2 11/8/2 23/7/2
f 21/12/1 20/13/1 22/9/1
f 20/13/1 19/14/1 22/9/1
f 19/14/1 18/15/1 22/9/1
f 18/15/1 17/16/1 22/9/1
f 17/16/1 16/17/1 22/9/1
f 16/17/1 15/18/1 22/9/1
f 15/18/1 14/19/1 22/9/1
f 14/19/1 13/10/1 22/9/1
f 10/20/3 3/4/3 11/8/3
f 9/21/1 3/4/1 10/20/1
f 8/22/1 3/4/1 9/21/1
f 7/23/1 3/4/1 8/22/1
f 6/24/1 3/4/1 7/23/1
f 5/25/1 3/4/1 6/24/1
f 4/26/1 3/4/1 5/25/1
f 28/27/4 52/28/4 27/29/4
f 29/30/4 52/28/4 28/27/4
f 29/30/4 51/31/4 52/28/4
f 29/30/4 50/32/4 51/31/4
f 37/33/4 49/34/4 50/32/4
f 29/30/4 37/33/4 50/32/4
f 39/35/4 48/36/4 49/34/4
f 38/37/4 39/35/4 49/34/4
f 37/33/5 38/37/5 49/34/5
f 46/38/4 47/39/4 48/36/4
f 45/40/4 46/38/4 48/36/4
f 44/41/4 45/40/4 48/36/4
f 43/42/4 44/41/4 48/36/4
f 42/43/4 43/42/4 48/36/4
f 41/44/4 42/43/4 48/36/4
f 40/45/4 41/44/4 48/36/4
f 39/35/4 40/45/4 48/36/4
f 29/30/6 36/46/6 37/33/6
f 29/30/4 35/47/4 36/46/4
f 29/30/4 34/48/4 35/47/4
f 29/30/4 33/49/4 34/48/4
f 29/30/4 32/50/4 33/49/4
f 29/30/4 31/51/4 32/50/4
f 29/30/4 30/52/4 31/51/4
s 1
f 54/53/7 56/54/8 55/55/8 53/56/7
f 56/54/8 58/57/9 57/58/9 55/55/8
f 58/57/9 60/59/10 59/60/10 57/58/9
f 60/59/10 62/61/11 61/62/11 59/60/10
f 62/61/11 64/63/12 63/64/12 61/62/11
f 64/63/12 66/65/13 65/66/13 63/64/12
f 66/65/13 68/67/14 67/68/14 65/66/13
f 68/67/14 70/69/15 69/70/15 67/68/14
f 70/69/15 72/71/16 71/72/16 69/70/15
f 72/71/16 74/73/17 73/74/17 71/72/16
f 74/73/17 76/75/18 75/76/18 73/74/17
f 76/75/18 78/77/19 77/78/19 75/76/18
f 78/77/19 80/79/20 79/80/20 77/78/19
f 80/79/20 82/81/21 81/82/21 79/80/20
f 82/81/21 84/83/22 83/84/22 81/82/21
f 84/83/22 86/85/23 85/86/23 83/84/22
f 86/85/23 88/87/24 87/88/24 85/86/23
f 88/87/24 90/89/25 89/90/25 87/88/24
f 90/89/25 92/91/26 91/92/26 89/90/25
f 92/91/26 94/93/10 93/94/10 91/92/26
f 94/93/10 96/95/27 95/96/27 93/94/10
f 96/95/27 98/97/28 97/98/28 95/96/27
f 98/97/28 100/99/29 99/100/29 97/98/28
f 100/99/29 102/101/30 101/102/30 99/100/29
f 102/101/30 104/103/31 103/104/31 101/102/30
f 104/103/31 54/105/7 53/106/7 103/104/31
