# Blender v2.92.0 OBJ File: 'pl3.blend'
# www.blender.org
mtllib 7.mtl
o Text.001
v 0.000063 0.007673 -0.003529
v 0.004087 0.007673 -0.003529
v 0.004087 0.006030 -0.002701
v 0.002742 0.000135 0.000268
v 0.000646 0.000135 0.000268
v 0.002143 0.006318 -0.002847
v 0.000063 0.006318 -0.002847
v 0.000063 0.007403 -0.004065
v 0.004087 0.007403 -0.004065
v 0.004087 0.005760 -0.003237
v 0.002742 -0.000135 -0.000268
v 0.000646 -0.000135 -0.000268
v 0.002143 0.006048 -0.003383
v 0.000063 0.006048 -0.003383
v 0.000063 0.007403 -0.004065
v 0.000063 0.007673 -0.003529
v 0.004087 0.007403 -0.004065
v 0.004087 0.007673 -0.003529
v 0.004087 0.005760 -0.003237
v 0.004087 0.006030 -0.002701
v 0.002742 -0.000135 -0.000268
v 0.002742 0.000135 0.000268
v 0.000646 -0.000135 -0.000268
v 0.000646 0.000135 0.000268
v 0.002143 0.006048 -0.003383
v 0.002143 0.006318 -0.002847
v 0.000063 0.006048 -0.003383
v 0.000063 0.006318 -0.002847
vt 1.000000 0.000000
vt 0.166667 0.000000
vt 0.000000 0.000000
vt 0.833333 0.000000
vt 0.333333 0.000000
vt 0.666667 0.000000
vt 0.500000 0.000000
vt 0.166667 0.000000
vt 1.000000 0.000000
vt 0.000000 0.000000
vt 0.833333 0.000000
vt 0.333333 0.000000
vt 0.666667 0.000000
vt 0.500000 0.000000
vt 0.000000 1.000000
vt 0.142857 1.000000
vt 0.142857 0.000000
vt 0.000000 0.000000
vt 0.285714 1.000000
vt 0.285714 0.000000
vt 0.428571 1.000000
vt 0.428571 0.000000
vt 0.571429 1.000000
vt 0.571429 0.000000
vt 0.714286 1.000000
vt 0.714286 0.000000
vt 0.857143 1.000000
vt 0.857143 0.000000
vt 1.000000 1.000000
vt 1.000000 0.000000
vn 0.0000 0.4499 0.8931
vn 0.0000 -0.4499 -0.8931
vn -0.7071 0.6315 -0.3181
vn 0.7071 0.6315 -0.3181
vn 0.9949 -0.0896 0.0451
vn 0.6326 -0.6917 0.3484
vn -0.7782 -0.5608 0.2825
vn -0.7071 -0.6315 0.3181
usemtl Material.005
s off
f 7/1/1 2/2/1 1/3/1
f 7/1/1 6/4/1 2/2/1
f 6/4/1 3/5/1 2/2/1
f 5/6/1 3/5/1 6/4/1
f 5/6/1 4/7/1 3/5/1
f 9/8/2 14/9/2 8/10/2
f 13/11/2 14/9/2 9/8/2
f 10/12/2 13/11/2 9/8/2
f 10/12/2 12/13/2 13/11/2
f 11/14/2 12/13/2 10/12/2
s 1
f 16/15/3 18/16/4 17/17/4 15/18/3
f 18/16/4 20/19/5 19/20/5 17/17/4
f 20/19/5 22/21/6 21/22/6 19/20/5
f 22/21/6 24/23/7 23/24/7 21/22/6
f 24/23/7 26/25/7 25/26/7 23/24/7
f 26/25/7 28/27/8 27/28/8 25/26/7
f 28/27/8 16/29/3 15/30/3 27/28/8
