# Blender v2.92.0 OBJ File: 'pl3.blend'
# www.blender.org
mtllib minus.mtl
o Text.001
v 0.000188 0.003874 -0.001615
v 0.002956 0.003874 -0.001615
v 0.002956 0.002575 -0.000961
v 0.000188 0.002575 -0.000961
v 0.000188 0.003604 -0.002151
v 0.002956 0.003604 -0.002151
v 0.002956 0.002305 -0.001497
v 0.000188 0.002305 -0.001497
v 0.000188 0.003604 -0.002151
v 0.000188 0.003874 -0.001615
v 0.002956 0.003604 -0.002151
v 0.002956 0.003874 -0.001615
v 0.002956 0.002305 -0.001497
v 0.002956 0.002575 -0.000961
v 0.000188 0.002305 -0.001497
v 0.000188 0.002575 -0.000961
vt 1.000000 0.000000
vt 0.333333 0.000000
vt 0.000000 0.000000
vt 0.666667 0.000000
vt 0.333333 0.000000
vt 1.000000 0.000000
vt 0.000000 0.000000
vt 0.666667 0.000000
vt 0.000000 1.000000
vt 0.250000 1.000000
vt 0.250000 0.000000
vt 0.000000 0.000000
vt 0.500000 1.000000
vt 0.500000 0.000000
vt 0.750000 1.000000
vt 0.750000 0.000000
vt 1.000000 1.000000
vt 1.000000 0.000000
vn 0.0000 0.4499 0.8931
vn 0.0000 -0.4499 -0.8931
vn -0.7071 0.6315 -0.3181
vn 0.7071 0.6315 -0.3181
vn 0.7071 -0.6315 0.3181
vn -0.7071 -0.6315 0.3181
usemtl Material.005
s off
f 4/1/1 2/2/1 1/3/1
f 4/1/1 3/4/1 2/2/1
f 6/5/2 8/6/2 5/7/2
f 7/8/2 8/6/2 6/5/2
s 1
f 10/9/3 12/10/4 11/11/4 9/12/3
f 12/10/4 14/13/5 13/14/5 11/11/4
f 14/13/5 16/15/6 15/16/6 13/14/5
f 16/15/6 10/17/3 9/18/3 15/16/6
