# Blender v2.92.0 OBJ File: 'untitled1.blend'
# www.blender.org
mtllib glass.mtl
o body.001_interior.002
v -0.156314 0.353023 0.402747
v -0.155422 0.391717 0.386114
v -0.259946 0.342635 0.480579
v 0.283214 0.439456 0.051681
v 0.300477 0.381104 0.062755
v 0.104816 0.463307 0.171543
v 0.115166 0.369076 0.200950
v -0.060400 0.461290 0.263288
v -0.345420 0.356214 0.414205
v 0.003207 0.485842 0.216046
v -0.312578 0.357796 0.447244
v -0.386606 0.354233 0.368176
v -0.158021 0.418530 0.362722
v 0.081334 0.366626 0.226053
v 0.029948 0.473951 0.221253
v -0.111018 0.414816 0.344928
v -0.112078 0.351604 0.371147
v 0.080118 0.466717 0.188036
v -0.192108 0.366626 -0.144255
v -0.202643 0.473951 -0.093732
v -0.430913 0.353023 0.030873
v -0.414754 0.391717 0.034915
v -0.535796 0.342635 0.107011
v -0.362325 0.414816 0.004597
v -0.387695 0.351604 -0.002105
v -0.156133 0.466717 -0.131905
v 0.033952 0.439456 -0.285882
v 0.028447 0.381104 -0.305639
v -0.133102 0.463307 -0.150656
v -0.158161 0.369076 -0.169202
v -0.269404 0.461290 -0.019755
v -0.538725 0.360988 0.126054
v -0.427337 0.353674 0.315554
v -0.497514 0.356214 0.208234
v -0.164979 0.461288 0.121824
v -0.205536 0.485842 -0.066642
v -0.101215 0.485850 0.074739
v -0.519425 0.357796 0.167123
v -0.465643 0.354233 0.261141
v -0.393163 0.418530 0.044283
v -0.275681 0.418542 0.203568
vt 0.028235 0.781971
vt 0.063355 0.787602
vt 0.066227 0.808572
vt 0.157496 0.847372
vt 0.155019 0.796302
vt 0.217660 0.802821
vt 0.215680 0.834446
vt 0.070275 0.859496
vt 0.107561 0.871419
vt 0.107535 0.966764
vt 0.070245 0.966764
vt 0.440054 0.956269
vt 0.414353 0.956269
vt 0.414384 0.842183
vt 0.440075 0.842326
vt 0.022977 0.872403
vt 0.021136 0.897381
vt 0.019567 0.930708
vt 0.019159 0.966764
vt 0.028235 0.781971
vt 0.066227 0.808572
vt 0.063355 0.787602
vt 0.082536 0.821091
vt 0.133174 0.853140
vt 0.143603 0.794974
vt 0.078085 0.786833
vt 0.157496 0.847372
vt 0.215680 0.834446
vt 0.217660 0.802821
vt 0.155019 0.796302
vt 0.070275 0.859496
vt 0.107561 0.871419
vt 0.440075 0.842326
vt 0.414384 0.842183
vt 0.025381 0.848284
vt 0.022977 0.872403
vt 0.021136 0.897381
vt 0.019567 0.930708
vt 0.149457 0.849220
vt 0.411940 0.477868
vt 0.368009 0.414964
vt 0.469392 0.424804
vt 0.514468 0.476460
vt 0.488494 0.477154
vn 0.5484 0.3195 0.7728
vn 0.5576 0.3057 0.7718
vn -0.2496 0.9502 0.1864
vn -0.2383 0.9551 0.1762
vn -0.2384 0.9551 0.1760
vn -0.2504 0.9503 0.1849
vn -0.2381 0.9552 0.1758
vn -0.2380 0.9552 0.1759
vn -0.2604 0.9453 0.1962
vn -0.2608 0.9455 0.1952
vn -0.2617 0.9456 0.1931
vn -0.2617 0.9456 0.1933
vn -0.5772 0.3195 -0.7515
vn -0.5767 0.3045 -0.7581
vn -0.5767 0.3031 -0.7587
vn -0.5767 0.3035 -0.7585
vn -0.5736 0.3057 -0.7600
vn -0.2525 0.9498 0.1848
vn -0.2385 0.9551 0.1759
vn -0.2382 0.9552 0.1757
vn -0.2628 0.9446 0.1969
vn -0.2636 0.9450 0.1935
vn -0.2633 0.9455 0.1918
vn -0.2615 0.9456 0.1933
vn -0.5766 0.3010 -0.7596
vn 0.5550 0.3040 0.7743
usemtl Material.002
s 1
f 3/1/1 1/2/1 2/3/1
f 6/4/2 7/5/2 5/6/2 4/7/2
f 13/8/3 8/9/4 35/10/5 41/11/6
f 37/12/7 35/13/5 8/14/4 10/15/8
f 11/16/9 13/8/3 41/11/6 9/17/10
f 41/11/6 12/18/11 9/17/10
f 41/11/6 33/19/12 12/18/11
f 23/20/13 22/21/13 21/22/13
f 24/23/14 20/24/15 19/25/16 25/26/14
f 29/27/17 27/28/17 28/29/17 30/30/17
f 40/31/18 41/11/6 35/10/5 31/32/19
f 37/12/7 36/33/20 31/34/19 35/13/5
f 40/31/18 32/35/21 38/36/22
f 38/36/22 34/37/23 41/11/6 40/31/18
f 41/11/6 34/37/23 39/38/24
f 41/11/6 39/38/24 33/19/12
f 19/25/16 20/24/15 26/39/25
f 16/40/26 17/41/26 14/42/26 18/43/26 15/44/26
