# Blender v2.92.0 OBJ File: 'filed.blend'
# www.blender.org
mtllib hangars.mtl
o Plane.005_Plane.006
v -135.470215 5.282377 -70.546188
v -106.468369 5.282377 -70.546188
v -135.470215 5.282377 -97.762062
v -106.468369 5.282377 -97.762062
v -135.470215 14.684926 -83.123077
v -106.468369 14.684926 -83.123077
v -135.470215 14.684926 -85.185181
v -106.468369 14.684926 -85.185181
v -135.470215 6.944361 -71.115372
v -135.470215 9.922398 -72.799759
v -135.470215 7.945982 -71.547424
v -135.470215 9.036018 -72.163956
v -106.468369 9.922398 -72.799759
v -106.468369 6.944361 -71.115372
v -106.468369 9.036018 -72.163956
v -106.468369 7.945982 -71.547424
v -135.470215 9.922398 -95.508499
v -135.470215 6.944361 -97.192879
v -135.470215 9.036018 -96.144302
v -135.470215 7.945982 -96.760834
v -106.468369 6.944361 -97.192879
v -106.468369 9.922398 -95.508499
v -106.468369 7.945982 -96.760826
v -106.468369 9.036018 -96.144302
v -135.470215 10.568516 -73.343460
v -135.470215 12.612596 -76.051765
v -135.470215 11.900110 -76.204300
v -135.470215 11.329767 -74.116440
v -135.470215 12.077952 -75.107750
v -106.468369 12.612596 -76.051765
v -106.468369 10.568516 -73.343460
v -106.468369 11.900110 -76.204300
v -106.468369 12.077952 -75.107750
v -106.468369 11.329767 -74.116440
v -135.470215 12.612596 -92.256493
v -135.470215 10.568516 -94.964798
v -135.470215 11.900110 -92.103966
v -135.470215 12.077952 -93.200508
v -135.470215 11.329767 -94.191818
v -106.468369 10.568516 -94.964798
v -106.468369 12.612596 -92.256493
v -106.468369 11.900110 -92.103966
v -106.468369 11.329767 -94.191818
v -106.468369 12.077952 -93.200508
v -135.470215 13.389599 -77.783340
v -135.470215 14.369227 -81.090820
v -135.470215 14.102084 -81.111443
v -135.470215 13.781632 -78.807625
v -135.470215 14.140202 -80.018250
v -106.468369 14.369227 -81.090820
v -106.468369 13.389599 -77.783340
v -106.468369 14.102084 -81.111443
v -106.468369 14.140202 -80.018250
v -106.468369 13.781632 -78.807625
v -135.470215 14.369227 -87.217438
v -135.470215 13.389599 -90.524918
v -135.470215 14.102084 -87.196815
v -135.470215 14.140202 -88.290009
v -135.470215 13.781632 -89.500633
v -106.468369 13.389599 -90.524918
v -106.468369 14.369227 -87.217438
v -106.468369 14.102084 -87.196815
v -106.468369 13.781632 -89.500633
v -106.468369 14.140202 -88.290009
v -135.470215 5.706164 -72.160645
v -106.468369 8.612277 -73.358994
v -106.468369 8.559702 -73.329254
v -106.468369 5.706164 -72.160645
v -135.470215 9.014471 -94.721779
v -106.468369 9.014471 -94.721779
v -106.468369 9.795689 -94.161407
v -135.470215 9.795689 -94.161407
v -106.468369 8.503613 -73.297531
v -135.470215 5.706164 -96.147614
v -106.468369 5.706164 -96.147614
v -106.468369 10.365151 -74.626045
v -135.470215 10.365151 -74.626045
v -135.470215 13.993188 -83.245399
v -135.470215 13.714944 -86.854004
v -135.470215 13.993188 -85.062859
v -135.470215 8.661319 -94.921524
v -135.470215 8.612277 -94.949265
v -135.470215 11.036087 -75.307320
v -106.468369 11.036087 -75.307320
v -135.470215 13.197062 -88.866318
v -135.470215 13.513090 -87.799324
v -135.470215 12.166720 -91.295219
v -135.470215 12.851540 -89.769089
v -135.470215 8.559702 -94.978996
v -106.468369 10.365151 -93.682213
v -135.470215 10.365151 -93.682213
v -135.470215 8.503614 -95.010719
v -135.470215 11.695507 -76.181015
v -106.468369 11.695507 -76.181015
v -106.468369 8.661321 -73.386734
v -106.468369 8.503615 -95.010719
v -106.468369 8.559702 -94.978996
v -106.468369 7.170969 -95.645950
v -135.470215 7.170969 -95.645950
v -106.468369 8.612277 -94.949265
v -135.470215 11.900110 -76.542282
v -106.468369 11.695507 -92.127235
v -106.468369 8.661319 -94.921524
v -106.468369 9.795689 -74.146851
v -135.470215 9.795689 -74.146851
v -135.470215 12.166720 -77.013039
v -106.468369 11.900110 -76.542282
v -106.468369 12.166720 -77.013039
v -106.468369 11.036087 -93.000938
v -106.468369 12.166720 -91.295219
v -135.470215 11.036087 -93.000938
v -106.468369 11.900110 -91.765976
v -106.468369 12.851540 -89.769089
v -106.468369 9.014471 -73.586472
v -135.470215 8.661321 -73.386734
v -135.470215 7.170969 -72.662300
v -106.468369 7.170969 -72.662300
v -135.470215 11.695507 -92.127235
v -135.470215 9.014471 -73.586472
v -135.470215 13.714944 -81.454254
v -106.468369 13.714944 -81.454254
v -106.468369 8.053757 -95.265160
v -106.468369 13.993188 -83.245399
v -135.470215 11.900110 -91.765976
v -106.468369 12.851540 -78.539169
v -135.470215 12.851540 -78.539169
v -106.468369 8.053757 -73.043091
v -135.470215 13.197062 -79.441940
v -106.468369 13.197062 -79.441940
v -106.468369 13.993188 -85.062859
v -135.470215 8.053757 -73.043091
v -135.470215 13.513090 -80.508934
v -106.468369 13.513090 -80.508934
v -135.470215 8.503613 -73.297531
v -106.468369 13.714944 -86.854004
v -135.470215 8.053757 -95.265160
v -106.468369 13.197062 -88.866318
v -106.468369 13.513090 -87.799324
v -135.470215 8.559702 -73.329254
v -135.470215 8.612277 -73.358994
v -135.470215 5.282377 -97.762062
v -135.470215 5.282377 -97.762062
v -135.470215 5.282377 -70.546188
v -135.470215 5.282377 -70.546188
v -106.468369 5.282377 -70.546188
v -106.468369 5.282377 -70.546188
v -106.468369 5.282377 -97.762062
v -106.468369 5.282377 -97.762062
v -135.470215 14.684926 -85.185181
v -135.470215 14.684926 -83.123077
v -106.468369 14.684926 -83.123077
v -106.468369 14.684926 -85.185181
v -135.470215 6.944361 -71.115372
v -135.470215 7.945982 -71.547424
v -135.470215 9.036018 -72.163956
v -135.470215 9.922398 -72.799759
v -106.468369 9.922398 -72.799759
v -106.468369 9.036018 -72.163956
v -106.468369 7.945982 -71.547424
v -106.468369 6.944361 -71.115372
v -135.470215 9.922398 -95.508499
v -135.470215 9.036018 -96.144302
v -135.470215 7.945982 -96.760834
v -135.470215 6.944361 -97.192879
v -106.468369 6.944361 -97.192879
v -106.468369 7.945982 -96.760826
v -106.468369 9.036018 -96.144302
v -106.468369 9.922398 -95.508499
v -135.470215 10.568516 -73.343460
v -135.470215 11.329767 -74.116440
v -135.470215 12.077952 -75.107750
v -135.470215 12.612596 -76.051765
v -106.468369 12.612596 -76.051765
v -106.468369 12.077952 -75.107750
v -106.468369 11.329767 -74.116440
v -106.468369 10.568516 -73.343460
v -135.470215 12.612596 -92.256493
v -135.470215 12.077952 -93.200508
v -135.470215 11.329767 -94.191818
v -135.470215 10.568516 -94.964798
v -106.468369 10.568516 -94.964798
v -106.468369 11.329767 -94.191818
v -106.468369 12.077952 -93.200508
v -106.468369 12.612596 -92.256493
v -135.470215 13.389599 -77.783340
v -135.470215 13.781632 -78.807625
v -135.470215 14.140202 -80.018250
v -135.470215 14.369227 -81.090820
v -106.468369 14.369227 -81.090820
v -106.468369 14.140202 -80.018250
v -106.468369 13.781632 -78.807625
v -106.468369 13.389599 -77.783340
v -135.470215 14.369227 -87.217438
v -135.470215 14.140202 -88.290009
v -135.470215 13.781632 -89.500633
v -135.470215 13.389599 -90.524918
v -106.468369 13.389599 -90.524918
v -106.468369 13.781632 -89.500633
v -106.468369 14.140202 -88.290009
v -106.468369 14.369227 -87.217438
v -135.470215 5.706164 -96.147614
v -135.470215 5.706164 -96.147614
v -135.470215 5.706164 -72.160645
v -135.470215 5.706164 -72.160645
v -106.468369 5.706164 -72.160645
v -106.468369 5.706164 -72.160645
v -106.468369 5.706164 -96.147614
v -106.468369 5.706164 -96.147614
v -106.468369 9.795689 -94.161407
v -106.468369 10.365151 -93.682213
v -135.470215 10.365151 -93.682213
v -135.470215 9.795689 -94.161407
v -106.468369 7.170969 -95.645950
v -135.470215 7.170969 -95.645950
v -106.468369 10.365151 -74.626045
v -106.468369 9.795689 -74.146851
v -135.470215 9.795689 -74.146851
v -135.470215 10.365151 -74.626045
v -135.470215 12.851540 -89.769089
v -135.470215 12.166720 -91.295219
v -106.468369 12.166720 -91.295219
v -106.468369 12.851540 -89.769089
v -135.470215 7.170969 -72.662300
v -106.468369 7.170969 -72.662300
v -135.470215 13.714944 -81.454254
v -135.470215 13.993188 -83.245399
v -106.468369 13.993188 -83.245399
v -106.468369 13.714944 -81.454254
v -135.470215 12.166720 -77.013039
v -135.470215 12.851540 -78.539169
v -106.468369 12.851540 -78.539169
v -106.468369 12.166720 -77.013039
v -135.470215 13.993188 -85.062859
v -106.468369 13.993188 -85.062859
v -135.470215 13.714944 -86.854004
v -106.468369 13.714944 -86.854004
v -106.468369 8.053757 -73.043091
v -135.470215 8.053757 -73.043091
v -106.468369 9.014471 -73.586472
v -106.468369 8.661321 -73.386734
v -106.468369 8.612277 -73.358994
v -106.468369 8.559702 -73.329254
v -106.468369 8.503613 -73.297531
v -135.470215 8.503613 -73.297531
v -135.470215 8.559702 -73.329254
v -135.470215 8.612277 -73.358994
v -135.470215 8.661321 -73.386734
v -135.470215 9.014471 -73.586472
v -106.468369 8.053757 -95.265160
v -135.470215 8.053757 -95.265160
v -106.468369 8.503615 -95.010719
v -106.468369 8.559702 -94.978996
v -106.468369 8.612277 -94.949265
v -106.468369 8.661319 -94.921524
v -106.468369 9.014471 -94.721779
v -135.470215 9.014471 -94.721779
v -135.470215 8.661319 -94.921524
v -135.470215 8.612277 -94.949265
v -135.470215 8.559702 -94.978996
v -135.470215 8.503614 -95.010719
v -135.470215 11.036087 -75.307320
v -106.468369 11.036087 -75.307320
v -135.470215 11.695507 -76.181015
v -106.468369 11.695507 -76.181015
v -135.470215 11.900110 -76.542282
v -106.468369 11.900110 -76.542282
v -106.468369 11.036087 -93.000938
v -135.470215 11.036087 -93.000938
v -106.468369 11.695507 -92.127235
v -135.470215 11.695507 -92.127235
v -106.468369 11.900110 -91.765976
v -135.470215 11.900110 -91.765976
v -135.470215 13.197062 -79.441940
v -106.468369 13.197062 -79.441940
v -135.470215 13.513090 -80.508934
v -106.468369 13.513090 -80.508934
v -135.470215 13.197062 -88.866318
v -106.468369 13.197062 -88.866318
v -135.470215 13.513090 -87.799324
v -106.468369 13.513090 -87.799324
vt 0.415182 0.442429
vt 0.000000 0.442429
vt 0.000000 0.000000
vt 0.415182 0.000000
vt 0.019104 0.884857
vt 0.019104 0.442429
vt 0.027399 0.442429
vt 0.027399 0.884857
vt 0.950817 0.000000
vt 0.950817 0.442429
vt 0.933972 0.442429
vt 0.933972 0.000000
vt 0.672582 0.884857
vt 0.672582 0.442429
vt 0.685341 0.442429
vt 0.685341 0.884857
vt 0.068714 0.884857
vt 0.068714 0.442429
vt 0.095129 0.442429
vt 0.095129 0.884857
vt 0.594358 0.884857
vt 0.594358 0.442429
vt 0.620444 0.442429
vt 0.620444 0.884857
vt 0.239048 0.442429
vt 0.239048 0.884857
vt 0.208046 0.884857
vt 0.208046 0.442429
vt 0.315919 0.442429
vt 0.315919 0.884857
vt 0.289504 0.884857
vt 0.289504 0.442429
vt 0.872349 0.696749
vt 0.868274 0.696434
vt 0.868274 0.603601
vt 0.872349 0.603287
vt 0.877165 0.634289
vt 0.877165 0.665747
vt 0.176588 0.884857
vt 0.176588 0.442429
vt 0.919727 0.254322
vt 0.915652 0.254007
vt 0.915652 0.161174
vt 0.919727 0.160860
vt 0.924543 0.191862
vt 0.924543 0.223320
vt 0.145586 0.884857
vt 0.145586 0.442429
vt 0.814369 0.485100
vt 0.825982 0.496891
vt 0.834682 0.528742
vt 0.837395 0.512014
vt 0.845551 0.526415
vt 0.892930 0.331193
vt 0.884773 0.345594
vt 0.882061 0.328866
vt 0.873360 0.360717
vt 0.861747 0.372509
vt 0.845551 0.773621
vt 0.837395 0.788021
vt 0.834682 0.771294
vt 0.825982 0.803144
vt 0.814369 0.814936
vt 0.861747 0.042673
vt 0.873360 0.054465
vt 0.882061 0.086315
vt 0.884773 0.069587
vt 0.892930 0.083988
vt 0.857405 0.552830
vt 0.863385 0.568457
vt 0.868855 0.586924
vt 0.916233 0.270684
vt 0.910763 0.289153
vt 0.904783 0.304778
vt 0.868855 0.713112
vt 0.863385 0.731579
vt 0.857405 0.747206
vt 0.904783 0.110404
vt 0.910763 0.126029
vt 0.916233 0.144497
vt 0.636889 0.442429
vt 0.636889 0.884857
vt 0.655972 0.442429
vt 0.655972 0.884857
vt 0.924543 0.442429
vt 0.924543 0.000000
vt 0.000000 0.884857
vt 0.000000 0.442429
vt 0.009405 0.442429
vt 0.009405 0.884857
vt 0.701448 0.442429
vt 0.701448 0.884857
vt 0.719159 0.442429
vt 0.719159 0.884857
vt 0.733728 0.442429
vt 0.733728 0.884857
vt 0.039191 0.442429
vt 0.039191 0.884857
vt 0.054313 0.442429
vt 0.054313 0.884857
vt 0.273879 0.884857
vt 0.273879 0.442429
vt 0.255410 0.884857
vt 0.255410 0.442429
vt 0.110755 0.442429
vt 0.110755 0.884857
vt 0.129223 0.442429
vt 0.129223 0.884857
vt 0.781107 0.442429
vt 0.415182 0.442429
vt 0.415182 0.000000
vt 0.781107 0.000000
vt 0.332757 0.884857
vt 0.332757 0.442429
vt 0.340067 0.442429
vt 0.340067 0.884857
vt 0.950818 0.442429
vt 0.950818 0.000000
vt 0.965664 0.000000
vt 0.965664 0.442429
vt 0.957354 0.442429
vt 0.957354 0.884857
vt 0.946109 0.884857
vt 0.946109 0.442429
vt 0.399763 0.442429
vt 0.399763 0.884857
vt 0.376482 0.884857
vt 0.376482 0.442429
vt 0.877165 0.884857
vt 0.877165 0.442429
vt 0.900157 0.442429
vt 0.900157 0.884857
vt 0.526607 0.442429
vt 0.526607 0.884857
vt 0.499282 0.884857
vt 0.499282 0.442429
vt 0.594358 0.442429
vt 0.594358 0.884857
vt 0.571076 0.884857
vt 0.571076 0.442429
vt 0.471557 0.884857
vt 0.471557 0.442429
vt 0.444232 0.884857
vt 0.444233 0.442429
vt 0.914650 0.442429
vt 0.914650 0.884857
vt 0.931469 0.442429
vt 0.931469 0.884857
vt 0.925287 0.884857
vt 0.924428 0.884857
vt 0.923508 0.884857
vt 0.922526 0.884857
vt 0.922526 0.442429
vt 0.923508 0.442429
vt 0.924428 0.442429
vt 0.925287 0.442429
vt 0.973975 0.000000
vt 0.973975 0.442429
vt 0.315919 0.884857
vt 0.315919 0.442429
vt 0.319801 0.442429
vt 0.320285 0.442429
vt 0.320738 0.442429
vt 0.321162 0.442429
vt 0.324209 0.442429
vt 0.324209 0.884857
vt 0.321162 0.884857
vt 0.320738 0.884857
vt 0.320285 0.884857
vt 0.319801 0.884857
vt 0.971550 0.442429
vt 0.971550 0.884857
vt 0.987160 0.442429
vt 0.987160 0.884857
vt 0.992735 0.442429
vt 1.000000 0.442429
vt 1.000000 0.884857
vt 0.992735 0.884857
vt 0.350461 0.442429
vt 0.350461 0.884857
vt 0.363789 0.442429
vt 0.363789 0.884857
vt 0.369300 0.442429
vt 0.369300 0.884857
vt 0.557305 0.884857
vt 0.557305 0.442429
vt 0.541028 0.884857
vt 0.541028 0.442429
vt 0.413535 0.442429
vt 0.413535 0.884857
vt 0.429812 0.442429
vt 0.429812 0.884857
vt 0.834682 0.766138
vt 0.838749 0.758955
vt 0.849196 0.735674
vt 0.854467 0.721903
vt 0.859289 0.705626
vt 0.862368 0.691204
vt 0.866612 0.663879
vt 0.866612 0.636154
vt 0.862368 0.608831
vt 0.859289 0.594410
vt 0.854467 0.578133
vt 0.849196 0.564362
vt 0.838749 0.541079
vt 0.834682 0.533897
vt 0.832652 0.043333
vt 0.851890 0.034379
vt 0.882061 0.091471
vt 0.878939 0.085960
vt 0.868880 0.072632
vt 0.858644 0.062239
vt 0.849957 0.054928
vt 0.838039 0.046380
vt 0.882061 0.323710
vt 0.851890 0.380803
vt 0.832652 0.371849
vt 0.838039 0.368802
vt 0.849957 0.360253
vt 0.858644 0.352943
vt 0.868880 0.342550
vt 0.878939 0.329222
vt 0.830246 0.373209
vt 0.806460 0.406499
vt 0.781106 0.415182
vt 0.781106 0.000000
vt 0.806460 0.008683
vt 0.830246 0.041972
vt 0.823384 0.038091
vt 0.809917 0.032281
vt 0.787571 0.024629
vt 0.787571 0.390553
vt 0.809916 0.382900
vt 0.823384 0.377091
vt 0.782868 0.815636
vt 0.759082 0.848925
vt 0.733728 0.857609
vt 0.733728 0.442427
vt 0.759082 0.451109
vt 0.782868 0.484398
vt 0.776006 0.480516
vt 0.762539 0.474709
vt 0.740193 0.467056
vt 0.740193 0.832979
vt 0.762538 0.825327
vt 0.776006 0.819517
vt 0.886127 0.316529
vt 0.896574 0.293248
vt 0.901845 0.279476
vt 0.906667 0.263199
vt 0.909746 0.248778
vt 0.913990 0.221454
vt 0.913990 0.193728
vt 0.909746 0.166404
vt 0.906667 0.151983
vt 0.901845 0.135706
vt 0.896574 0.121934
vt 0.886127 0.098652
vt 0.774362 0.457701
vt 0.783724 0.484882
vt 0.790990 0.467106
vt 0.784526 0.485336
vt 0.804512 0.476805
vt 0.785274 0.485760
vt 0.838368 0.390502
vt 0.831904 0.372272
vt 0.831102 0.372726
vt 0.821740 0.399908
vt 0.790990 0.832930
vt 0.784526 0.814699
vt 0.785274 0.814276
vt 0.804512 0.823231
vt 0.783724 0.815153
vt 0.774362 0.842335
vt 0.821740 0.015274
vt 0.831102 0.042456
vt 0.838368 0.024679
vt 0.831904 0.042910
vt 0.831561 0.528387
vt 0.821502 0.515059
vt 0.811266 0.504665
vt 0.802579 0.497355
vt 0.790661 0.488806
vt 0.790661 0.811228
vt 0.802579 0.802681
vt 0.811266 0.795370
vt 0.821502 0.784977
vt 0.831561 0.771648
vn 0.0000 -1.0000 0.0000
vn 0.0000 0.6138 -0.7894
vn 0.0000 0.6789 -0.7342
vn 0.0000 0.3240 -0.9460
vn 0.0000 0.3603 -0.9328
vn 0.0000 0.6138 0.7894
vn 0.0000 0.6789 0.7342
vn 0.0000 0.8922 -0.4516
vn 0.0000 0.9235 -0.3836
vn 0.0000 0.3240 0.9460
vn 0.0000 0.3603 0.9328
vn 0.0000 0.9834 0.1812
vn 0.0000 0.9970 0.0770
vn 0.0000 0.8922 0.4516
vn 0.0000 0.9235 0.3836
vn -1.0000 0.0000 0.0000
vn 0.0000 0.9970 -0.0770
vn 1.0000 0.0000 0.0000
vn 0.0000 0.9834 -0.1812
vn -1.0000 0.0001 0.0000
vn 0.0000 0.4448 0.8956
vn 0.0000 0.5383 0.8427
vn 0.0000 0.4448 -0.8956
vn 0.0000 0.5383 -0.8427
vn 0.0000 0.7570 0.6534
vn 0.0000 0.8359 0.5488
vn 0.0000 0.7570 -0.6534
vn 0.0000 0.8359 -0.5488
vn 0.0000 0.9471 0.3209
vn 0.0000 0.9691 0.2466
vn 0.0000 0.9471 -0.3209
vn 0.0000 0.9691 -0.2466
vn 0.0000 1.0000 0.0000
vn 0.0000 -0.6138 0.7894
vn 0.0000 -0.6789 0.7342
vn 0.0000 -0.3240 0.9460
vn 0.0000 -0.3603 0.9328
vn 0.0000 -0.6789 -0.7342
vn 0.0000 -0.6138 -0.7894
vn 0.0000 -0.9235 0.3836
vn 0.0000 -0.8922 0.4516
vn 0.0000 -0.3240 -0.9460
vn 0.0000 -0.3603 -0.9328
vn 0.0000 -0.9834 -0.1812
vn 0.0000 -0.9970 -0.0770
vn 0.0000 -0.8922 -0.4516
vn 0.0000 -0.9235 -0.3836
vn 0.0000 -0.9970 0.0770
vn 0.0000 -0.9834 0.1812
vn 0.0000 -0.4448 -0.8956
vn 0.0000 -0.5383 -0.8427
vn 0.0000 -0.4923 -0.8704
vn 0.0000 -0.4448 0.8956
vn 0.0000 -0.4923 0.8704
vn 0.0000 -0.5383 0.8427
vn 0.0000 -0.7570 -0.6534
vn 0.0000 -0.8359 -0.5488
vn 0.0000 -0.8701 -0.4928
vn 0.0000 -0.7570 0.6534
vn 0.0000 -0.8359 0.5488
vn 0.0000 -0.8701 0.4928
vn 0.0000 -0.9471 -0.3209
vn 0.0000 -0.9691 -0.2466
vn 0.0000 -0.9471 0.3209
vn 0.0000 -0.9691 0.2466
usemtl Material.002
s 1
f 143/1/1 141/2/1 147/3/1 145/4/1
f 168/5/2 161/6/2 36/7/3 40/8/3
f 148/9/4 142/10/4 164/11/5 165/12/5
f 156/13/6 157/14/6 31/15/7 25/16/7
f 41/17/8 35/18/8 56/19/9 60/20/9
f 144/21/10 146/22/10 160/23/11 153/24/11
f 46/25/12 50/26/12 151/27/13 5/28/13
f 26/29/14 30/30/14 51/31/15 45/32/15
f 193/33/16 57/34/16 47/35/16 188/36/16 150/37/16 149/38/16
f 5/28/13 151/27/13 152/39/17 7/40/17
f 189/41/18 52/42/18 62/43/18 200/44/18 8/45/18 6/46/18
f 61/47/19 55/48/19 7/40/17 152/39/17
f 169/49/16 170/50/16 27/51/16
f 170/50/16 171/52/16 27/51/16
f 171/52/16 172/53/16 27/51/16
f 173/54/18 174/55/18 32/56/18
f 174/55/18 175/57/18 32/56/18
f 175/57/18 176/58/18 32/56/18
f 177/59/16 178/60/16 37/61/16
f 178/60/16 179/62/16 37/61/16
f 179/62/16 180/63/16 37/61/16
f 181/64/18 182/65/18 42/66/18
f 182/65/18 183/67/18 42/66/18
f 183/67/18 184/68/18 42/66/18
f 185/69/16 186/70/16 47/35/16
f 186/70/16 187/71/20 47/35/16
f 187/71/20 188/36/16 47/35/16
f 189/41/18 190/72/18 52/42/18
f 190/72/18 191/73/18 52/42/18
f 191/73/18 192/74/18 52/42/18
f 193/33/16 194/75/16 57/34/16
f 194/75/16 195/76/16 57/34/16
f 195/76/16 196/77/16 57/34/16
f 197/78/18 198/79/18 62/43/18
f 198/79/18 199/80/18 62/43/18
f 199/80/18 200/44/18 62/43/18
f 153/24/11 160/23/11 159/81/21 154/82/21
f 154/82/21 159/81/21 158/83/22 155/84/22
f 155/84/22 158/83/22 157/14/6 156/13/6
f 165/12/5 164/11/5 163/85/23 166/86/23
f 166/87/23 163/88/23 162/89/24 167/90/24
f 167/90/24 162/89/24 161/6/2 168/5/2
f 25/16/7 31/15/7 34/91/25 28/92/25
f 28/92/25 34/91/25 33/93/26 29/94/26
f 29/94/26 33/93/26 30/95/14 26/96/14
f 40/8/3 36/7/3 39/97/27 43/98/27
f 43/98/27 39/97/27 38/99/28 44/100/28
f 44/100/28 38/99/28 35/18/8 41/17/8
f 45/32/15 51/31/15 54/101/29 48/102/29
f 48/102/29 54/101/29 53/103/30 49/104/30
f 49/104/30 53/103/30 50/26/12 46/25/12
f 60/20/9 56/19/9 59/105/31 63/106/31
f 63/106/31 59/105/31 58/107/32 64/108/32
f 64/108/32 58/107/32 55/48/19 61/47/19
f 201/109/33 203/110/33 205/111/33 207/112/33
f 212/113/34 209/114/34 210/115/35 211/116/35
f 202/117/36 208/118/36 213/119/37 214/120/37
f 218/121/38 215/122/38 216/123/39 217/124/39
f 222/125/40 219/126/40 220/127/41 221/128/41
f 206/129/42 204/130/42 223/131/43 224/132/43
f 228/133/44 225/134/44 226/135/45 227/136/45
f 232/137/46 229/138/46 230/139/47 231/140/47
f 227/136/45 226/135/45 233/141/48 234/142/48
f 234/142/48 233/141/48 235/143/49 236/144/49
f 238/145/50 237/146/50 224/132/43 223/131/43
f 248/147/51 239/148/51 240/149/52 241/150/52 242/151/52 243/152/52 237/146/50 238/145/50 244/153/52 245/154/52 246/155/52 247/156/52
f 217/124/39 216/123/39 239/148/51 248/147/51
f 214/120/37 213/119/37 249/157/53 250/158/53
f 250/159/53 249/160/53 251/161/54 252/162/54 253/163/54 254/164/54 255/165/55 256/166/55 257/167/54 258/168/54 259/169/54 260/170/54
f 209/114/34 212/113/34 256/166/55 255/165/55
f 215/122/38 218/121/38 261/171/56 262/172/56
f 262/172/56 261/171/56 263/173/57 264/174/57
f 264/174/57 263/173/57 265/175/58 229/176/46 232/177/46 266/178/58
f 211/116/35 210/115/35 267/179/59 268/180/59
f 268/180/59 267/179/59 269/181/60 270/182/60
f 270/182/60 269/181/60 271/183/61 221/128/41 220/127/41 272/184/61
f 231/140/47 230/139/47 273/185/62 274/186/62
f 274/186/62 273/185/62 275/187/63 276/188/63
f 225/134/44 228/133/44 276/188/63 275/187/63
f 278/189/64 277/190/64 219/126/40 222/125/40
f 280/191/65 279/192/65 277/190/64 278/189/64
f 236/144/49 235/143/49 279/192/65 280/191/65
f 27/51/16 172/53/16 185/69/16 47/35/16 57/34/16 196/77/16 177/59/16 37/61/16 124/193/16 87/194/16 88/195/16 85/196/16 86/197/16 79/198/16 80/199/16 78/200/16 120/201/16 132/202/16 128/203/16 126/204/16 106/205/16 101/206/16
f 103/207/18 22/208/18 181/64/18 42/66/18 112/209/18 102/210/18 109/211/18 90/212/18 71/213/18 70/214/18
f 107/215/18 32/56/18 176/58/18 13/216/18 95/217/18 114/218/18 104/219/18 76/220/18 84/221/18 94/222/18
f 73/223/18 14/224/18 2/225/18 4/226/18 21/227/18 96/228/18 122/229/18 98/230/18 75/231/18 68/232/18 117/233/18 127/234/18
f 92/235/16 18/236/16 3/237/16 1/238/16 9/239/16 134/240/16 131/241/16 116/242/16 65/243/16 74/244/16 99/245/16 136/246/16
f 112/209/18 42/66/18 184/68/18 197/78/18 62/43/18 52/42/18 192/74/18 173/54/18 32/56/18 107/215/18 108/247/18 125/248/18 129/249/18 133/250/18 121/251/18 123/252/18 130/253/18 135/254/18 138/255/18 137/256/18 113/257/18 110/258/18
f 11/259/16 139/260/16 134/240/16 9/239/16
f 12/261/16 140/262/16 139/260/16 11/259/16
f 140/262/16 12/261/16 10/263/16 115/264/16
f 13/216/18 15/265/18 66/266/18 95/217/18
f 67/267/18 66/266/18 15/265/18 16/268/18
f 73/223/18 67/267/18 16/268/18 14/224/18
f 19/269/16 82/270/16 81/271/16 17/272/16
f 89/273/16 82/270/16 19/269/16 20/274/16
f 92/235/16 89/273/16 20/274/16 18/236/16
f 23/275/18 97/276/18 96/228/18 21/227/18
f 24/277/18 100/278/18 97/276/18 23/275/18
f 100/278/18 24/277/18 22/208/18 103/207/18
f 115/264/16 10/263/16 169/49/16 27/51/16 101/206/16 93/279/16 83/280/16 77/281/16 105/282/16 119/283/16
f 124/193/16 37/61/16 180/63/16 17/272/16 81/271/16 69/284/16 72/285/16 91/286/16 111/287/16 118/288/16
