# Blender v2.92.0 OBJ File: 'filed.blend'
# www.blender.org
mtllib runway.mtl
o Plane
v -7.503737 6.017098 81.923615
v -7.503751 6.017098 -81.923615
v 7.503751 6.017098 81.923615
v 7.503737 6.017098 -81.923615
v -7.503737 5.826052 81.923615
v -7.503751 5.826052 -81.923615
v 7.503751 5.826052 81.923615
v 7.503737 5.826052 -81.923615
vt 4.193297 0.880740
vt -3.693226 0.880740
vt -3.693226 0.119260
vt 4.193295 0.119260
vt 1.675957 0.878924
vt 1.675957 0.121076
vt 1.675957 0.121076
vt 1.675957 0.878924
vt -1.175887 0.121076
vt -1.175887 0.121076
vt -1.175887 0.878924
vt -1.175887 0.878924
vn 0.0000 1.0000 -0.0000
vn 0.0000 0.0000 1.0000
vn -1.0000 0.0000 0.0000
vn 1.0000 0.0000 -0.0000
vn 0.0000 0.0000 -1.0000
usemtl Material.001
s off
f 3/1/1 4/2/1 2/3/1 1/4/1
f 3/5/2 1/6/2 5/7/2 7/8/2
f 1/6/3 2/9/3 6/10/3 5/7/3
f 4/11/4 3/5/4 7/8/4 8/12/4
f 2/9/5 4/11/5 8/12/5 6/10/5
