# Blender v2.92.0 OBJ File: 'filed.blend'
# www.blender.org
mtllib runway1.mtl
o Plane.001
v -174.388107 5.657916 174.388107
v 174.388107 5.657916 174.388107
v -174.388107 5.657916 -174.388107
v 174.388107 5.657916 -174.388107
v -174.388107 -11.782516 174.388107
v 174.388107 -11.782516 174.388107
v -174.388107 -11.782516 -174.388107
v 174.388107 -11.782516 -174.388107
v -174.388107 5.657916 -142.681183
v -174.388107 5.657916 -110.974251
v -174.388107 5.657916 -79.267319
v -174.388107 5.657916 -47.560390
v -174.388107 5.657916 -15.853459
v -174.388107 5.657916 15.853467
v -174.388107 5.657916 47.560394
v -174.388107 5.657916 79.267326
v -174.388107 5.657916 110.974251
v -174.388107 5.657916 142.681183
v -142.681183 5.657916 174.388107
v -110.974251 5.657916 174.388107
v -79.267319 5.657916 174.388107
v -47.560390 5.657916 174.388107
v -15.853459 5.657916 174.388107
v 15.853467 5.657916 174.388107
v 47.560394 5.657916 174.388107
v 79.267326 5.657916 174.388107
v 110.974251 5.657916 174.388107
v 142.681183 5.657916 174.388107
v 174.388107 5.657916 142.681183
v 174.388107 5.657916 110.974251
v 174.388107 5.657916 79.267319
v 174.388107 5.657916 47.560390
v 174.388107 5.657916 15.853459
v 174.388107 5.657916 -15.853467
v 174.388107 5.657916 -47.560394
v 174.388107 5.657916 -79.267326
v 174.388107 5.657916 -110.974251
v 174.388107 5.657916 -142.681183
v 142.681183 5.657916 -174.388107
v 110.974251 5.657916 -174.388107
v 79.267319 5.657916 -174.388107
v 47.560390 5.657916 -174.388107
v 15.853459 5.657916 -174.388107
v -15.853467 5.657916 -174.388107
v -47.560394 5.657916 -174.388107
v -79.267326 5.657916 -174.388107
v -110.974251 5.657916 -174.388107
v -142.681183 5.657916 -174.388107
v -142.681183 5.657916 142.681183
v -142.681183 5.657916 110.974251
v -142.681183 5.657916 79.267319
v -142.681183 5.657916 47.560390
v -142.681183 5.657916 15.853459
v -142.681183 5.657916 -15.853467
v -142.681183 5.657916 -47.560394
v -142.681183 5.657916 -79.267326
v -142.681183 5.657916 -110.974251
v -142.681183 5.657916 -142.681183
v -110.974251 5.657916 142.681183
v -110.974251 5.657916 110.974251
v -110.974251 5.657916 79.267319
v -110.974251 5.657916 47.560390
v -110.974251 5.657916 15.853459
v -110.974251 5.657916 -15.853467
v -110.974251 5.657916 -47.560394
v -110.974251 5.657916 -79.267326
v -110.974251 5.657916 -110.974251
v -110.974251 5.657916 -142.681183
v -79.267319 5.657916 142.681183
v -79.267319 5.657916 110.974251
v -79.267319 5.657916 79.267319
v -79.267319 5.657916 47.560390
v -79.267319 5.657916 15.853459
v -79.267319 5.657916 -15.853467
v -79.267319 5.657916 -47.560394
v -79.267319 5.657916 -79.267326
v -79.267319 5.657916 -110.974251
v -79.267319 5.657916 -142.681183
v -47.560390 5.657916 142.681183
v -47.560390 5.657916 110.974251
v -47.560390 5.657916 79.267319
v -47.560390 5.657916 47.560390
v -47.560390 5.657916 15.853459
v -47.560390 5.657916 -15.853467
v -47.560390 5.657916 -47.560394
v -47.560390 5.657916 -79.267326
v -47.560390 5.657916 -110.974251
v -47.560390 5.657916 -142.681183
v -15.853461 5.657916 142.681183
v -15.853462 5.657916 110.974251
v -15.853462 5.657916 79.267319
v -15.853462 5.657916 47.560390
v -15.853463 5.657916 15.853459
v -15.853465 5.657916 -15.853467
v -15.853465 5.657916 -47.560394
v -15.853465 5.657916 -79.267326
v -15.853466 5.657916 -110.974251
v -15.853467 5.657916 -142.681183
v 15.853466 5.657916 142.681183
v 15.853465 5.657916 110.974251
v 15.853465 5.657916 79.267319
v 15.853465 5.657916 47.560390
v 15.853463 5.657916 15.853459
v 15.853462 5.657916 -15.853467
v 15.853462 5.657916 -47.560394
v 15.853462 5.657916 -79.267326
v 15.853461 5.657916 -110.974251
v 15.853459 5.657916 -142.681183
v 47.560394 5.657916 142.681183
v 47.560394 5.657916 110.974251
v 47.560394 5.657916 79.267319
v 47.560394 5.657916 47.560390
v 47.560394 5.657916 15.853459
v 47.560394 5.657916 -15.853467
v 47.560394 5.657916 -47.560394
v 47.560394 5.657916 -79.267326
v 47.560394 5.657916 -110.974251
v 47.560390 5.657916 -142.681183
v 79.267326 5.657916 142.681183
v 79.267326 5.657916 110.974251
v 79.267326 5.657916 79.267319
v 79.267326 5.657916 47.560390
v 79.267326 5.657916 15.853459
v 79.267326 5.657916 -15.853467
v 79.267326 5.657916 -47.560394
v 79.267326 5.657916 -79.267326
v 79.267326 5.657916 -110.974251
v 79.267319 5.657916 -142.681183
v 110.974251 5.657916 142.681183
v 110.974251 5.657916 110.974251
v 110.974251 5.657916 79.267319
v 110.974251 5.657916 47.560390
v 110.974251 5.657916 15.853459
v 110.974251 5.657916 -15.853467
v 110.974251 5.657916 -47.560394
v 110.974251 5.657916 -79.267326
v 110.974251 5.657916 -110.974251
v 110.974251 5.657916 -142.681183
v 142.681183 5.657916 142.681183
v 142.681183 5.657916 110.974251
v 142.681183 5.657916 79.267319
v 142.681183 5.657916 47.560390
v 142.681183 5.657916 15.853459
v 142.681183 5.657916 -15.853467
v 142.681183 5.657916 -47.560394
v 142.681183 5.657916 -79.267326
v 142.681183 5.657916 -110.974251
v 142.681183 5.657916 -142.681183
vt 7.871813 3.348295
vt 9.007381 2.845682
vt 9.509995 3.981249
vt 8.374427 4.483862
vt -8.509995 -2.981249
vt -2.981249 9.509995
vt 9.509995 3.981249
vt 3.981249 -8.509995
vt 2.864131 -2.547682
vt 3.133665 -2.953218
vt -3.412855 -2.568571
vt -2.961545 -2.272640
vt -2.431938 -2.297644
vt -1.902331 -2.322648
vt -1.372724 -2.347651
vt -0.843117 -2.372655
vt -0.313510 -2.397659
vt 0.216097 -2.422663
vt 0.745703 -2.447667
vt 1.275310 -2.472670
vt 1.804917 -2.497674
vt 2.334524 -2.522678
vt 3.756116 3.272640
vt 4.207425 3.568570
vt 2.945220 -2.018562
vt 3.026310 -1.489442
vt 3.107399 -0.960321
vt 3.188489 -0.431201
vt 3.269578 0.097919
vt 3.350668 0.627039
vt 3.431757 1.156159
vt 3.512847 1.685279
vt 3.593936 2.214399
vt 3.675026 2.743520
vt -2.339095 3.953218
vt -2.069560 3.547682
vt -2.150649 3.018562
vt -2.231739 2.489442
vt -2.312828 1.960322
vt -2.393918 1.431201
vt -2.475007 0.902081
vt -2.556097 0.372961
vt -2.637186 -0.156159
vt -2.718276 -0.685279
vt -2.799365 -1.214399
vt -2.880455 -1.743519
vt 3.226509 3.297644
vt 2.696902 3.322647
vt 2.167295 3.347651
vt 1.637688 3.372655
vt 1.108081 3.397659
vt 0.578474 3.422663
vt 0.048868 3.447667
vt -0.480739 3.472670
vt -1.010346 3.497674
vt -1.539953 3.522678
vt -3.483862 8.374427
vt -2.348295 7.871814
vt -1.845682 9.007381
vt -2.981249 9.509995
vt -1.212727 7.369200
vt -0.710114 8.504767
vt -0.077159 6.866587
vt 0.425454 8.002154
vt 1.058408 6.363974
vt 1.561021 7.499541
vt 2.193976 5.861361
vt 2.696589 6.996928
vt 3.329543 5.358747
vt 3.832157 6.494315
vt 4.465111 4.856134
vt 4.967724 5.991702
vt 5.600678 4.353521
vt 6.103292 5.489089
vt 6.736246 3.850908
vt 7.238859 4.986475
vt -8.509995 -2.981249
vt -7.374426 -3.483862
vt -6.871813 -2.348295
vt -8.007381 -1.845682
vt -6.369200 -1.212727
vt -7.504767 -0.710114
vt -5.866587 -0.077160
vt -7.002154 0.425454
vt -5.363974 1.058408
vt -6.499541 1.561021
vt -4.861361 2.193976
vt -5.996928 2.696589
vt -4.358747 3.329544
vt -5.494315 3.832157
vt -3.856134 4.465111
vt -4.991702 4.967724
vt -3.353521 5.600679
vt -4.489089 6.103292
vt -2.850908 6.736246
vt -3.986475 7.238859
vt -6.238858 -3.986475
vt -5.736245 -2.850908
vt -5.233632 -1.715340
vt -4.731019 -0.579773
vt -4.228406 0.555795
vt -3.725793 1.691362
vt -3.223180 2.826930
vt -2.720567 3.962497
vt -2.217954 5.098065
vt -1.715340 6.233632
vt -5.103291 -4.489089
vt -4.600677 -3.353521
vt -4.098064 -2.217954
vt -3.595451 -1.082386
vt -3.092838 0.053182
vt -2.590225 1.188749
vt -2.087612 2.324317
vt -1.584999 3.459884
vt -1.082386 4.595451
vt -0.579772 5.731019
vt -3.967724 -4.991702
vt -3.465110 -3.856134
vt -2.962497 -2.720567
vt -2.459884 -1.584999
vt -1.957270 -0.449432
vt -1.454657 0.686136
vt -0.952044 1.821704
vt -0.449431 2.957271
vt 0.053182 4.092838
vt 0.555795 5.228406
vt -2.832156 -5.494315
vt -2.329543 -4.358747
vt -1.826930 -3.223180
vt -1.324317 -2.087612
vt -0.821703 -0.952045
vt -0.319090 0.183523
vt 0.183523 1.319090
vt 0.686136 2.454658
vt 1.188749 3.590225
vt 1.691363 4.725793
vt -1.696589 -5.996928
vt -1.193975 -4.861361
vt -0.691362 -3.725793
vt -0.188749 -2.590226
vt 0.313864 -1.454658
vt 0.816478 -0.319091
vt 1.319091 0.816477
vt 1.821704 1.952044
vt 2.324317 3.087612
vt 2.826930 4.223180
vt -0.561021 -6.499541
vt -0.058408 -5.363974
vt 0.444205 -4.228406
vt 0.946819 -3.092839
vt 1.449432 -1.957271
vt 1.952045 -0.821704
vt 2.454659 0.313864
vt 2.957272 1.449432
vt 3.459885 2.584999
vt 3.962498 3.720567
vt 0.574547 -7.002154
vt 1.077160 -5.866587
vt 1.579773 -4.731019
vt 2.082386 -3.595452
vt 2.585000 -2.459884
vt 3.087613 -1.324317
vt 3.590226 -0.188749
vt 4.092839 0.946819
vt 4.595452 2.082386
vt 5.098065 3.217953
vt 1.710114 -7.504767
vt 2.212727 -6.369200
vt 2.715340 -5.233632
vt 3.217954 -4.098064
vt 3.720567 -2.962497
vt 4.223180 -1.826930
vt 4.725793 -0.691362
vt 5.228406 0.444205
vt 5.731019 1.579773
vt 6.233633 2.715340
vt 2.845682 -8.007381
vt 3.348295 -6.871814
vt 3.850908 -5.736246
vt 4.353521 -4.600678
vt 4.856134 -3.465111
vt 5.358747 -2.329543
vt 5.861361 -1.193976
vt 6.363974 -0.058408
vt 6.866587 1.077160
vt 7.369200 2.212727
vt 3.981249 -8.509995
vt 4.483862 -7.374426
vt 4.986475 -6.238858
vt 5.489089 -5.103291
vt 5.991702 -3.967724
vt 6.494315 -2.832156
vt 6.996928 -1.696589
vt 7.499541 -0.561021
vt 8.002154 0.574547
vt 8.504767 1.710114
vn 0.0000 1.0000 0.0000
vn 0.0000 -1.0000 0.0000
vn -1.0000 -0.0000 0.0000
vn 0.0000 0.0000 -1.0000
vn 0.0000 0.0000 1.0000
vn 1.0000 -0.0000 0.0000
usemtl Material.005
s off
f 148/1/1 38/2/1 4/3/1 39/4/1
f 5/5/2 7/6/2 8/7/2 6/8/2
f 3/9/3 7/10/3 5/11/3 1/12/3 18/13/3 17/14/3 16/15/3 15/16/3 14/17/3 13/18/3 12/19/3 11/20/3 10/21/3 9/22/3
f 4/23/4 8/24/4 7/10/4 3/9/4 48/25/4 47/26/4 46/27/4 45/28/4 44/29/4 43/30/4 42/31/4 41/32/4 40/33/4 39/34/4
f 1/12/5 5/11/5 6/35/5 2/36/5 28/37/5 27/38/5 26/39/5 25/40/5 24/41/5 23/42/5 22/43/5 21/44/5 20/45/5 19/46/5
f 2/36/6 6/35/6 8/24/6 4/23/6 38/47/6 37/48/6 36/49/6 35/50/6 34/51/6 33/52/6 32/53/6 31/54/6 30/55/6 29/56/6
f 9/57/1 58/58/1 48/59/1 3/60/1
f 58/58/1 68/61/1 47/62/1 48/59/1
f 68/61/1 78/63/1 46/64/1 47/62/1
f 78/63/1 88/65/1 45/66/1 46/64/1
f 88/65/1 98/67/1 44/68/1 45/66/1
f 98/67/1 108/69/1 43/70/1 44/68/1
f 108/69/1 118/71/1 42/72/1 43/70/1
f 118/71/1 128/73/1 41/74/1 42/72/1
f 128/73/1 138/75/1 40/76/1 41/74/1
f 138/75/1 148/1/1 39/4/1 40/76/1
f 1/77/1 19/78/1 49/79/1 18/80/1
f 18/80/1 49/79/1 50/81/1 17/82/1
f 17/82/1 50/81/1 51/83/1 16/84/1
f 16/84/1 51/83/1 52/85/1 15/86/1
f 15/86/1 52/85/1 53/87/1 14/88/1
f 14/88/1 53/87/1 54/89/1 13/90/1
f 13/90/1 54/89/1 55/91/1 12/92/1
f 12/92/1 55/91/1 56/93/1 11/94/1
f 11/94/1 56/93/1 57/95/1 10/96/1
f 10/96/1 57/95/1 58/58/1 9/57/1
f 19/78/1 20/97/1 59/98/1 49/79/1
f 49/79/1 59/98/1 60/99/1 50/81/1
f 50/81/1 60/99/1 61/100/1 51/83/1
f 51/83/1 61/100/1 62/101/1 52/85/1
f 52/85/1 62/101/1 63/102/1 53/87/1
f 53/87/1 63/102/1 64/103/1 54/89/1
f 54/89/1 64/103/1 65/104/1 55/91/1
f 55/91/1 65/104/1 66/105/1 56/93/1
f 56/93/1 66/105/1 67/106/1 57/95/1
f 57/95/1 67/106/1 68/61/1 58/58/1
f 20/97/1 21/107/1 69/108/1 59/98/1
f 59/98/1 69/108/1 70/109/1 60/99/1
f 60/99/1 70/109/1 71/110/1 61/100/1
f 61/100/1 71/110/1 72/111/1 62/101/1
f 62/101/1 72/111/1 73/112/1 63/102/1
f 63/102/1 73/112/1 74/113/1 64/103/1
f 64/103/1 74/113/1 75/114/1 65/104/1
f 65/104/1 75/114/1 76/115/1 66/105/1
f 66/105/1 76/115/1 77/116/1 67/106/1
f 67/106/1 77/116/1 78/63/1 68/61/1
f 21/107/1 22/117/1 79/118/1 69/108/1
f 69/108/1 79/118/1 80/119/1 70/109/1
f 70/109/1 80/119/1 81/120/1 71/110/1
f 71/110/1 81/120/1 82/121/1 72/111/1
f 72/111/1 82/121/1 83/122/1 73/112/1
f 73/112/1 83/122/1 84/123/1 74/113/1
f 74/113/1 84/123/1 85/124/1 75/114/1
f 75/114/1 85/124/1 86/125/1 76/115/1
f 76/115/1 86/125/1 87/126/1 77/116/1
f 77/116/1 87/126/1 88/65/1 78/63/1
f 22/117/1 23/127/1 89/128/1 79/118/1
f 79/118/1 89/128/1 90/129/1 80/119/1
f 80/119/1 90/129/1 91/130/1 81/120/1
f 81/120/1 91/130/1 92/131/1 82/121/1
f 82/121/1 92/131/1 93/132/1 83/122/1
f 83/122/1 93/132/1 94/133/1 84/123/1
f 84/123/1 94/133/1 95/134/1 85/124/1
f 85/124/1 95/134/1 96/135/1 86/125/1
f 86/125/1 96/135/1 97/136/1 87/126/1
f 87/126/1 97/136/1 98/67/1 88/65/1
f 23/127/1 24/137/1 99/138/1 89/128/1
f 89/128/1 99/138/1 100/139/1 90/129/1
f 90/129/1 100/139/1 101/140/1 91/130/1
f 91/130/1 101/140/1 102/141/1 92/131/1
f 92/131/1 102/141/1 103/142/1 93/132/1
f 93/132/1 103/142/1 104/143/1 94/133/1
f 94/133/1 104/143/1 105/144/1 95/134/1
f 95/134/1 105/144/1 106/145/1 96/135/1
f 96/135/1 106/145/1 107/146/1 97/136/1
f 97/136/1 107/146/1 108/69/1 98/67/1
f 24/137/1 25/147/1 109/148/1 99/138/1
f 99/138/1 109/148/1 110/149/1 100/139/1
f 100/139/1 110/149/1 111/150/1 101/140/1
f 101/140/1 111/150/1 112/151/1 102/141/1
f 102/141/1 112/151/1 113/152/1 103/142/1
f 103/142/1 113/152/1 114/153/1 104/143/1
f 104/143/1 114/153/1 115/154/1 105/144/1
f 105/144/1 115/154/1 116/155/1 106/145/1
f 106/145/1 116/155/1 117/156/1 107/146/1
f 107/146/1 117/156/1 118/71/1 108/69/1
f 25/147/1 26/157/1 119/158/1 109/148/1
f 109/148/1 119/158/1 120/159/1 110/149/1
f 110/149/1 120/159/1 121/160/1 111/150/1
f 111/150/1 121/160/1 122/161/1 112/151/1
f 112/151/1 122/161/1 123/162/1 113/152/1
f 113/152/1 123/162/1 124/163/1 114/153/1
f 114/153/1 124/163/1 125/164/1 115/154/1
f 115/154/1 125/164/1 126/165/1 116/155/1
f 116/155/1 126/165/1 127/166/1 117/156/1
f 117/156/1 127/166/1 128/73/1 118/71/1
f 26/157/1 27/167/1 129/168/1 119/158/1
f 119/158/1 129/168/1 130/169/1 120/159/1
f 120/159/1 130/169/1 131/170/1 121/160/1
f 121/160/1 131/170/1 132/171/1 122/161/1
f 122/161/1 132/171/1 133/172/1 123/162/1
f 123/162/1 133/172/1 134/173/1 124/163/1
f 124/163/1 134/173/1 135/174/1 125/164/1
f 125/164/1 135/174/1 136/175/1 126/165/1
f 126/165/1 136/175/1 137/176/1 127/166/1
f 127/166/1 137/176/1 138/75/1 128/73/1
f 27/167/1 28/177/1 139/178/1 129/168/1
f 129/168/1 139/178/1 140/179/1 130/169/1
f 130/169/1 140/179/1 141/180/1 131/170/1
f 131/170/1 141/180/1 142/181/1 132/171/1
f 132/171/1 142/181/1 143/182/1 133/172/1
f 133/172/1 143/182/1 144/183/1 134/173/1
f 134/173/1 144/183/1 145/184/1 135/174/1
f 135/174/1 145/184/1 146/185/1 136/175/1
f 136/175/1 146/185/1 147/186/1 137/176/1
f 137/176/1 147/186/1 148/1/1 138/75/1
f 28/177/1 2/187/1 29/188/1 139/178/1
f 139/178/1 29/188/1 30/189/1 140/179/1
f 140/179/1 30/189/1 31/190/1 141/180/1
f 141/180/1 31/190/1 32/191/1 142/181/1
f 142/181/1 32/191/1 33/192/1 143/182/1
f 143/182/1 33/192/1 34/193/1 144/183/1
f 144/183/1 34/193/1 35/194/1 145/184/1
f 145/184/1 35/194/1 36/195/1 146/185/1
f 146/185/1 36/195/1 37/196/1 147/186/1
f 147/186/1 37/196/1 38/2/1 148/1/1
